<?xml version="1.0" encoding="UTF-8" standalone="no"?>
<svg
   width="100%"
   height="100%"
   viewBox="0 0 311.03998 287.04001"
   version="1.1"
   id="svg76"
   xmlns="http://www.w3.org/2000/svg"
   xmlnsSvg="http://www.w3.org/2000/svg">
  <defs
     id="defs14">
    <clipPath
       id="clip-0">
      <path
         clip-rule="nonzero"
         d="M 203 0 L 311 0 L 311 108 L 203 108 Z M 203 0 "
         id="path2" />
    </clipPath>
    <clipPath
       id="clip-1">
      <path
         clip-rule="nonzero"
         d="M 203 171 L 311 171 L 311 285.457031 L 203 285.457031 Z M 203 171 "
         id="path5" />
    </clipPath>
    <clipPath
       id="clip-2">
      <path
         clip-rule="nonzero"
         d="M 0 171 L 157 171 L 157 285.457031 L 0 285.457031 Z M 0 171 "
         id="path8" />
    </clipPath>
    <clipPath
       id="clip-3">
      <path
         clip-rule="nonzero"
         d="M 232 43 L 311 43 L 311 124 L 232 124 Z M 232 43 "
         id="path11" />
    </clipPath>
  </defs>
  <path
     fill="none"
     stroke-width="7"
     stroke-linecap="butt"
     stroke-linejoin="miter"
     stroke="inherit"
     stroke-opacity="1"
     stroke-miterlimit="4"
     d="M 105.251591 176.938242 L 292.751755 176.938242 C 293.49015 176.938242 294.218144 177.011041 294.946139 177.15664 C 295.668933 177.302239 296.370928 177.515437 297.057323 177.796235 C 297.738517 178.077033 298.388512 178.425431 299.002108 178.836227 C 299.615703 179.247024 300.182499 179.715021 300.702495 180.235017 C 301.227691 180.755013 301.695687 181.327008 302.106484 181.940604 C 302.512081 182.554199 302.860478 183.204194 303.141276 183.885389 C 303.427274 184.566584 303.640472 185.268578 303.786071 185.996573 C 303.92647 186.719367 303.999269 187.452561 303.999269 188.190956 L 303.999269 240.689754 C 303.999269 241.428148 303.92647 242.161343 303.786071 242.884137 C 303.640472 243.606932 303.427274 244.314126 303.141276 244.995321 C 302.860478 245.676516 302.512081 246.326511 302.106484 246.940106 C 301.695687 247.553701 301.227691 248.120497 300.702495 248.645693 C 300.182499 249.165689 299.615703 249.633686 299.002108 250.044482 C 298.388512 250.455279 297.738517 250.798477 297.057323 251.084474 C 296.370928 251.365272 295.668933 251.578471 294.946139 251.72407 C 294.218144 251.869668 293.49015 251.942468 292.751755 251.942468 L 105.251591 251.942468 C 104.513196 251.942468 103.780002 251.869668 103.057207 251.72407 C 102.329213 251.578471 101.627218 251.365272 100.946024 251.084474 C 100.264829 250.798477 99.614834 250.455279 99.001238 250.044482 C 98.387643 249.633686 97.815648 249.165689 97.295651 248.645693 C 96.770456 248.120497 96.307659 247.553701 95.896862 246.940106 C 95.486065 246.326511 95.137668 245.676516 94.85687 244.995321 C 94.576072 244.314126 94.357674 243.606932 94.217275 242.884137 C 94.071676 242.161343 93.998877 241.428148 93.998877 240.689754 L 93.998877 188.190956 C 93.998877 187.452561 94.071676 186.719367 94.217275 185.996573 C 94.357674 185.268578 94.576072 184.566584 94.85687 183.885389 C 95.137668 183.204194 95.486065 182.554199 95.896862 181.940604 C 96.307659 181.327008 96.770456 180.755013 97.295651 180.235017 C 97.815648 179.715021 98.387643 179.247024 99.001238 178.836227 C 99.614834 178.425431 100.264829 178.077033 100.946024 177.796235 C 101.627218 177.515437 102.329213 177.302239 103.057207 177.15664 C 103.780002 177.011041 104.513196 176.938242 105.251591 176.938242 Z M 105.251591 176.938242 "
     transform="matrix(0.751208, 0, 0, 0.751208, 0.375604, 0.375604)"
     id="path16" />
  <path
     fill="none"
     stroke-width="7"
     stroke-linecap="butt"
     stroke-linejoin="miter"
     stroke="inherit"
     stroke-opacity="1"
     stroke-miterlimit="10"
     d="M 73.99983 44.001259 C 73.99983 24.667807 89.67251 9.000327 109.000762 9.000327 "
     transform="matrix(0.751208, 0, 0, 0.751208, 0.375604, 0.375604)"
     id="path18" />
  <path
     fill="none"
     stroke-width="7"
     stroke-linecap="butt"
     stroke-linejoin="miter"
     stroke="inherit"
     stroke-opacity="1"
     stroke-miterlimit="10"
     d="M 73.99983 52.248396 L 329.000678 52.248396 "
     transform="matrix(0.751208, 0, 0, 0.751208, 0.375604, 0.375604)"
     id="path20" />
  <g
     clip-path="url(#clip-0)"
     id="g24">
    <path
       fill="none"
       stroke-width="7"
       stroke-linecap="butt"
       stroke-linejoin="miter"
       stroke="inherit"
       stroke-opacity="1"
       stroke-miterlimit="10"
       d="m 334.00033,44.00124 c 0,-19.333452 15.66748,-35.000932 35.00093,-35.000932"
       transform="matrix(0,0.751208,-0.751208,0,310.62438,-243.76689)"
       id="path22" />
  </g>
  <path
     fill="none"
     stroke-width="7"
     stroke-linecap="butt"
     stroke-linejoin="miter"
     stroke="inherit"
     stroke-opacity="1"
     stroke-miterlimit="10"
     d="M 108.501566 9.000327 L 369.497968 9.000327 "
     transform="matrix(0.751208, 0, 0, 0.751208, 0.375604, 0.375604)"
     id="path26" />
  <path
     fill="none"
     stroke-width="10"
     stroke-linecap="butt"
     stroke-linejoin="miter"
     stroke="inherit"
     stroke-opacity="1"
     stroke-miterlimit="10"
     d="M 129.00087 214.438852 L 268.999398 214.438852 "
     transform="matrix(-0.751208, 0, 0, -0.751208, 298.980662, 322.177955)"
     id="path28" />
  <g
     clip-path="url(#clip-1)"
     id="g32">
    <path
       fill="none"
       stroke-width="7"
       stroke-linecap="butt"
       stroke-linejoin="miter"
       stroke="inherit"
       stroke-opacity="1"
       stroke-miterlimit="10"
       d="m 334.00026,326.50051 c 0,-19.32825 15.66748,-35.00093 35.00093,-35.00093"
       transform="matrix(-0.751208,0,0,-0.751208,554.76684,490.91422)"
       id="path30" />
  </g>
  <path
     fill="none"
     stroke-width="7"
     stroke-linecap="butt"
     stroke-linejoin="miter"
     stroke="inherit"
     stroke-opacity="1"
     stroke-miterlimit="10"
     d="M 73.999305 269.001635 L 329.000153 269.001635 "
     transform="matrix(-0.751208, 0, 0, -0.751208, 303.112283, 404.525311)"
     id="path34" />
  <g
     clip-path="url(#clip-2)"
     id="g38">
    <path
       fill="none"
       stroke-width="7"
       stroke-linecap="butt"
       stroke-linejoin="miter"
       stroke="inherit"
       stroke-opacity="1"
       stroke-miterlimit="10"
       d="m 73.999563,326.50077 c 0,-19.32826 15.67268,-35.00094 35.000937,-35.00094"
       transform="matrix(0,-0.751208,0.751208,0,-163.01207,327.52654)"
       id="path36" />
  </g>
  <path
     fill="none"
     stroke-width="7"
     stroke-linecap="butt"
     stroke-linejoin="miter"
     stroke="inherit"
     stroke-opacity="1"
     stroke-miterlimit="10"
     d="M 260.001288 182.999701 L 548.001084 182.999701 "
     transform="matrix(0, -0.751208, 0.751208, 0, 166.392502, 441.334494)"
     id="path40" />
  <path
     fill="none"
     stroke-width="7"
     stroke-linecap="butt"
     stroke-linejoin="miter"
     stroke="inherit"
     stroke-opacity="1"
     stroke-miterlimit="10"
     d="M 42.249337 297.249833 L 105.751251 297.249833 "
     transform="matrix(0, -0.751208, 0.751208, 0, -167.331511, 279.261464)"
     id="path42" />
  <path
     fill="none"
     stroke-width="7"
     stroke-linecap="butt"
     stroke-linejoin="miter"
     stroke="inherit"
     stroke-opacity="1"
     stroke-miterlimit="10"
     d="M 108.502026 361.499531 L 369.498428 361.499531 "
     transform="matrix(-0.751208, 0, 0, -0.751208, 359.452867, 543.498721)"
     id="path44" />
  <path
     fill="none"
     stroke-width="6"
     stroke-linecap="butt"
     stroke-linejoin="miter"
     stroke="inherit"
     stroke-opacity="1"
     stroke-miterlimit="10"
     d="M 74.000634 324.498316 L 184.000592 324.498316 "
     transform="matrix(0.751208, 0, 0, 0.751208, 0, 0)"
     id="path46" />
  <path
     fill="none"
     stroke-width="6"
     stroke-linecap="butt"
     stroke-linejoin="miter"
     stroke="inherit"
     stroke-opacity="1"
     stroke-miterlimit="10"
     d="M 74.000634 292.752559 L 184.000592 292.752559 "
     transform="matrix(0.751208, 0, 0, 0.751208, 0, 0)"
     id="path48" />
  <path
     fill-rule="nonzero"
     fill="inherit"
     fill-opacity="1"
     d="M 187.1875 225.652344 C 187.445313 225.742188 187.652344 225.6875 187.816406 225.492188 L 187.835938 225.472656 C 187.792969 225.597656 187.742188 225.8125 187.691406 226.113281 L 187.21875 228.734375 C 187.023438 229.796875 186.828125 230.992188 186.628906 232.324219 C 186.425781 233.675781 186.1875 235.023438 185.914063 236.367188 C 185.644531 237.710938 185.359375 238.96875 185.066406 240.136719 C 184.765625 241.34375 184.429688 242.316406 184.058594 243.050781 C 183.628906 243.90625 183.140625 244.421875 182.601563 244.585938 C 181.886719 244.808594 181.25 244.359375 180.691406 243.238281 L 181.269531 242.953125 L 180.75 243.335938 C 180.484375 242.976563 180.101563 242.40625 179.605469 241.625 C 179.121094 240.863281 178.5625 240.007813 177.933594 239.058594 L 175.9375 236.050781 L 173.964844 233.058594 C 173.347656 232.121094 172.785156 231.28125 172.277344 230.53125 C 171.761719 229.78125 171.386719 229.226563 171.152344 228.875 L 171.691406 228.515625 L 171.167969 228.894531 C 170.789063 228.363281 170.457031 227.945313 170.175781 227.632813 C 170.03125 227.472656 169.800781 227.40625 169.488281 227.445313 L 169.410156 226.804688 L 170.050781 226.726563 C 170.277344 228.574219 170.632813 230.597656 171.117188 232.792969 C 171.605469 235.007813 172.117188 237.246094 172.652344 239.507813 C 173.1875 241.773438 173.699219 244.011719 174.1875 246.21875 C 174.679688 248.441406 175.042969 250.511719 175.277344 252.425781 L 174.636719 252.503906 L 175.191406 252.171875 C 175.464844 252.628906 175.457031 253.082031 175.167969 253.542969 C 174.957031 253.878906 174.648438 254.148438 174.242188 254.347656 C 173.832031 254.550781 173.375 254.617188 172.875 254.550781 C 172.34375 254.480469 171.886719 254.226563 171.496094 253.789063 L 171.386719 253.664063 L 171.347656 253.503906 C 170.8125 251.136719 170.382813 248.710938 170.066406 246.222656 L 169.09375 238.800781 C 168.761719 236.335938 168.351563 233.875 167.863281 231.414063 C 167.375 228.972656 166.703125 226.558594 165.847656 224.175781 L 165.832031 224.125 L 165.820313 224.070313 C 165.691406 223.347656 165.808594 222.832031 166.175781 222.53125 C 166.441406 222.304688 166.789063 222.167969 167.207031 222.117188 C 167.964844 222.023438 168.675781 222.121094 169.339844 222.414063 C 169.960938 222.679688 170.535156 223.042969 171.066406 223.5 C 171.585938 223.945313 172.058594 224.441406 172.488281 224.996094 L 173.578125 226.410156 C 173.839844 226.738281 174.210938 227.261719 174.6875 227.980469 L 176.289063 230.429688 L 178.164063 233.265625 C 178.8125 234.257813 179.433594 235.195313 180.03125 236.082031 C 180.625 236.964844 181.164063 237.746094 181.648438 238.425781 C 182.128906 239.097656 182.488281 239.570313 182.730469 239.851563 L 182.242188 240.269531 L 182.164063 239.628906 C 182.09375 239.640625 182.039063 239.667969 181.996094 239.71875 C 182.011719 239.699219 182.058594 239.539063 182.136719 239.234375 C 182.234375 238.851563 182.363281 238.265625 182.519531 237.472656 L 183.1875 234.136719 C 183.472656 232.722656 183.824219 230.933594 184.234375 228.769531 L 185.746094 220.839844 L 185.753906 220.816406 C 185.839844 220.492188 186.109375 220.214844 186.558594 219.984375 C 186.910156 219.804688 187.238281 219.699219 187.554688 219.660156 C 188.042969 219.597656 188.414063 219.742188 188.679688 220.085938 C 188.84375 220.304688 188.984375 220.636719 189.105469 221.082031 L 189.113281 221.105469 C 189.632813 223.355469 190.121094 225.710938 190.570313 228.171875 C 191.019531 230.617188 191.519531 233.082031 192.066406 235.566406 C 192.613281 238.050781 193.21875 240.507813 193.882813 242.933594 C 194.539063 245.347656 195.320313 247.621094 196.226563 249.757813 L 196.457031 250.296875 L 192.550781 252.40625 L 186.773438 225.175781 L 187.402344 225.042969 Z M 187.960938 224.554688 L 193.632813 251.296875 L 193 251.429688 L 192.695313 250.863281 L 195.324219 249.441406 L 195.632813 250.007813 L 195.039063 250.261719 C 194.109375 248.070313 193.308594 245.742188 192.636719 243.273438 C 191.96875 240.824219 191.359375 238.351563 190.804688 235.847656 C 190.253906 233.34375 189.753906 230.863281 189.300781 228.40625 C 188.851563 225.964844 188.371094 223.628906 187.855469 221.398438 L 188.484375 221.253906 L 187.859375 221.421875 C 187.78125 221.132813 187.710938 220.949219 187.652344 220.871094 C 187.6875 220.917969 187.707031 220.941406 187.714844 220.941406 C 187.546875 220.960938 187.359375 221.023438 187.144531 221.132813 L 187 221.148438 L 186.375 220.984375 L 187.011719 221.101563 L 185.503906 229.011719 C 185.089844 231.179688 184.742188 232.972656 184.453125 234.390625 L 183.785156 237.722656 C 183.625 238.539063 183.492188 239.152344 183.386719 239.554688 C 183.265625 240.035156 183.140625 240.351563 183.015625 240.515625 C 182.835938 240.746094 182.601563 240.878906 182.320313 240.910156 L 181.976563 240.953125 L 181.75 240.691406 C 181.484375 240.382813 181.101563 239.878906 180.601563 239.179688 C 180.105469 238.488281 179.558594 237.695313 178.957031 236.800781 C 178.359375 235.910156 177.734375 234.96875 177.085938 233.976563 L 175.210938 231.136719 L 173.613281 228.695313 C 173.15625 228.007813 172.804688 227.507813 172.554688 227.199219 L 171.46875 225.789063 C 171.09375 225.304688 170.679688 224.867188 170.226563 224.480469 C 169.792969 224.109375 169.324219 223.8125 168.828125 223.597656 C 168.375 223.398438 167.886719 223.332031 167.363281 223.398438 C 167.195313 223.417969 167.074219 223.460938 167 223.523438 C 167.042969 223.488281 167.0625 223.464844 167.066406 223.457031 C 167.050781 223.542969 167.0625 223.671875 167.09375 223.84375 L 166.457031 223.957031 L 167.066406 223.738281 C 167.941406 226.183594 168.628906 228.65625 169.128906 231.160156 C 169.625 233.648438 170.039063 236.140625 170.371094 238.632813 L 171.34375 246.054688 C 171.660156 248.503906 172.078125 250.890625 172.609375 253.21875 L 171.976563 253.359375 L 172.460938 252.929688 C 172.636719 253.128906 172.832031 253.242188 173.042969 253.269531 C 173.289063 253.304688 173.496094 253.277344 173.675781 253.1875 C 173.859375 253.097656 173.992188 252.988281 174.074219 252.855469 C 174.082031 252.84375 174.085938 252.839844 174.082031 252.835938 L 174.011719 252.71875 L 173.996094 252.585938 C 173.765625 250.710938 173.410156 248.679688 172.925781 246.496094 C 172.441406 244.296875 171.929688 242.066406 171.394531 239.804688 C 170.859375 237.535156 170.34375 235.292969 169.855469 233.074219 C 169.363281 230.835938 169 228.773438 168.769531 226.882813 L 168.6875 226.242188 L 169.328125 226.164063 C 170.085938 226.070313 170.6875 226.273438 171.136719 226.769531 C 171.449219 227.117188 171.808594 227.574219 172.214844 228.140625 L 172.222656 228.152344 L 172.230469 228.160156 C 172.460938 228.507813 172.832031 229.058594 173.34375 229.804688 C 173.855469 230.558594 174.421875 231.40625 175.042969 232.347656 L 177.011719 235.335938 L 179.007813 238.34375 C 179.644531 239.300781 180.203125 240.164063 180.695313 240.933594 C 181.171875 241.6875 181.535156 242.230469 181.785156 242.566406 L 181.820313 242.613281 L 181.847656 242.664063 C 182.007813 242.984375 182.152344 243.203125 182.28125 243.316406 L 182.21875 243.351563 C 182.410156 243.292969 182.636719 243 182.90625 242.472656 C 183.230469 241.820313 183.535156 240.9375 183.816406 239.824219 C 184.101563 238.671875 184.382813 237.433594 184.648438 236.109375 C 184.917969 234.789063 185.152344 233.460938 185.351563 232.132813 C 185.554688 230.789063 185.753906 229.578125 185.949219 228.503906 L 186.417969 225.886719 C 186.484375 225.511719 186.554688 225.226563 186.625 225.03125 C 186.828125 224.472656 187.160156 224.273438 187.621094 224.433594 Z M 187.402344 225.042969 C 187.289063 225.003906 187.171875 225.324219 187.054688 226 C 186.933594 226.679688 186.777344 227.550781 186.582031 228.621094 C 186.386719 229.6875 186.191406 230.890625 185.988281 232.230469 C 185.789063 233.570313 185.550781 234.90625 185.28125 236.238281 C 185.011719 237.574219 184.730469 238.820313 184.441406 239.980469 C 184.148438 241.140625 183.828125 242.066406 183.480469 242.761719 C 183.132813 243.453125 182.777344 243.855469 182.410156 243.96875 C 182.042969 244.082031 181.664063 243.742188 181.269531 242.953125 C 181.007813 242.605469 180.636719 242.046875 180.148438 241.28125 C 179.660156 240.511719 179.101563 239.652344 178.472656 238.703125 C 177.839844 237.75 177.175781 236.746094 176.476563 235.695313 C 175.777344 234.640625 175.121094 233.644531 174.503906 232.703125 C 173.886719 231.765625 173.320313 230.917969 172.808594 230.167969 C 172.296875 229.417969 171.925781 228.867188 171.691406 228.515625 C 171.300781 227.96875 170.953125 227.53125 170.65625 227.203125 C 170.359375 226.871094 169.941406 226.738281 169.410156 226.804688 C 169.636719 228.675781 169.996094 230.71875 170.484375 232.933594 C 170.976563 235.148438 171.488281 237.390625 172.023438 239.65625 C 172.558594 241.921875 173.070313 244.15625 173.558594 246.359375 C 174.042969 248.5625 174.40625 250.609375 174.636719 252.503906 C 174.773438 252.734375 174.769531 252.964844 174.621094 253.199219 C 174.472656 253.433594 174.253906 253.625 173.957031 253.769531 C 173.664063 253.914063 173.332031 253.960938 172.960938 253.910156 C 172.589844 253.863281 172.261719 253.679688 171.976563 253.359375 C 171.445313 251.015625 171.023438 248.605469 170.703125 246.140625 C 170.386719 243.671875 170.0625 241.195313 169.734375 238.71875 C 169.402344 236.238281 168.988281 233.761719 168.496094 231.289063 C 168 228.816406 167.324219 226.371094 166.457031 223.957031 C 166.371094 223.480469 166.414063 223.167969 166.585938 223.027344 C 166.757813 222.882813 166.992188 222.792969 167.285156 222.757813 C 167.925781 222.679688 168.527344 222.761719 169.082031 223.003906 C 169.640625 223.246094 170.164063 223.574219 170.648438 223.992188 C 171.132813 224.40625 171.578125 224.871094 171.980469 225.390625 C 172.382813 225.914063 172.742188 226.382813 173.066406 226.804688 C 173.324219 227.125 173.683594 227.636719 174.148438 228.335938 L 175.75 230.785156 C 176.347656 231.683594 176.972656 232.632813 177.625 233.621094 C 178.273438 234.613281 178.898438 235.554688 179.496094 236.441406 C 180.089844 237.332031 180.636719 238.117188 181.125 238.800781 C 181.617188 239.488281 181.988281 239.976563 182.242188 240.269531 C 182.347656 240.257813 182.4375 240.207031 182.507813 240.117188 C 182.578125 240.027344 182.664063 239.785156 182.761719 239.394531 C 182.863281 239.003906 182.992188 238.402344 183.152344 237.597656 C 183.3125 236.792969 183.535156 235.679688 183.820313 234.265625 C 184.105469 232.847656 184.457031 231.054688 184.867188 228.890625 C 185.28125 226.726563 185.78125 224.089844 186.375 220.984375 C 186.414063 220.84375 186.574219 220.699219 186.851563 220.558594 C 187.132813 220.414063 187.394531 220.328125 187.632813 220.300781 C 187.875 220.269531 188.050781 220.328125 188.164063 220.476563 C 188.277344 220.628906 188.382813 220.886719 188.484375 221.253906 C 189 223.492188 189.488281 225.835938 189.9375 228.289063 C 190.386719 230.742188 190.886719 233.214844 191.4375 235.707031 C 191.988281 238.199219 192.59375 240.667969 193.257813 243.105469 C 193.925781 245.542969 194.714844 247.84375 195.632813 250.007813 L 193 251.429688 Z M 196.667969 245.46875 C 196.320313 244.230469 196.074219 243.015625 195.925781 241.824219 C 195.78125 240.636719 195.707031 239.417969 195.707031 238.171875 C 195.707031 236.933594 195.769531 235.640625 195.890625 234.289063 C 196.011719 232.953125 196.167969 231.511719 196.359375 229.964844 L 197 230.042969 L 196.359375 230.121094 C 196.308594 229.707031 196.375 229.304688 196.558594 228.917969 C 196.726563 228.558594 196.96875 228.246094 197.289063 227.980469 C 197.570313 227.742188 197.875 227.539063 198.199219 227.375 C 198.546875 227.199219 198.894531 227.089844 199.234375 227.046875 C 199.96875 226.957031 200.664063 227.105469 201.316406 227.496094 C 201.894531 227.84375 202.429688 228.28125 202.925781 228.8125 C 203.40625 229.328125 203.835938 229.886719 204.210938 230.488281 C 204.566406 231.058594 204.867188 231.550781 205.109375 231.957031 L 205.140625 232.011719 L 205.160156 232.066406 C 205.5 233.003906 205.792969 234.078125 206.039063 235.285156 C 206.28125 236.492188 206.441406 237.730469 206.515625 239 C 206.585938 240.277344 206.546875 241.542969 206.394531 242.808594 C 206.242188 244.085938 205.949219 245.277344 205.515625 246.382813 C 205.070313 247.515625 204.4375 248.5 203.617188 249.335938 C 202.773438 250.1875 201.734375 250.78125 200.492188 251.113281 L 200.449219 251.125 L 200.402344 251.128906 C 199.582031 251.230469 198.910156 251.019531 198.390625 250.496094 C 197.953125 250.054688 197.609375 249.503906 197.355469 248.835938 C 197.117188 248.207031 196.953125 247.5625 196.855469 246.90625 C 196.765625 246.289063 196.699219 245.777344 196.648438 245.371094 L 197.289063 245.292969 Z M 197.910156 245.121094 L 197.921875 245.167969 L 197.929688 245.214844 C 197.976563 245.609375 198.046875 246.113281 198.132813 246.71875 C 198.214844 247.285156 198.359375 247.839844 198.5625 248.375 C 198.75 248.875 199 249.277344 199.304688 249.585938 C 199.527344 249.8125 199.84375 249.898438 200.246094 249.847656 L 200.324219 250.488281 L 200.160156 249.867188 C 201.171875 249.59375 202.019531 249.117188 202.695313 248.429688 C 203.394531 247.722656 203.933594 246.882813 204.3125 245.910156 C 204.707031 244.90625 204.972656 243.820313 205.113281 242.652344 C 205.257813 241.464844 205.292969 240.273438 205.226563 239.074219 C 205.15625 237.867188 205.003906 236.691406 204.773438 235.542969 C 204.539063 234.398438 204.265625 233.386719 203.945313 232.507813 L 204.554688 232.289063 L 204 232.617188 C 203.761719 232.214844 203.46875 231.734375 203.117188 231.175781 C 202.785156 230.640625 202.40625 230.148438 201.980469 229.691406 C 201.570313 229.25 201.128906 228.886719 200.652344 228.605469 C 200.253906 228.367188 199.832031 228.273438 199.390625 228.328125 C 199.199219 228.351563 199 228.417969 198.785156 228.527344 C 198.546875 228.644531 198.328125 228.792969 198.117188 228.96875 C 197.945313 229.113281 197.8125 229.28125 197.726563 229.46875 C 197.648438 229.628906 197.621094 229.796875 197.640625 229.964844 L 197.652344 230.042969 L 197.640625 230.121094 C 197.453125 231.65625 197.296875 233.085938 197.175781 234.40625 C 197.058594 235.71875 197 236.972656 197 238.171875 C 197 239.367188 197.070313 240.53125 197.207031 241.664063 C 197.347656 242.792969 197.582031 243.945313 197.910156 245.121094 Z M 199.957031 244.84375 C 199.988281 245.097656 200.023438 245.339844 200.066406 245.566406 C 200.101563 245.78125 200.152344 245.984375 200.214844 246.183594 C 200.277344 246.386719 200.351563 246.605469 200.445313 246.832031 C 200.535156 247.066406 200.652344 247.332031 200.792969 247.625 L 200.210938 247.902344 L 200.132813 247.261719 L 200.371094 247.230469 C 200.84375 247.175781 201.226563 246.96875 201.519531 246.617188 C 201.867188 246.199219 202.148438 245.667969 202.359375 245.023438 C 202.582031 244.34375 202.746094 243.589844 202.851563 242.761719 C 202.960938 241.917969 203.023438 241.089844 203.042969 240.285156 C 203.0625 239.476563 203.050781 238.722656 203.003906 238.03125 C 202.957031 237.332031 202.910156 236.773438 202.859375 236.355469 L 202.761719 235.554688 C 202.71875 235.222656 202.660156 234.84375 202.582031 234.417969 C 202.503906 234 202.40625 233.566406 202.285156 233.125 C 202.171875 232.707031 202.035156 232.328125 201.871094 231.996094 C 201.726563 231.703125 201.566406 231.476563 201.386719 231.320313 C 201.289063 231.234375 201.164063 231.199219 201.007813 231.21875 L 200.910156 231.230469 L 200.808594 231.210938 C 200.398438 231.136719 200.082031 231.191406 199.855469 231.378906 C 199.578125 231.609375 199.371094 231.988281 199.230469 232.515625 C 199.066406 233.121094 198.972656 233.863281 198.953125 234.738281 C 198.929688 235.632813 198.972656 236.621094 199.078125 237.691406 C 199.1875 238.78125 199.320313 239.9375 199.484375 241.15625 C 199.648438 242.382813 199.804688 243.613281 199.957031 244.84375 Z M 198.675781 245 C 198.523438 243.773438 198.367188 242.550781 198.203125 241.328125 C 198.039063 240.09375 197.902344 238.921875 197.792969 237.816406 C 197.683594 236.691406 197.640625 235.65625 197.664063 234.707031 C 197.683594 233.730469 197.792969 232.886719 197.980469 232.179688 C 198.195313 231.390625 198.542969 230.792969 199.027344 230.386719 C 199.566406 229.9375 200.238281 229.792969 201.046875 229.945313 L 200.929688 230.578125 L 200.851563 229.9375 C 201.390625 229.871094 201.851563 230.007813 202.242188 230.351563 C 202.546875 230.621094 202.8125 230.980469 203.03125 231.429688 C 203.230469 231.835938 203.398438 232.289063 203.53125 232.789063 C 203.660156 233.265625 203.765625 233.730469 203.851563 234.183594 C 203.933594 234.632813 203.996094 235.039063 204.042969 235.398438 L 204.140625 236.199219 C 204.195313 236.640625 204.246094 237.222656 204.292969 237.945313 C 204.339844 238.675781 204.355469 239.46875 204.332031 240.316406 C 204.3125 241.167969 204.246094 242.039063 204.132813 242.925781 C 204.015625 243.835938 203.835938 244.667969 203.585938 245.425781 C 203.324219 246.226563 202.964844 246.898438 202.511719 247.441406 C 202 248.058594 201.339844 248.414063 200.53125 248.511719 L 199.828125 248.601563 L 199.628906 248.179688 C 199.476563 247.859375 199.347656 247.570313 199.246094 247.3125 C 199.140625 247.050781 199.050781 246.800781 198.980469 246.5625 C 198.902344 246.3125 198.839844 246.058594 198.792969 245.796875 C 198.75 245.542969 198.710938 245.28125 198.675781 245 Z M 197.289063 245.292969 C 196.949219 244.089844 196.710938 242.90625 196.566406 241.742188 C 196.425781 240.582031 196.355469 239.390625 196.351563 238.171875 C 196.351563 236.953125 196.414063 235.679688 196.535156 234.347656 C 196.65625 233.019531 196.8125 231.585938 197 230.042969 C 196.964844 229.75 197.011719 229.464844 197.140625 229.195313 C 197.269531 228.921875 197.457031 228.679688 197.703125 228.472656 C 197.949219 228.269531 198.210938 228.09375 198.492188 227.949219 C 198.773438 227.808594 199.046875 227.71875 199.3125 227.6875 C 199.902344 227.613281 200.457031 227.734375 200.984375 228.050781 C 201.511719 228.367188 202 228.765625 202.453125 229.253906 C 202.90625 229.738281 203.308594 230.265625 203.664063 230.832031 C 204.015625 231.398438 204.3125 231.882813 204.554688 232.289063 C 204.882813 233.195313 205.164063 234.238281 205.40625 235.414063 C 205.644531 236.589844 205.800781 237.796875 205.871094 239.035156 C 205.941406 240.273438 205.902344 241.503906 205.753906 242.730469 C 205.605469 243.953125 205.328125 245.09375 204.914063 246.144531 C 204.5 247.199219 203.914063 248.109375 203.15625 248.882813 C 202.398438 249.652344 201.453125 250.1875 200.324219 250.488281 C 199.710938 250.566406 199.21875 250.414063 198.847656 250.042969 C 198.476563 249.667969 198.179688 249.1875 197.960938 248.605469 C 197.738281 248.023438 197.585938 247.425781 197.496094 246.8125 C 197.40625 246.199219 197.335938 245.695313 197.289063 245.292969 Z M 199.316406 244.921875 C 199.347656 245.191406 199.386719 245.441406 199.429688 245.679688 C 199.472656 245.917969 199.527344 246.148438 199.597656 246.371094 C 199.664063 246.59375 199.746094 246.828125 199.84375 247.074219 C 199.941406 247.320313 200.066406 247.59375 200.210938 247.902344 L 200.449219 247.871094 C 201.089844 247.792969 201.613281 247.511719 202.015625 247.03125 C 202.414063 246.546875 202.734375 245.945313 202.972656 245.226563 C 203.207031 244.503906 203.382813 243.710938 203.492188 242.84375 C 203.601563 241.976563 203.667969 241.128906 203.6875 240.300781 C 203.707031 239.472656 203.695313 238.699219 203.648438 237.988281 C 203.601563 237.277344 203.550781 236.707031 203.5 236.277344 L 203.402344 235.476563 C 203.359375 235.128906 203.296875 234.738281 203.214844 234.300781 C 203.132813 233.863281 203.03125 233.414063 202.90625 232.957031 C 202.785156 232.496094 202.632813 232.082031 202.449219 231.710938 C 202.269531 231.339844 202.058594 231.050781 201.8125 230.835938 C 201.570313 230.621094 201.277344 230.535156 200.929688 230.578125 C 200.320313 230.464844 199.824219 230.566406 199.441406 230.882813 C 199.0625 231.199219 198.78125 231.6875 198.605469 232.347656 C 198.429688 233.003906 198.328125 233.796875 198.308594 234.722656 C 198.285156 235.644531 198.328125 236.65625 198.4375 237.753906 C 198.542969 238.851563 198.679688 240.015625 198.84375 241.242188 C 199.007813 242.46875 199.164063 243.695313 199.316406 244.921875 Z M 213.601563 248.046875 C 213.519531 247.363281 213.796875 246.496094 214.441406 245.445313 C 215.011719 244.507813 215.734375 243.4375 216.597656 242.238281 L 219.417969 238.351563 C 220.421875 236.972656 221.328125 235.5625 222.140625 234.113281 C 222.941406 232.679688 223.585938 231.238281 224.066406 229.792969 C 224.53125 228.402344 224.6875 227.074219 224.53125 225.808594 C 224.460938 225.234375 224.246094 224.761719 223.882813 224.394531 C 223.476563 223.984375 222.972656 223.644531 222.375 223.382813 C 221.757813 223.109375 221.070313 222.917969 220.3125 222.808594 C 219.523438 222.695313 218.734375 222.628906 217.945313 222.609375 C 217.148438 222.585938 216.398438 222.597656 215.691406 222.644531 C 214.976563 222.695313 214.375 222.75 213.878906 222.808594 C 213.757813 222.824219 213.597656 222.851563 213.398438 222.886719 L 212.742188 223.007813 C 212.535156 223.046875 212.347656 223.089844 212.179688 223.132813 C 211.96875 223.191406 211.832031 223.222656 211.773438 223.230469 L 211.695313 222.589844 L 212.1875 223.007813 L 211.726563 223.550781 L 211.234375 223.132813 L 211.875 223.054688 C 211.882813 223.117188 211.90625 223.351563 211.941406 223.757813 L 212.066406 225.125 C 212.117188 225.625 212.171875 226.140625 212.238281 226.667969 L 212.390625 227.910156 C 212.71875 230.589844 213.144531 233.238281 213.667969 235.855469 C 214.199219 238.503906 214.628906 241.183594 214.960938 243.894531 C 214.980469 244.039063 215.007813 244.199219 215.039063 244.367188 C 215.085938 244.601563 215.105469 244.832031 215.097656 245.054688 C 215.089844 245.371094 214.988281 245.65625 214.792969 245.902344 C 214.578125 246.175781 214.261719 246.339844 213.847656 246.390625 C 213.585938 246.421875 213.320313 246.390625 213.054688 246.296875 C 212.671875 246.160156 212.429688 245.890625 212.320313 245.492188 L 212.3125 245.46875 L 208.160156 224.574219 L 208.792969 224.449219 L 209.214844 224.9375 C 209.117188 225.023438 208.960938 225.132813 208.742188 225.269531 C 208.558594 225.382813 208.371094 225.507813 208.175781 225.636719 C 207.988281 225.757813 207.808594 225.890625 207.636719 226.023438 C 207.355469 226.242188 207.128906 226.359375 206.957031 226.382813 L 206.945313 226.390625 C 206.839844 226.425781 206.753906 226.449219 206.683594 226.457031 C 206.46875 226.484375 206.234375 226.464844 205.976563 226.398438 C 205.507813 226.28125 205.238281 225.957031 205.175781 225.421875 C 205.109375 224.890625 205.179688 224.425781 205.382813 224.035156 C 205.554688 223.695313 205.792969 223.378906 206.097656 223.085938 C 206.363281 222.828125 206.648438 222.566406 206.949219 222.304688 C 207.199219 222.09375 207.425781 221.828125 207.632813 221.511719 C 207.828125 221.210938 207.972656 220.835938 208.066406 220.386719 C 208.164063 219.925781 208.167969 219.347656 208.082031 218.644531 L 208.003906 218 L 208.644531 217.921875 C 209.398438 217.832031 209.925781 217.949219 210.234375 218.285156 C 210.464844 218.539063 210.625 218.847656 210.707031 219.207031 C 210.765625 219.445313 210.824219 219.6875 210.894531 219.921875 L 211.035156 219.933594 L 210.921875 220.570313 L 210.820313 219.933594 C 211.574219 219.8125 212.488281 219.699219 213.5625 219.597656 C 214.640625 219.492188 215.78125 219.441406 216.980469 219.445313 C 218.1875 219.449219 219.390625 219.53125 220.589844 219.6875 C 221.820313 219.851563 222.945313 220.15625 223.960938 220.605469 C 225.015625 221.070313 225.882813 221.71875 226.570313 222.546875 C 227.277344 223.402344 227.679688 224.488281 227.78125 225.804688 L 227.785156 225.84375 L 227.78125 225.886719 C 227.683594 228.050781 227.253906 230.171875 226.488281 232.25 C 225.734375 234.300781 224.792969 236.296875 223.667969 238.238281 C 222.550781 240.171875 221.3125 242.042969 219.960938 243.855469 C 218.617188 245.652344 217.269531 247.378906 215.925781 249.042969 L 215.761719 249.246094 L 215.5 249.277344 L 215.535156 249.273438 C 215.4375 249.3125 215.34375 249.335938 215.265625 249.347656 C 214.847656 249.398438 214.480469 249.296875 214.160156 249.046875 C 213.839844 248.796875 213.652344 248.464844 213.601563 248.046875 Z M 214.882813 247.890625 C 214.890625 247.953125 214.914063 248 214.953125 248.03125 C 214.996094 248.0625 215.046875 248.074219 215.109375 248.066406 L 215.074219 248.066406 C 215.175781 248.03125 215.265625 248.003906 215.34375 247.996094 L 215.421875 248.636719 L 214.921875 248.230469 C 216.257813 246.582031 217.59375 244.863281 218.925781 243.082031 C 220.25 241.3125 221.457031 239.480469 222.550781 237.59375 C 223.640625 235.714844 224.550781 233.785156 225.277344 231.804688 C 225.996094 229.851563 226.402344 227.859375 226.492188 225.828125 L 227.136719 225.855469 L 226.496094 225.90625 C 226.414063 224.859375 226.105469 224.015625 225.574219 223.371094 C 225.019531 222.699219 224.304688 222.171875 223.4375 221.785156 C 222.535156 221.386719 221.53125 221.113281 220.417969 220.96875 C 219.277344 220.816406 218.128906 220.742188 216.976563 220.738281 C 215.820313 220.730469 214.722656 220.78125 213.6875 220.882813 C 212.640625 220.984375 211.753906 221.089844 211.019531 221.207031 L 210.914063 221.226563 L 210.808594 221.207031 C 210.183594 221.09375 209.796875 220.785156 209.652344 220.277344 C 209.578125 220.019531 209.511719 219.757813 209.449219 219.496094 C 209.417969 219.359375 209.363281 219.246094 209.28125 219.15625 C 209.277344 219.152344 209.113281 219.167969 208.800781 219.203125 L 208.722656 218.5625 L 209.363281 218.484375 C 209.46875 219.332031 209.457031 220.050781 209.328125 220.652344 C 209.203125 221.257813 208.996094 221.78125 208.714844 222.214844 C 208.441406 222.636719 208.132813 222.992188 207.792969 223.285156 C 207.507813 223.527344 207.246094 223.769531 207 224.007813 C 206.796875 224.207031 206.636719 224.414063 206.527344 224.628906 C 206.445313 224.785156 206.421875 224.996094 206.457031 225.265625 C 206.449219 225.210938 206.394531 225.171875 206.289063 225.144531 C 206.390625 225.171875 206.472656 225.183594 206.527344 225.175781 L 206.539063 225.164063 C 206.644531 225.132813 206.730469 225.109375 206.800781 225.101563 L 206.839844 225.003906 C 207.039063 224.851563 207.246094 224.703125 207.460938 224.558594 C 207.664063 224.421875 207.863281 224.296875 208.058594 224.175781 C 208.21875 224.074219 208.324219 224 208.375 223.960938 L 209.210938 223.238281 L 213.574219 245.195313 L 212.941406 245.324219 L 213.566406 245.152344 C 213.558594 245.121094 213.53125 245.09375 213.488281 245.082031 C 213.5625 245.105469 213.628906 245.117188 213.6875 245.109375 L 213.777344 245.105469 C 213.796875 245.082031 213.804688 245.050781 213.808594 245.015625 C 213.8125 244.886719 213.800781 244.753906 213.773438 244.617188 C 213.734375 244.417969 213.703125 244.226563 213.679688 244.054688 C 213.351563 241.371094 212.925781 238.722656 212.402344 236.109375 C 211.875 233.460938 211.441406 230.78125 211.109375 228.066406 L 210.957031 226.828125 C 210.890625 226.285156 210.832031 225.757813 210.78125 225.242188 L 210.65625 223.875 C 210.621094 223.480469 210.597656 223.257813 210.59375 223.210938 L 210.558594 222.933594 L 211.367188 221.980469 L 211.617188 221.949219 L 211.636719 221.941406 C 211.6875 221.929688 211.753906 221.910156 211.84375 221.886719 C 212.042969 221.832031 212.265625 221.78125 212.507813 221.738281 L 213.164063 221.617188 C 213.386719 221.574219 213.574219 221.546875 213.71875 221.527344 C 214.238281 221.464844 214.867188 221.40625 215.605469 221.359375 C 216.351563 221.308594 217.140625 221.292969 217.976563 221.316406 C 218.820313 221.339844 219.660156 221.410156 220.496094 221.53125 C 221.367188 221.65625 222.167969 221.878906 222.894531 222.199219 C 223.644531 222.53125 224.28125 222.960938 224.800781 223.488281 C 225.371094 224.066406 225.707031 224.785156 225.8125 225.652344 C 225.992188 227.109375 225.816406 228.628906 225.292969 230.203125 C 224.785156 231.726563 224.109375 233.238281 223.265625 234.742188 C 222.429688 236.234375 221.496094 237.691406 220.460938 239.109375 L 217.644531 242.992188 C 216.800781 244.167969 216.097656 245.210938 215.542969 246.121094 C 215.054688 246.914063 214.835938 247.503906 214.882813 247.890625 Z M 214.242188 247.96875 C 214.175781 247.433594 214.425781 246.707031 214.992188 245.78125 C 215.554688 244.859375 216.265625 243.804688 217.121094 242.613281 C 217.980469 241.425781 218.917969 240.132813 219.9375 238.730469 C 220.960938 237.332031 221.878906 235.898438 222.703125 234.429688 C 223.523438 232.960938 224.183594 231.484375 224.679688 230 C 225.175781 228.515625 225.339844 227.09375 225.171875 225.730469 C 225.082031 225.011719 224.808594 224.414063 224.34375 223.941406 C 223.878906 223.472656 223.308594 223.085938 222.636719 222.789063 C 221.960938 222.492188 221.21875 222.285156 220.40625 222.171875 C 219.589844 222.054688 218.777344 221.984375 217.960938 221.960938 C 217.144531 221.941406 216.375 221.953125 215.648438 222.003906 C 214.921875 222.050781 214.304688 222.105469 213.800781 222.167969 C 213.664063 222.183594 213.492188 222.210938 213.28125 222.253906 C 213.070313 222.292969 212.851563 222.332031 212.625 222.375 C 212.398438 222.414063 212.195313 222.460938 212.011719 222.507813 C 211.828125 222.558594 211.722656 222.585938 211.695313 222.589844 L 211.234375 223.132813 C 211.242188 223.1875 211.261719 223.414063 211.296875 223.816406 C 211.335938 224.21875 211.375 224.675781 211.425781 225.183594 C 211.472656 225.691406 211.53125 226.214844 211.597656 226.746094 L 211.75 227.988281 C 212.082031 230.6875 212.507813 233.351563 213.035156 235.980469 C 213.5625 238.613281 213.992188 241.277344 214.320313 243.972656 C 214.339844 244.132813 214.371094 244.308594 214.40625 244.492188 C 214.441406 244.679688 214.457031 244.859375 214.453125 245.035156 C 214.445313 245.210938 214.390625 245.367188 214.285156 245.503906 C 214.179688 245.636719 214.007813 245.71875 213.769531 245.75 C 213.609375 245.769531 213.441406 245.75 213.273438 245.6875 C 213.101563 245.628906 212.992188 245.507813 212.941406 245.324219 L 208.792969 224.449219 C 208.722656 224.511719 208.589844 224.601563 208.402344 224.722656 C 208.210938 224.839844 208.019531 224.964844 207.816406 225.097656 C 207.617188 225.230469 207.421875 225.371094 207.238281 225.515625 C 207.054688 225.660156 206.933594 225.734375 206.878906 225.742188 C 206.851563 225.746094 206.808594 225.757813 206.742188 225.777344 C 206.675781 225.800781 206.632813 225.8125 206.605469 225.816406 C 206.472656 225.832031 206.3125 225.816406 206.132813 225.773438 C 205.949219 225.726563 205.84375 225.585938 205.816406 225.34375 C 205.765625 224.941406 205.8125 224.605469 205.953125 224.332031 C 206.097656 224.054688 206.296875 223.792969 206.550781 223.546875 C 206.804688 223.296875 207.078125 223.046875 207.371094 222.792969 C 207.667969 222.542969 207.933594 222.230469 208.171875 221.863281 C 208.410156 221.496094 208.585938 221.046875 208.699219 220.519531 C 208.808594 219.988281 208.816406 219.339844 208.722656 218.5625 C 209.257813 218.5 209.601563 218.550781 209.757813 218.722656 C 209.914063 218.890625 210.023438 219.101563 210.078125 219.351563 C 210.136719 219.601563 210.203125 219.851563 210.273438 220.101563 C 210.34375 220.351563 210.558594 220.507813 210.921875 220.570313 C 211.664063 220.453125 212.566406 220.339844 213.625 220.238281 C 214.679688 220.136719 215.800781 220.085938 216.980469 220.089844 C 218.160156 220.09375 219.332031 220.175781 220.503906 220.328125 C 221.675781 220.484375 222.742188 220.773438 223.699219 221.195313 C 224.660156 221.621094 225.449219 222.207031 226.070313 222.957031 C 226.691406 223.707031 227.046875 224.675781 227.136719 225.855469 C 227.042969 227.953125 226.625 230.011719 225.882813 232.027344 C 225.140625 234.042969 224.21875 236.003906 223.109375 237.914063 C 222.003906 239.828125 220.78125 241.675781 219.441406 243.46875 C 218.105469 245.257813 216.765625 246.980469 215.421875 248.636719 C 215.394531 248.640625 215.355469 248.652344 215.304688 248.671875 C 215.253906 248.691406 215.214844 248.703125 215.1875 248.707031 C 214.945313 248.734375 214.738281 248.679688 214.558594 248.539063 C 214.378906 248.398438 214.273438 248.207031 214.242188 247.96875 Z M 228.21875 222.066406 L 227.902344 219.5 L 228.542969 219.421875 C 228.972656 219.371094 229.449219 219.445313 229.976563 219.648438 C 230.4375 219.828125 230.890625 220.050781 231.332031 220.316406 C 231.773438 220.585938 232.191406 220.890625 232.585938 221.238281 C 232.960938 221.570313 233.261719 221.847656 233.488281 222.074219 L 247.265625 236.535156 L 246.796875 236.980469 L 246.152344 236.945313 C 246.175781 236.507813 246.144531 235.683594 246.0625 234.472656 C 245.980469 233.25 245.835938 231.863281 245.632813 230.316406 C 245.429688 228.765625 245.191406 227.140625 244.914063 225.445313 C 244.640625 223.753906 244.351563 222.179688 244.050781 220.722656 C 243.75 219.269531 243.46875 218.042969 243.199219 217.042969 C 242.964844 216.1875 242.78125 215.710938 242.644531 215.617188 L 242.40625 215.453125 L 242.371094 215.164063 C 242.3125 214.675781 242.34375 214.207031 242.472656 213.761719 C 242.65625 213.121094 243.101563 212.757813 243.8125 212.671875 C 244.492188 212.585938 245.066406 212.871094 245.542969 213.523438 C 245.90625 214.023438 246.199219 214.59375 246.429688 215.234375 C 246.644531 215.839844 246.820313 216.4375 246.964844 217.023438 C 247.109375 217.613281 247.191406 218.015625 247.21875 218.226563 L 246.578125 218.304688 L 247.214844 218.191406 C 247.300781 218.675781 247.417969 219.40625 247.5625 220.382813 L 248.050781 223.699219 L 248.636719 227.628906 L 249.238281 231.535156 C 249.429688 232.761719 249.59375 233.878906 249.730469 234.882813 C 249.867188 235.871094 249.976563 236.601563 250.058594 237.070313 L 250.0625 237.089844 L 250.066406 237.105469 C 250.097656 237.367188 250.171875 237.601563 250.285156 237.808594 L 250.753906 238.644531 C 250.914063 238.929688 251.066406 239.21875 251.214844 239.507813 C 251.390625 239.855469 251.503906 240.226563 251.554688 240.621094 C 251.648438 241.386719 251.425781 241.996094 250.894531 242.445313 C 250.441406 242.832031 249.910156 243.058594 249.300781 243.136719 C 248.964844 243.175781 248.65625 243.167969 248.382813 243.113281 C 248.03125 243.042969 247.738281 242.875 247.503906 242.609375 C 247.277344 242.359375 247.132813 242.039063 247.066406 241.652344 C 247.007813 241.324219 247.011719 240.910156 247.074219 240.40625 L 247.714844 240.484375 L 247.277344 240.957031 C 246.933594 240.640625 246.40625 240.125 245.6875 239.40625 L 243.300781 237.015625 C 242.421875 236.136719 241.492188 235.214844 240.507813 234.253906 L 237.6875 231.492188 L 235.28125 229.121094 L 233.691406 227.546875 L 233.671875 227.527344 C 233.636719 227.488281 233.5625 227.421875 233.445313 227.328125 L 232.367188 226.488281 C 232.25 226.394531 232.167969 226.339844 232.117188 226.3125 L 232.410156 225.738281 L 233.054688 225.703125 C 233.132813 227.230469 233.335938 228.75 233.652344 230.265625 C 233.976563 231.796875 234.34375 233.316406 234.757813 234.824219 L 236.007813 239.367188 C 236.429688 240.90625 236.738281 242.464844 236.933594 244.042969 C 236.992188 244.519531 237 244.957031 236.953125 245.351563 C 236.886719 245.933594 236.476563 246.402344 235.722656 246.761719 L 235.523438 246.855469 L 235.308594 246.808594 C 234.550781 246.644531 234 246.21875 233.660156 245.539063 C 233.328125 244.886719 233.269531 244.226563 233.472656 243.554688 L 234.089844 243.742188 L 233.464844 243.894531 L 228.222656 222.101563 Z M 229.5 221.90625 L 228.859375 221.984375 L 229.484375 221.835938 L 234.757813 243.761719 L 234.707031 243.929688 C 234.605469 244.273438 234.636719 244.613281 234.8125 244.957031 C 234.96875 245.273438 235.226563 245.46875 235.585938 245.546875 L 235.445313 246.175781 L 235.167969 245.59375 C 235.492188 245.441406 235.660156 245.3125 235.671875 245.207031 C 235.703125 244.914063 235.699219 244.578125 235.652344 244.199219 C 235.464844 242.683594 235.167969 241.1875 234.761719 239.710938 L 233.511719 235.167969 C 233.089844 233.632813 232.71875 232.089844 232.390625 230.53125 C 232.058594 228.953125 231.847656 227.367188 231.765625 225.773438 L 231.703125 224.660156 L 232.699219 225.160156 C 232.824219 225.222656 232.976563 225.324219 233.160156 225.46875 L 234.238281 226.3125 C 234.421875 226.457031 234.558594 226.582031 234.652344 226.6875 L 234.160156 227.105469 L 234.617188 226.648438 L 236.1875 228.203125 L 238.589844 230.570313 L 241.410156 233.332031 C 242.398438 234.296875 243.332031 235.21875 244.214844 236.101563 L 246.601563 238.492188 C 247.304688 239.199219 247.824219 239.703125 248.152344 240.011719 L 248.394531 240.234375 L 248.355469 240.5625 C 248.308594 240.941406 248.304688 241.230469 248.339844 241.433594 C 248.363281 241.578125 248.40625 241.683594 248.464844 241.75 C 248.511719 241.800781 248.570313 241.832031 248.636719 241.847656 C 248.777344 241.875 248.945313 241.878906 249.144531 241.851563 C 249.496094 241.808594 249.800781 241.679688 250.058594 241.460938 C 250.238281 241.308594 250.308594 241.082031 250.273438 240.78125 C 250.242188 240.535156 250.171875 240.304688 250.0625 240.09375 C 249.925781 239.820313 249.78125 239.546875 249.628906 239.277344 L 249.160156 238.4375 C 248.960938 238.085938 248.835938 237.695313 248.78125 237.261719 L 249.425781 237.183594 L 248.789063 237.296875 C 248.703125 236.8125 248.589844 236.066406 248.453125 235.054688 C 248.316406 234.0625 248.152344 232.953125 247.960938 231.734375 L 247.359375 227.820313 L 246.773438 223.886719 L 246.289063 220.574219 C 246.140625 219.609375 246.027344 218.890625 245.941406 218.421875 L 245.9375 218.402344 L 245.9375 218.386719 C 245.917969 218.222656 245.839844 217.871094 245.710938 217.328125 C 245.578125 216.785156 245.410156 216.230469 245.210938 215.667969 C 245.027344 215.140625 244.789063 214.679688 244.5 214.285156 C 244.320313 214.039063 244.144531 213.929688 243.96875 213.953125 C 243.824219 213.96875 243.742188 214.023438 243.714844 214.113281 C 243.632813 214.394531 243.613281 214.691406 243.652344 215.007813 L 243.011719 215.085938 L 243.378906 214.554688 C 243.773438 214.828125 244.128906 215.546875 244.445313 216.707031 C 244.71875 217.730469 245.011719 218.980469 245.316406 220.460938 C 245.621094 221.9375 245.910156 223.53125 246.1875 225.238281 C 246.464844 226.945313 246.707031 228.582031 246.914063 230.148438 C 247.121094 231.722656 247.265625 233.136719 247.351563 234.386719 C 247.4375 235.648438 247.46875 236.523438 247.441406 237.011719 L 247.363281 238.507813 L 232.574219 222.984375 C 232.367188 222.777344 232.085938 222.519531 231.734375 222.207031 C 231.398438 221.910156 231.039063 221.648438 230.664063 221.421875 C 230.285156 221.195313 229.902344 221.003906 229.511719 220.855469 C 229.183594 220.726563 228.914063 220.679688 228.699219 220.703125 L 228.621094 220.0625 L 229.261719 219.984375 Z M 228.859375 221.984375 L 228.621094 220.0625 C 228.941406 220.023438 229.316406 220.085938 229.742188 220.25 C 230.167969 220.414063 230.585938 220.621094 230.996094 220.871094 C 231.40625 221.117188 231.792969 221.402344 232.160156 221.722656 C 232.523438 222.042969 232.816406 222.3125 233.03125 222.53125 L 246.796875 236.980469 C 246.820313 236.515625 246.792969 235.664063 246.707031 234.429688 C 246.625 233.191406 246.480469 231.792969 246.273438 230.234375 C 246.070313 228.671875 245.828125 227.042969 245.550781 225.34375 C 245.273438 223.640625 244.984375 222.058594 244.683594 220.589844 C 244.382813 219.125 244.09375 217.886719 243.820313 216.875 C 243.546875 215.867188 243.277344 215.269531 243.011719 215.085938 C 242.960938 214.683594 242.988281 214.300781 243.09375 213.9375 C 243.199219 213.570313 243.464844 213.363281 243.890625 213.3125 C 244.316406 213.257813 244.695313 213.457031 245.019531 213.902344 C 245.347656 214.351563 245.613281 214.867188 245.820313 215.453125 C 246.027344 216.035156 246.199219 216.613281 246.335938 217.175781 C 246.472656 217.742188 246.554688 218.121094 246.578125 218.304688 C 246.664063 218.785156 246.777344 219.507813 246.925781 220.480469 C 247.070313 221.449219 247.234375 222.554688 247.414063 223.792969 C 247.59375 225.03125 247.789063 226.34375 248 227.726563 C 248.207031 229.109375 248.410156 230.414063 248.601563 231.636719 C 248.792969 232.859375 248.953125 233.96875 249.089844 234.96875 C 249.226563 235.96875 249.339844 236.707031 249.425781 237.183594 C 249.464844 237.53125 249.566406 237.84375 249.722656 238.125 C 249.878906 238.402344 250.035156 238.679688 250.191406 238.960938 C 250.347656 239.238281 250.496094 239.519531 250.640625 239.800781 C 250.78125 240.082031 250.875 240.378906 250.914063 240.699219 C 250.976563 241.234375 250.832031 241.652344 250.476563 241.953125 C 250.121094 242.253906 249.703125 242.433594 249.222656 242.492188 C 248.957031 242.527344 248.71875 242.523438 248.507813 242.480469 C 248.300781 242.4375 248.125 242.335938 247.984375 242.179688 C 247.84375 242.019531 247.75 241.808594 247.703125 241.542969 C 247.65625 241.277344 247.660156 240.925781 247.714844 240.484375 C 247.378906 240.171875 246.855469 239.660156 246.144531 238.949219 C 245.433594 238.238281 244.636719 237.441406 243.757813 236.558594 C 242.878906 235.679688 241.945313 234.757813 240.957031 233.792969 C 239.972656 232.832031 239.035156 231.910156 238.140625 231.03125 C 237.246094 230.148438 236.445313 229.359375 235.734375 228.660156 L 234.160156 227.105469 C 234.097656 227.035156 233.992188 226.9375 233.84375 226.820313 L 232.761719 225.976563 C 232.613281 225.859375 232.496094 225.78125 232.410156 225.738281 C 232.492188 227.296875 232.695313 228.851563 233.019531 230.398438 C 233.347656 231.941406 233.71875 233.476563 234.132813 234.996094 C 234.550781 236.515625 234.96875 238.03125 235.382813 239.539063 C 235.800781 241.046875 236.101563 242.574219 236.292969 244.121094 C 236.34375 244.550781 236.351563 244.933594 236.3125 245.277344 C 236.273438 245.621094 235.984375 245.921875 235.445313 246.175781 C 234.890625 246.054688 234.484375 245.746094 234.234375 245.25 C 233.984375 244.75 233.9375 244.25 234.089844 243.742188 Z M 256.796875 241.519531 C 256.835938 241.007813 257.25 240.542969 258.042969 240.113281 C 258.644531 239.789063 259.390625 239.433594 260.28125 239.046875 L 263.179688 237.796875 C 264.214844 237.351563 265.207031 236.871094 266.15625 236.355469 C 267.089844 235.847656 267.933594 235.296875 268.683594 234.710938 C 269.378906 234.164063 269.863281 233.585938 270.136719 232.964844 L 270.726563 233.226563 L 270.085938 233.304688 C 270.074219 233.191406 269.929688 233.097656 269.664063 233.023438 C 269.160156 232.886719 268.492188 232.800781 267.65625 232.761719 C 266.785156 232.722656 265.800781 232.722656 264.699219 232.765625 C 263.566406 232.808594 262.402344 232.816406 261.207031 232.785156 C 260.007813 232.753906 258.828125 232.675781 257.675781 232.558594 C 256.476563 232.433594 255.390625 232.179688 254.410156 231.800781 C 253.394531 231.402344 252.546875 230.839844 251.871094 230.109375 C 251.164063 229.351563 250.742188 228.382813 250.597656 227.203125 C 250.457031 226.070313 250.566406 224.921875 250.917969 223.75 C 251.261719 222.613281 251.769531 221.496094 252.441406 220.394531 C 253.105469 219.304688 253.890625 218.269531 254.792969 217.289063 C 255.691406 216.3125 256.652344 215.441406 257.675781 214.671875 C 258.703125 213.902344 259.746094 213.265625 260.796875 212.773438 C 261.871094 212.265625 262.894531 211.953125 263.871094 211.832031 C 264.101563 211.804688 264.34375 211.769531 264.597656 211.722656 C 264.917969 211.667969 265.207031 211.652344 265.464844 211.671875 C 265.820313 211.699219 266.128906 211.835938 266.394531 212.082031 C 266.660156 212.332031 266.824219 212.695313 266.882813 213.171875 C 267.003906 214.175781 266.746094 214.949219 266.101563 215.496094 C 265.539063 215.976563 264.832031 216.269531 263.984375 216.371094 L 263.777344 216.398438 L 261.894531 215.367188 L 262.203125 214.800781 L 262.28125 215.441406 C 261.765625 215.507813 261.199219 215.730469 260.589844 216.117188 C 259.9375 216.53125 259.28125 217.054688 258.621094 217.691406 C 257.957031 218.335938 257.316406 219.0625 256.710938 219.871094 C 256.101563 220.679688 255.582031 221.5 255.148438 222.335938 C 254.722656 223.164063 254.394531 223.980469 254.171875 224.777344 C 253.960938 225.539063 253.886719 226.195313 253.957031 226.75 C 254.050781 227.519531 254.332031 228.105469 254.796875 228.507813 C 255.308594 228.949219 255.96875 229.273438 256.78125 229.476563 C 257.640625 229.691406 258.617188 229.808594 259.710938 229.832031 C 260.839844 229.851563 261.980469 229.847656 263.132813 229.8125 C 264.292969 229.777344 265.4375 229.738281 266.566406 229.695313 C 267.738281 229.648438 268.796875 229.695313 269.730469 229.835938 C 270.710938 229.984375 271.523438 230.246094 272.164063 230.625 C 272.917969 231.070313 273.351563 231.742188 273.460938 232.648438 L 272.820313 232.726563 L 273.304688 232.296875 C 273.855469 232.921875 273.878906 233.667969 273.378906 234.535156 C 272.992188 235.199219 272.367188 235.886719 271.507813 236.589844 C 270.683594 237.261719 269.699219 237.949219 268.554688 238.65625 C 267.417969 239.363281 266.238281 240.015625 265.019531 240.621094 C 263.804688 241.222656 262.621094 241.75 261.464844 242.210938 C 260.296875 242.671875 259.285156 243 258.433594 243.1875 L 258.40625 243.195313 L 258.375 243.199219 C 257.964844 243.25 257.597656 243.15625 257.269531 242.917969 C 256.863281 242.628906 256.707031 242.148438 256.800781 241.476563 L 257.441406 241.566406 Z M 258.085938 241.613281 L 258.082031 241.636719 L 258.082031 241.65625 C 258.0625 241.78125 258.0625 241.871094 258.078125 241.929688 C 258.074219 241.914063 258.054688 241.894531 258.023438 241.871094 C 258.078125 241.910156 258.144531 241.925781 258.214844 241.917969 L 258.296875 242.558594 L 258.15625 241.929688 C 258.941406 241.753906 259.882813 241.449219 260.988281 241.007813 C 262.109375 240.566406 263.261719 240.050781 264.449219 239.460938 C 265.628906 238.875 266.773438 238.242188 267.878906 237.558594 C 268.972656 236.882813 269.910156 236.222656 270.691406 235.589844 C 271.429688 234.984375 271.953125 234.417969 272.261719 233.886719 C 272.453125 233.558594 272.476563 233.3125 272.335938 233.15625 L 272.203125 233.003906 L 272.179688 232.804688 C 272.121094 232.320313 271.898438 231.964844 271.507813 231.738281 C 271.011719 231.441406 270.355469 231.234375 269.542969 231.113281 C 268.683594 230.984375 267.710938 230.941406 266.617188 230.984375 C 265.480469 231.03125 264.332031 231.070313 263.171875 231.105469 C 262 231.136719 260.835938 231.144531 259.683594 231.121094 C 258.496094 231.097656 257.421875 230.964844 256.46875 230.726563 C 255.457031 230.476563 254.621094 230.0625 253.953125 229.484375 C 253.234375 228.867188 252.808594 228.007813 252.675781 226.90625 C 252.585938 226.179688 252.667969 225.355469 252.929688 224.429688 C 253.175781 223.546875 253.535156 222.652344 254.003906 221.742188 C 254.46875 220.84375 255.027344 219.960938 255.679688 219.09375 C 256.328125 218.230469 257.007813 217.453125 257.722656 216.765625 C 258.445313 216.066406 259.171875 215.484375 259.902344 215.023438 C 260.675781 214.535156 261.414063 214.25 262.125 214.160156 L 262.332031 214.136719 L 264.214844 215.164063 L 263.902344 215.730469 L 263.824219 215.089844 C 264.417969 215.019531 264.898438 214.824219 265.265625 214.511719 C 265.554688 214.265625 265.667969 213.871094 265.601563 213.328125 C 265.582031 213.164063 265.550781 213.0625 265.511719 213.023438 C 265.46875 212.984375 265.421875 212.960938 265.367188 212.957031 C 265.214844 212.945313 265.03125 212.960938 264.820313 212.996094 C 264.542969 213.042969 264.28125 213.082031 264.03125 213.113281 C 263.191406 213.21875 262.296875 213.492188 261.347656 213.941406 C 260.375 214.398438 259.410156 214.984375 258.453125 215.703125 C 257.492188 216.425781 256.585938 217.246094 255.742188 218.164063 C 254.898438 219.082031 254.164063 220.046875 253.542969 221.066406 C 252.929688 222.074219 252.46875 223.09375 252.15625 224.125 C 251.855469 225.121094 251.761719 226.09375 251.878906 227.046875 C 251.988281 227.949219 252.300781 228.679688 252.816406 229.234375 C 253.359375 229.816406 254.046875 230.273438 254.878906 230.597656 C 255.75 230.9375 256.726563 231.160156 257.808594 231.273438 C 258.929688 231.390625 260.074219 231.460938 261.238281 231.492188 C 262.410156 231.523438 263.546875 231.519531 264.652344 231.476563 C 265.789063 231.433594 266.808594 231.429688 267.714844 231.472656 C 268.648438 231.515625 269.410156 231.617188 270.003906 231.78125 C 270.828125 232.003906 271.285156 232.460938 271.367188 233.148438 L 271.390625 233.328125 L 271.316406 233.488281 C 270.953125 234.304688 270.34375 235.050781 269.480469 235.726563 C 268.671875 236.359375 267.769531 236.945313 266.773438 237.488281 C 265.789063 238.023438 264.761719 238.523438 263.691406 238.984375 L 260.796875 240.234375 C 259.9375 240.605469 259.222656 240.945313 258.65625 241.25 C 258.277344 241.453125 258.089844 241.574219 258.085938 241.613281 Z M 257.441406 241.566406 C 257.460938 241.292969 257.765625 240.996094 258.347656 240.683594 C 258.933594 240.367188 259.664063 240.019531 260.539063 239.640625 C 261.414063 239.261719 262.378906 238.847656 263.433594 238.390625 C 264.488281 237.9375 265.5 237.445313 266.464844 236.921875 C 267.429688 236.398438 268.300781 235.828125 269.082031 235.21875 C 269.859375 234.609375 270.410156 233.945313 270.726563 233.226563 C 270.679688 232.828125 270.378906 232.550781 269.832031 232.402344 C 269.285156 232.253906 268.570313 232.15625 267.683594 232.117188 C 266.796875 232.078125 265.796875 232.078125 264.675781 232.121094 C 263.558594 232.164063 262.40625 232.167969 261.222656 232.136719 C 260.039063 232.105469 258.878906 232.03125 257.742188 231.914063 C 256.601563 231.796875 255.570313 231.558594 254.644531 231.199219 C 253.71875 230.835938 252.953125 230.328125 252.34375 229.671875 C 251.734375 229.015625 251.367188 228.164063 251.238281 227.125 C 251.109375 226.082031 251.210938 225.019531 251.539063 223.9375 C 251.863281 222.855469 252.351563 221.785156 252.992188 220.730469 C 253.636719 219.675781 254.394531 218.675781 255.265625 217.726563 C 256.140625 216.78125 257.070313 215.933594 258.066406 215.1875 C 259.058594 214.441406 260.058594 213.832031 261.070313 213.355469 C 262.082031 212.878906 263.042969 212.585938 263.949219 212.472656 C 264.191406 212.445313 264.445313 212.40625 264.710938 212.359375 C 264.976563 212.3125 265.210938 212.300781 265.414063 212.3125 C 265.621094 212.328125 265.800781 212.410156 265.953125 212.554688 C 266.105469 212.695313 266.203125 212.929688 266.242188 213.25 C 266.335938 214.023438 266.152344 214.609375 265.683594 215.003906 C 265.21875 215.402344 264.625 215.644531 263.902344 215.730469 L 262.203125 214.800781 C 261.589844 214.878906 260.9375 215.132813 260.246094 215.570313 C 259.554688 216.007813 258.863281 216.5625 258.171875 217.226563 C 257.484375 217.894531 256.824219 218.648438 256.195313 219.484375 C 255.566406 220.320313 255.027344 221.171875 254.578125 222.039063 C 254.128906 222.90625 253.785156 223.761719 253.550781 224.605469 C 253.316406 225.445313 253.238281 226.1875 253.316406 226.828125 C 253.429688 227.761719 253.78125 228.484375 254.375 228.996094 C 254.964844 229.503906 255.714844 229.875 256.625 230.101563 C 257.53125 230.328125 258.558594 230.453125 259.699219 230.476563 C 260.839844 230.5 261.988281 230.492188 263.152344 230.457031 C 264.3125 230.425781 265.460938 230.386719 266.59375 230.339844 C 267.726563 230.296875 268.738281 230.339844 269.636719 230.476563 C 270.535156 230.609375 271.269531 230.84375 271.835938 231.179688 C 272.40625 231.515625 272.734375 232.03125 272.820313 232.726563 C 273.167969 233.117188 273.164063 233.613281 272.820313 234.210938 C 272.472656 234.808594 271.898438 235.433594 271.097656 236.089844 C 270.296875 236.742188 269.335938 237.414063 268.214844 238.109375 C 267.097656 238.800781 265.933594 239.445313 264.734375 240.039063 C 263.535156 240.636719 262.363281 241.15625 261.226563 241.609375 C 260.089844 242.0625 259.113281 242.378906 258.296875 242.558594 C 258.054688 242.589844 257.839844 242.535156 257.644531 242.394531 C 257.453125 242.257813 257.382813 241.980469 257.441406 241.566406 Z M 257.441406 241.566406 "
     id="path50" />
  <path
     fill="none"
     stroke-width="7"
     stroke-linecap="butt"
     stroke-linejoin="miter"
     stroke="inherit"
     stroke-opacity="1"
     stroke-miterlimit="10"
     d="M 217.252041 161.001116 L 433.752384 161.001116 "
     transform="matrix(0, -0.751208, 0.751208, 0, 123.949257, 365.838119)"
     id="path52" />
  <path
     fill-rule="nonzero"
     fill="inherit"
     fill-opacity="1"
     stroke-width="5"
     stroke-linecap="butt"
     stroke-linejoin="miter"
     stroke="inherit"
     stroke-opacity="1"
     stroke-miterlimit="10"
     d="M 233.997405 102.59053 L 277.198675 102.59053 L 277.198675 90.251025 L 303.999269 111.498062 L 277.198675 132.7503 L 277.198675 120.410794 L 233.997405 120.410794 Z M 233.997405 102.59053 "
     transform="matrix(0.751208, 0, 0, -0.751208, 0.375604, 167.894919)"
     id="path54" />
  <path
     fill="none"
     stroke-width="7"
     stroke-linecap="butt"
     stroke-linejoin="miter"
     stroke="inherit"
     stroke-opacity="1"
     stroke-miterlimit="4"
     d="M 15.250679 73.99983 L 202.750844 73.99983 C 203.489239 73.99983 204.222433 74.072629 204.945228 74.218228 C 205.668022 74.358627 206.375217 74.571825 207.056411 74.857823 C 207.737606 75.138621 208.387601 75.487018 209.001197 75.897815 C 209.614792 76.308612 210.181587 76.771409 210.706783 77.296605 C 211.226779 77.816601 211.694776 78.383396 212.105573 79.002192 C 212.51637 79.615787 212.859567 80.260582 213.145565 80.946977 C 213.426363 81.628171 213.639561 82.330166 213.78516 83.052961 C 213.925559 83.780955 213.998358 84.508949 213.998358 85.252544 L 213.998358 137.751342 C 213.998358 138.489736 213.925559 139.217731 213.78516 139.945725 C 213.639561 140.66852 213.426363 141.370514 213.145565 142.056909 C 212.859567 142.738104 212.51637 143.388099 212.105573 144.001694 C 211.694776 144.615289 211.226779 145.182085 210.706783 145.707281 C 210.181587 146.227277 209.614792 146.695273 209.001197 147.10607 C 208.387601 147.516867 207.737606 147.860064 207.056411 148.146062 C 206.375217 148.42686 205.668022 148.640059 204.945228 148.785657 C 204.222433 148.926056 203.489239 148.998856 202.750844 148.998856 L 15.250679 148.998856 C 14.512285 148.998856 13.779091 148.926056 13.056296 148.785657 C 12.328302 148.640059 11.626307 148.42686 10.945112 148.146062 C 10.263918 147.860064 9.613923 147.516867 9.000327 147.10607 C 8.386732 146.695273 7.819936 146.227277 7.29474 145.707281 C 6.774744 145.182085 6.306748 144.615289 5.895951 144.001694 C 5.485154 143.388099 5.136757 142.738104 4.855959 142.056909 C 4.575161 141.370514 4.361963 140.66852 4.216364 139.945725 C 4.070765 139.217731 3.997966 138.489736 3.997966 137.751342 L 3.997966 85.252544 C 3.997966 84.508949 4.070765 83.780955 4.216364 83.052961 C 4.361963 82.330166 4.575161 81.628171 4.855959 80.946977 C 5.136757 80.260582 5.485154 79.615787 5.895951 79.002192 C 6.306748 78.383396 6.774744 77.816601 7.29474 77.296605 C 7.819936 76.771409 8.386732 76.308612 9.000327 75.897815 C 9.613923 75.487018 10.263918 75.138621 10.945112 74.857823 C 11.626307 74.571825 12.328302 74.358627 13.056296 74.218228 C 13.779091 74.072629 14.512285 73.99983 15.250679 73.99983 Z M 15.250679 73.99983 "
     transform="matrix(0.751208, 0, 0, 0.751208, 0.375604, 0.375604)"
     id="path56" />
  <path
     fill="none"
     stroke-width="10"
     stroke-linecap="butt"
     stroke-linejoin="miter"
     stroke="inherit"
     stroke-opacity="1"
     stroke-miterlimit="10"
     d="M 39.001764 111.502444 L 179.000293 111.502444 "
     transform="matrix(-0.751208, 0, 0, -0.751208, 163.763268, 167.519304)"
     id="path58" />
  <path
     fill="none"
     stroke-width="7"
     stroke-linecap="butt"
     stroke-linejoin="miter"
     stroke="inherit"
     stroke-opacity="0.502"
     stroke-miterlimit="10"
     d="M 9.532488 209.530168 L 138.470701 209.530168 "
     transform="matrix(0, 0.751208, -0.751208, 0, 213.365514, 102.186778)"
     id="path60" />
  <path
     fill="none"
     stroke-width="7"
     stroke-linecap="butt"
     stroke-linejoin="miter"
     stroke="inherit"
     stroke-opacity="0.502"
     stroke-miterlimit="10"
     d="M 63.377991 63.380178 L 84.630228 63.380178 "
     transform="matrix(0, 0.751208, -0.751208, 0, 103.57652, -7.60222)"
     id="path62" />
  <path
     fill-rule="nonzero"
     fill="inherit"
     fill-opacity="1"
     stroke-width="3"
     stroke-linecap="butt"
     stroke-linejoin="miter"
     stroke="inherit"
     stroke-opacity="1"
     stroke-miterlimit="4"
     d="M 333.99784 359.997641 L 364.00161 359.997641 L 364.00161 371.749551 L 333.99784 371.749551 Z M 333.99784 359.997641 "
     transform="matrix(0.751208, 0, 0, 0.751208, 0.375604, 0.375604)"
     id="path64" />
  <path
     fill-rule="nonzero"
     fill="inherit"
     fill-opacity="1"
     stroke-width="3"
     stroke-linecap="butt"
     stroke-linejoin="miter"
     stroke="inherit"
     stroke-opacity="1"
     stroke-miterlimit="4"
     d="M 119.000285 359.997641 L 148.998856 359.997641 L 148.998856 371.749551 L 119.000285 371.749551 Z M 119.000285 359.997641 "
     transform="matrix(0.751208, 0, 0, 0.751208, 0.375604, 0.375604)"
     id="path66" />
  <g
     clip-path="url(#clip-3)"
     id="g70">
    <path
       fill="none"
       stroke-width="6"
       stroke-linecap="butt"
       stroke-linejoin="miter"
       stroke="inherit"
       stroke-opacity="1"
       stroke-miterlimit="4"
       d="m 381.99948,111.24795 c 0,1.24799 -0.1196,2.48558 -0.364,3.70757 -0.2444,1.22719 -0.6032,2.41278 -1.08159,3.56717 -0.4784,1.14919 -1.0608,2.24639 -1.75759,3.28118 -0.69159,1.03999 -1.47679,1.99678 -2.36078,2.88078 -0.88399,0.88399 -1.84079,1.66918 -2.88078,2.36078 -1.03479,0.69679 -2.13198,1.27919 -3.28637,1.75758 -1.1492,0.4784 -2.33999,0.8372 -3.56198,1.0816 -1.22199,0.24439 -2.45958,0.36399 -3.70757,0.36399 -1.24799,0 -2.48038,-0.1196 -3.70757,-0.36399 -1.22199,-0.2444 -2.40758,-0.6032 -3.56197,-1.0816 -1.15439,-0.47839 -2.24639,-1.06079 -3.28638,-1.75758 -1.03479,-0.6916 -1.99678,-1.47679 -2.87558,-2.36078 -0.88399,-0.884 -1.67438,-1.84079 -2.36598,-2.88078 -0.69159,-1.03479 -1.27919,-2.13199 -1.75758,-3.28118 -0.4732,-1.15439 -0.8372,-2.33998 -1.0764,-3.56717 -0.24439,-1.22199 -0.36919,-2.45958 -0.36919,-3.70757 0,-1.24799 0.1248,-2.48038 0.36919,-3.70237 0.2392,-1.22719 0.6032,-2.41278 1.0764,-3.56718 0.47839,-1.15439 1.06599,-2.24638 1.75758,-3.28637 0.6916,-1.034793 1.48199,-1.996785 2.36598,-2.875579 0.8788,-0.883993 1.84079,-1.669187 2.87558,-2.365982 1.03999,-0.691594 2.13199,-1.27919 3.28638,-1.752386 1.15439,-0.478396 2.33998,-0.837194 3.56197,-1.081592 1.22719,-0.244398 2.45958,-0.363997 3.70757,-0.363997 1.24799,0 2.48558,0.119599 3.70757,0.363997 1.22199,0.244398 2.41278,0.603196 3.56198,1.081592 1.15439,0.473196 2.25158,1.060792 3.28637,1.752386 1.03999,0.696795 1.99679,1.481989 2.88078,2.365982 0.88399,0.878794 1.66919,1.840786 2.36078,2.875579 0.69679,1.03999 1.27919,2.13198 1.75759,3.28637 0.47839,1.1544 0.83719,2.33999 1.08159,3.56718 0.2444,1.22199 0.364,2.45438 0.364,3.70237 z m 0,0"
       transform="scale(0.751208)"
       id="path68" />
  </g>
  <path
     fill-rule="nonzero"
     fill="inherit"
     fill-opacity="1"
     stroke-width="4"
     stroke-linecap="butt"
     stroke-linejoin="miter"
     stroke="inherit"
     stroke-opacity="1"
     stroke-miterlimit="4"
     d="M 381.999476 214.441159 C 381.999476 215.689149 381.879877 216.92154 381.635479 218.14873 C 381.391081 219.370721 381.032284 220.556312 380.553887 221.710703 C 380.075491 222.865094 379.493095 223.957086 378.796301 224.997078 C 378.104706 226.03187 377.319512 226.993863 376.435519 227.872656 C 375.551526 228.756649 374.594733 229.547043 373.554741 230.238638 C 372.519949 230.930232 371.422757 231.517828 370.268366 231.996224 C 369.119175 232.469421 367.928384 232.833418 366.706393 233.072616 C 365.484403 233.317014 364.246812 233.441813 362.998822 233.441813 C 361.750831 233.441813 360.518441 233.317014 359.29125 233.072616 C 358.069259 232.833418 356.883668 232.469421 355.729277 231.996224 C 354.574886 231.517828 353.482894 230.930232 352.442902 230.238638 C 351.40811 229.547043 350.446118 228.756649 349.567324 227.872656 C 348.683331 226.993863 347.892937 226.03187 347.201343 224.997078 C 346.509748 223.957086 345.922152 222.865094 345.443756 221.710703 C 344.97056 220.556312 344.606562 219.370721 344.367364 218.14873 C 344.122966 216.92154 343.998167 215.689149 343.998167 214.441159 C 343.998167 213.193168 344.122966 211.955578 344.367364 210.733587 C 344.606562 209.511596 344.97056 208.320806 345.443756 207.166414 C 345.922152 206.017223 346.509748 204.920032 347.201343 203.885239 C 347.892937 202.845247 348.683331 201.888455 349.567324 201.004462 C 350.446118 200.120468 351.40811 199.335274 352.442902 198.64368 C 353.482894 197.946885 354.574886 197.364489 355.729277 196.886093 C 356.883668 196.407697 358.069259 196.048899 359.29125 195.804501 C 360.518441 195.560103 361.750831 195.440504 362.998822 195.440504 C 364.246812 195.440504 365.484403 195.560103 366.706393 195.804501 C 367.928384 196.048899 369.119175 196.407697 370.268366 196.886093 C 371.422757 197.364489 372.519949 197.946885 373.554741 198.64368 C 374.594733 199.335274 375.551526 200.120468 376.435519 201.004462 C 377.319512 201.888455 378.104706 202.845247 378.796301 203.885239 C 379.493095 204.920032 380.075491 206.017223 380.553887 207.166414 C 381.032284 208.320806 381.391081 209.511596 381.635479 210.733587 C 381.879877 211.955578 381.999476 213.193168 381.999476 214.441159 Z M 381.999476 214.441159 "
     transform="matrix(0.751208, 0, 0, 0.751208, 0, 0)"
     id="path72" />
  <path
     fill="none"
     stroke-width="7"
     stroke-linecap="butt"
     stroke-linejoin="miter"
     stroke="inherit"
     stroke-opacity="1"
     stroke-miterlimit="10"
     d="M 68.132039 49.879831 L 79.878749 49.879831 "
     transform="matrix(0, -0.751208, 0.751208, 0, 18.494732, 93.435217)"
     id="path74" />
</svg>
