<?xml version="1.0" encoding="UTF-8" standalone="no"?>
<svg
   viewBox="0 0 310.07999 287.04001"
   version="1.1"
   id="svg120"
   xmlns="http://www.w3.org/2000/svg"
   xmlnsSvg="http://www.w3.org/2000/svg">
  <defs
     id="defs26">
    <clipPath
       id="clip-0">
      <path
         clip-rule="nonzero"
         d="M 202 0 L 310 0 L 310 108 L 202 108 Z M 202 0 "
         id="path2" />
    </clipPath>
    <clipPath
       id="clip-1">
      <path
         clip-rule="nonzero"
         d="M 0 0 L 310 0 L 310 107 L 0 107 Z M 0 0 "
         id="path5" />
    </clipPath>
    <clipPath
       id="clip-2">
      <path
         clip-rule="nonzero"
         d="M 248 33 L 310 33 L 310 136 L 248 136 Z M 248 33 "
         id="path8" />
    </clipPath>
    <clipPath
       id="clip-3">
      <path
         clip-rule="nonzero"
         d="M 232 44 L 310 44 L 310 124 L 232 124 Z M 232 44 "
         id="path11" />
    </clipPath>
    <clipPath
       id="clip-4">
      <path
         clip-rule="nonzero"
         d="M 202 171 L 310 171 L 310 285.230469 L 202 285.230469 Z M 202 171 "
         id="path14" />
    </clipPath>
    <clipPath
       id="clip-5">
      <path
         clip-rule="nonzero"
         d="M 0 171 L 156 171 L 156 285.230469 L 0 285.230469 Z M 0 171 "
         id="path17" />
    </clipPath>
    <clipPath
       id="clip-6">
      <path
         clip-rule="nonzero"
         d="M 0 171 L 310 171 L 310 285.230469 L 0 285.230469 Z M 0 171 "
         id="path20" />
    </clipPath>
    <clipPath
       id="clip-7">
      <path
         clip-rule="nonzero"
         d="M 251 99 L 310 99 L 310 180 L 251 180 Z M 251 99 "
         id="path23" />
    </clipPath>
  </defs>
  <path
     fill-rule="nonzero"
     fill="rgb(0%, 0%, 0%)"
     fill-opacity="1"
     d="M 78.625 129.433594 L 219.363281 129.433594 C 219.917969 129.433594 220.46875 129.488281 221.011719 129.597656 C 221.554688 129.703125 222.082031 129.863281 222.597656 130.078125 C 223.109375 130.289063 223.59375 130.550781 224.054688 130.859375 C 224.515625 131.164063 224.941406 131.515625 225.335938 131.90625 C 225.726563 132.300781 226.078125 132.726563 226.386719 133.1875 C 226.695313 133.648438 226.953125 134.136719 227.164063 134.648438 C 227.378906 135.160156 227.539063 135.6875 227.644531 136.230469 C 227.753906 136.773438 227.808594 137.324219 227.808594 137.878906 L 227.808594 177.285156 C 227.808594 177.839844 227.753906 178.390625 227.644531 178.933594 C 227.539063 179.476563 227.378906 180.003906 227.164063 180.515625 C 226.953125 181.027344 226.695313 181.515625 226.386719 181.976563 C 226.078125 182.4375 225.726563 182.863281 225.335938 183.257813 C 224.941406 183.648438 224.515625 184 224.054688 184.304688 C 223.59375 184.613281 223.109375 184.875 222.597656 185.085938 C 222.082031 185.300781 221.554688 185.460938 221.011719 185.566406 C 220.46875 185.675781 219.917969 185.730469 219.363281 185.730469 L 78.625 185.730469 C 78.070313 185.730469 77.523438 185.675781 76.976563 185.566406 C 76.433594 185.460938 75.90625 185.300781 75.394531 185.085938 C 74.882813 184.875 74.394531 184.613281 73.933594 184.308594 C 73.472656 184 73.046875 183.648438 72.65625 183.257813 C 72.261719 182.863281 71.914063 182.4375 71.605469 181.976563 C 71.296875 181.515625 71.035156 181.027344 70.824219 180.515625 C 70.613281 180.003906 70.453125 179.476563 70.34375 178.933594 C 70.234375 178.390625 70.179688 177.839844 70.179688 177.285156 L 70.179688 137.878906 C 70.179688 137.324219 70.234375 136.773438 70.34375 136.230469 C 70.453125 135.6875 70.613281 135.160156 70.824219 134.648438 C 71.035156 134.136719 71.296875 133.648438 71.605469 133.1875 C 71.914063 132.726563 72.261719 132.300781 72.65625 131.90625 C 73.046875 131.515625 73.472656 131.164063 73.933594 130.859375 C 74.394531 130.550781 74.882813 130.289063 75.394531 130.078125 C 75.90625 129.863281 76.433594 129.703125 76.976563 129.597656 C 77.523438 129.488281 78.070313 129.433594 78.625 129.433594 Z M 78.625 129.433594 "
     id="path28" />
  <path
     fill="none"
     stroke-width="7"
     stroke-linecap="butt"
     stroke-linejoin="miter"
     stroke="rgb(0%, 0%, 0%)"
     stroke-opacity="1"
     stroke-miterlimit="10"
     d="M 72.997974 44.000544 C 72.997974 24.672393 88.66762 8.997543 108.000975 8.997543 "
     transform="matrix(0.750605, 0, 0, 0.750605, 0.375303, 0.375303)"
     id="path30" />
  <path
     fill="none"
     stroke-width="7"
     stroke-linecap="butt"
     stroke-linejoin="miter"
     stroke="rgb(0%, 0%, 0%)"
     stroke-opacity="1"
     stroke-miterlimit="10"
     d="M 72.997974 52.249095 L 328.000505 52.249095 "
     transform="matrix(0.750605, 0, 0, 0.750605, 0.375303, 0.375303)"
     id="path32" />
  <g
     clip-path="url(#clip-0)"
     id="g36">
    <path
       fill="none"
       stroke-width="7"
       stroke-linecap="butt"
       stroke-linejoin="miter"
       stroke="#000000"
       stroke-opacity="1"
       stroke-miterlimit="10"
       d="m 332.99754,44.000528 c 0,-19.328151 15.67485,-35.003001 35.003,-35.003001"
       transform="matrix(0,0.750605,-0.750605,0,309.62468,-242.82081)"
       id="path34" />
  </g>
  <path
     fill="none"
     stroke-width="7"
     stroke-linecap="butt"
     stroke-linejoin="miter"
     stroke="rgb(0%, 0%, 0%)"
     stroke-opacity="1"
     stroke-miterlimit="10"
     d="M 107.501378 8.997543 L 368.49907 8.997543 "
     transform="matrix(0.750605, 0, 0, 0.750605, 0.375303, 0.375303)"
     id="path38" />
  <path
     fill-rule="nonzero"
     fill="rgb(0%, 0%, 0%)"
     fill-opacity="1"
     d="M 72.71875 14.636719 L 285.320313 14.636719 C 285.980469 14.636719 286.632813 14.699219 287.28125 14.828125 C 287.925781 14.957031 288.554688 15.148438 289.164063 15.402344 C 289.773438 15.652344 290.351563 15.960938 290.898438 16.328125 C 291.449219 16.695313 291.957031 17.109375 292.421875 17.578125 C 292.886719 18.042969 293.304688 18.550781 293.671875 19.097656 C 294.035156 19.648438 294.347656 20.226563 294.597656 20.835938 C 294.851563 21.441406 295.042969 22.070313 295.171875 22.71875 C 295.300781 23.363281 295.363281 24.015625 295.363281 24.675781 C 295.363281 25.335938 295.300781 25.988281 295.171875 26.632813 C 295.042969 27.28125 294.851563 27.910156 294.597656 28.519531 C 294.347656 29.128906 294.035156 29.707031 293.671875 30.253906 C 293.304688 30.800781 292.886719 31.308594 292.421875 31.773438 C 291.957031 32.242188 291.449219 32.65625 290.898438 33.023438 C 290.351563 33.390625 289.773438 33.699219 289.164063 33.953125 C 288.554688 34.203125 287.925781 34.394531 287.28125 34.523438 C 286.632813 34.652344 285.980469 34.714844 285.320313 34.714844 L 72.71875 34.714844 C 72.058594 34.714844 71.40625 34.652344 70.757813 34.523438 C 70.113281 34.394531 69.484375 34.203125 68.875 33.953125 C 68.265625 33.699219 67.6875 33.390625 67.140625 33.023438 C 66.589844 32.65625 66.082031 32.242188 65.617188 31.773438 C 65.152344 31.308594 64.734375 30.800781 64.367188 30.253906 C 64 29.707031 63.691406 29.128906 63.441406 28.519531 C 63.1875 27.910156 62.996094 27.28125 62.867188 26.632813 C 62.738281 25.988281 62.675781 25.335938 62.675781 24.675781 C 62.675781 24.015625 62.738281 23.363281 62.867188 22.71875 C 62.996094 22.070313 63.1875 21.441406 63.441406 20.835938 C 63.691406 20.226563 64 19.648438 64.367188 19.097656 C 64.734375 18.550781 65.152344 18.042969 65.617188 17.578125 C 66.082031 17.109375 66.589844 16.695313 67.140625 16.328125 C 67.6875 15.960938 68.265625 15.652344 68.875 15.402344 C 69.484375 15.148438 70.113281 14.957031 70.757813 14.828125 C 71.40625 14.699219 72.058594 14.636719 72.71875 14.636719 Z M 72.71875 14.636719 "
     id="path40" />
  <g
     clip-path="url(#clip-1)"
     id="g44">
    <path
       fill="none"
       stroke-width="17"
       stroke-linecap="butt"
       stroke-linejoin="miter"
       stroke="#000000"
       stroke-opacity="1"
       stroke-miterlimit="4"
       d="M 96.380145,18.999887 H 379.6203 c 0.8795,0 1.74859,0.08327 2.61248,0.255003 0.85868,0.171736 1.69654,0.426739 2.50839,0.765007 0.81184,0.333065 1.58206,0.744192 2.31063,1.23338 0.73379,0.489189 1.41033,1.040827 2.02962,1.665323 0.61929,0.619292 1.17613,1.295829 1.66532,2.024408 0.48398,0.733782 0.90032,1.503994 1.23338,2.315839 0.33827,0.806641 0.59327,1.644506 0.76501,2.508392 0.17173,0.858682 0.255,1.727772 0.255,2.607271 0,0.879498 -0.0833,1.748589 -0.255,2.607271 -0.17174,0.863886 -0.42674,1.701751 -0.76501,2.513596 -0.33306,0.811845 -0.7494,1.582057 -1.23338,2.310635 -0.48919,0.728579 -1.04603,1.405116 -1.66532,2.024408 -0.61929,0.624496 -1.29583,1.176134 -2.02962,1.665323 -0.72857,0.489188 -1.49879,0.900315 -2.31063,1.238583 -0.81185,0.333065 -1.64971,0.588067 -2.50839,0.759804 -0.86389,0.171736 -1.73298,0.255002 -2.61248,0.255002 H 96.380145 c -0.879499,0 -1.748589,-0.08327 -2.612475,-0.255002 -0.858682,-0.171737 -1.696547,-0.426739 -2.508392,-0.759804 -0.811845,-0.338268 -1.582057,-0.749395 -2.310635,-1.238583 -0.733783,-0.489189 -1.41032,-1.040827 -2.029612,-1.665323 -0.619292,-0.619292 -1.176134,-1.295829 -1.665323,-2.024408 -0.489188,-0.728578 -0.900315,-1.49879 -1.23338,-2.310635 -0.338268,-0.811845 -0.593271,-1.64971 -0.765007,-2.513596 -0.171736,-0.858682 -0.255003,-1.727773 -0.255003,-2.607271 0,-0.879499 0.08327,-1.748589 0.255003,-2.607271 0.171736,-0.863886 0.426739,-1.701751 0.765007,-2.508392 0.333065,-0.811845 0.744192,-1.582057 1.23338,-2.315839 0.489189,-0.728579 1.046031,-1.405116 1.665323,-2.024408 0.619292,-0.624496 1.295829,-1.176134 2.029612,-1.665323 0.728578,-0.489188 1.49879,-0.900315 2.310635,-1.23338 0.811845,-0.338268 1.64971,-0.593271 2.508392,-0.765007 0.863886,-0.171736 1.732976,-0.255003 2.612475,-0.255003 z m 0,0"
       transform="matrix(0.750605,0,0,0.750605,0.375303,0.375303)"
       id="path42" />
  </g>
  <path
     fill-rule="nonzero"
     fill="rgb(0%, 0%, 0%)"
     fill-opacity="1"
     d="M 55.167969 25.894531 L 301.367188 25.894531 L 301.367188 40.90625 L 55.167969 40.90625 Z M 55.167969 25.894531 "
     id="path46" />
  <path
     fill-rule="nonzero"
     fill="rgb(0%, 0%, 0%)"
     fill-opacity="1"
     stroke-width="1"
     stroke-linecap="butt"
     stroke-linejoin="miter"
     stroke="rgb(0%, 0%, 0%)"
     stroke-opacity="1"
     stroke-miterlimit="4"
     d="M 322.999333 47.247923 L 403.002473 47.247923 L 403.002473 94.001856 L 322.999333 94.001856 Z M 322.999333 47.247923 "
     transform="matrix(0.750605, 0, 0, 0.750605, 0.375303, 0.375303)"
     id="path48" />
  <path
     fill-rule="nonzero"
     fill="rgb(0%, 0%, 0%)"
     fill-opacity="1"
     d="M 280.351563 65.679688 C 295.863281 65.679688 303.621094 71.933594 303.621094 84.441406 C 303.621094 96.953125 295.863281 103.207031 280.351563 103.207031 C 288.105469 90.699219 288.105469 78.1875 280.351563 65.679688 Z M 280.351563 65.679688 "
     id="path50" />
  <g
     clip-path="url(#clip-2)"
     id="g54">
    <path
       fill="none"
       stroke-width="3"
       stroke-linecap="butt"
       stroke-linejoin="miter"
       stroke="#000000"
       stroke-opacity="1"
       stroke-miterlimit="10"
       d="m 373.00065,87.002297 c 20.66561,0 31.00102,8.331817 31.00102,24.995453 0,16.66884 -10.33541,25.00065 -31.00102,25.00065 10.3302,-16.66363 10.3302,-33.33247 0,-49.996103 z m 0,0"
       transform="matrix(0.750605,0,0,0.750605,0.375303,0.375303)"
       id="path52" />
  </g>
  <path
     fill-rule="nonzero"
     fill="rgb(0%, 0%, 0%)"
     fill-opacity="1"
     stroke-width="0.1"
     stroke-linecap="butt"
     stroke-linejoin="miter"
     stroke="rgb(0%, 0%, 0%)"
     stroke-opacity="1"
     stroke-miterlimit="10"
     d="M 320.999695 87.00159 C 342.997566 87.00159 353.999104 95.333408 353.999104 112.002247 C 353.999104 128.665881 342.997566 136.997699 320.999695 136.997699 C 332.001232 120.334064 332.001232 103.665225 320.999695 87.00159 Z M 320.999695 87.00159 "
     transform="matrix(-0.750605, 0, 0, -0.750605, 507.033915, 168.510886)"
     id="path56" />
  <g
     clip-path="url(#clip-3)"
     id="g60">
    <path
       fill="none"
       stroke-width="6"
       stroke-linecap="butt"
       stroke-linejoin="miter"
       stroke="#000000"
       stroke-opacity="1"
       stroke-miterlimit="4"
       d="m 381.99899,111.99815 c 0,1.24899 -0.11969,2.48237 -0.36429,3.71055 -0.24459,1.22297 -0.60367,2.40951 -1.08245,3.56483 -0.47358,1.15011 -1.06165,2.24298 -1.7538,3.28381 -0.69215,1.03562 -1.48318,1.99318 -2.36267,2.87788 -0.88471,0.8795 -1.84227,1.67053 -2.87789,2.36268 -1.04083,0.69215 -2.13369,1.28022 -3.28901,1.75379 -1.15012,0.47878 -2.33666,0.83787 -3.55963,1.08246 -1.22817,0.2446 -2.46155,0.36429 -3.71055,0.36429 -1.24378,0 -2.48237,-0.11969 -3.70534,-0.36429 -1.22297,-0.24459 -2.40951,-0.60368 -3.56483,-1.08246 -1.15011,-0.47357 -2.24819,-1.06164 -3.28381,-1.75379 -1.03562,-0.69215 -1.99839,-1.48318 -2.87788,-2.36268 -0.88471,-0.8847 -1.67053,-1.84226 -2.36268,-2.87788 -0.69735,-1.04083 -1.28022,-2.1337 -1.759,-3.28381 -0.47878,-1.15532 -0.83786,-2.34186 -1.08246,-3.56483 -0.23939,-1.22818 -0.36429,-2.46156 -0.36429,-3.71055 0,-1.24379 0.1249,-2.48237 0.36429,-3.70534 0.2446,-1.22297 0.60368,-2.40951 1.08246,-3.56483 0.47878,-1.15011 1.06165,-2.24819 1.759,-3.28381 0.69215,-1.03562 1.47797,-1.998387 2.36268,-2.877886 0.87949,-0.884702 1.84226,-1.670527 2.87788,-2.362676 1.03562,-0.69215 2.1337,-1.280217 3.28381,-1.758997 1.15532,-0.473576 2.34186,-0.837866 3.56483,-1.077256 1.22297,-0.244594 2.46156,-0.369493 3.70534,-0.369493 1.249,0 2.48238,0.124899 3.71055,0.369493 1.22297,0.23939 2.40951,0.60368 3.55963,1.077256 1.15532,0.47878 2.24818,1.066847 3.28901,1.758997 1.03562,0.692149 1.99318,1.477974 2.87789,2.362676 0.87949,0.879499 1.67052,1.842266 2.36267,2.877886 0.69215,1.03562 1.28022,2.1337 1.7538,3.28381 0.47878,1.15532 0.83786,2.34186 1.08245,3.56483 0.2446,1.22297 0.36429,2.46155 0.36429,3.70534 z m 0,0"
       transform="scale(0.750605)"
       id="path58" />
  </g>
  <g
     clip-path="url(#clip-4)"
     id="g64">
    <path
       fill="none"
       stroke-width="7"
       stroke-linecap="butt"
       stroke-linejoin="miter"
       stroke="#000000"
       stroke-opacity="1"
       stroke-miterlimit="10"
       d="m 332.99756,326.4983 c 0,-19.32815 15.67485,-34.9978 35.003,-34.9978"
       transform="matrix(-0.750605,0,0,-0.750605,552.82083,490.52057)"
       id="path62" />
  </g>
  <path
     fill="none"
     stroke-width="7"
     stroke-linecap="butt"
     stroke-linejoin="miter"
     stroke="rgb(0%, 0%, 0%)"
     stroke-opacity="1"
     stroke-miterlimit="10"
     d="M 72.999507 268.998785 L 328.002038 268.998785 "
     transform="matrix(-0.750605, 0, 0, -0.750605, 301.368035, 404.200975)"
     id="path66" />
  <g
     clip-path="url(#clip-5)"
     id="g70">
    <path
       fill="none"
       stroke-width="7"
       stroke-linecap="butt"
       stroke-linejoin="miter"
       stroke="#000000"
       stroke-opacity="1"
       stroke-miterlimit="10"
       d="m 73.000494,326.50098 c 0,-19.33335 15.669645,-35.003 34.997796,-35.003"
       transform="matrix(0,-0.750605,0.750605,0,-163.63196,326.51331)"
       id="path68" />
  </g>
  <path
     fill="none"
     stroke-width="7"
     stroke-linecap="butt"
     stroke-linejoin="miter"
     stroke="rgb(0%, 0%, 0%)"
     stroke-opacity="1"
     stroke-miterlimit="10"
     d="M 260.998716 185.002477 L 544.998677 185.002477 "
     transform="matrix(0, -0.750605, 0.750605, 0, 164.007255, 441.731238)"
     id="path72" />
  <path
     fill="none"
     stroke-width="7"
     stroke-linecap="butt"
     stroke-linejoin="miter"
     stroke="rgb(0%, 0%, 0%)"
     stroke-opacity="1"
     stroke-miterlimit="10"
     d="M 41.250287 297.24797 L 104.751121 297.24797 "
     transform="matrix(0, -0.750605, 0.750605, 0, -167.947932, 278.286903)"
     id="path74" />
  <path
     fill="none"
     stroke-width="7"
     stroke-linecap="butt"
     stroke-linejoin="miter"
     stroke="rgb(0%, 0%, 0%)"
     stroke-opacity="1"
     stroke-miterlimit="10"
     d="M 107.500915 361.50055 L 368.498607 361.50055 "
     transform="matrix(-0.750605, 0, 0, -0.750605, 357.663412, 543.062977)"
     id="path76" />
  <path
     fill-rule="nonzero"
     fill="rgb(0%, 0%, 0%)"
     fill-opacity="1"
     stroke-width="1"
     stroke-linecap="butt"
     stroke-linejoin="miter"
     stroke="rgb(0%, 0%, 0%)"
     stroke-opacity="1"
     stroke-miterlimit="4"
     d="M 322.999333 244.000589 L 403.002473 244.000589 L 403.002473 313.002193 L 322.999333 313.002193 Z M 322.999333 244.000589 "
     transform="matrix(0.750605, 0, 0, 0.750605, 0.375303, 0.375303)"
     id="path78" />
  <path
     fill-rule="nonzero"
     fill="rgb(0%, 0%, 0%)"
     fill-opacity="1"
     stroke-width="1"
     stroke-linecap="butt"
     stroke-linejoin="miter"
     stroke="rgb(0%, 0%, 0%)"
     stroke-opacity="1"
     stroke-miterlimit="4"
     d="M 71.998781 267.502455 L 403.002473 267.502455 L 403.002473 336.498854 L 71.998781 336.498854 Z M 71.998781 267.502455 "
     transform="matrix(0.750605, 0, 0, 0.750605, 0.375303, 0.375303)"
     id="path80" />
  <path
     fill-rule="nonzero"
     fill="rgb(0%, 0%, 0%)"
     fill-opacity="1"
     d="M 72.71875 243.570313 L 285.320313 243.570313 C 285.980469 243.570313 286.632813 243.636719 287.28125 243.765625 C 287.925781 243.894531 288.554688 244.082031 289.164063 244.335938 C 289.773438 244.585938 290.351563 244.898438 290.898438 245.261719 C 291.449219 245.628906 291.957031 246.046875 292.421875 246.511719 C 292.886719 246.976563 293.304688 247.484375 293.671875 248.03125 C 294.035156 248.582031 294.347656 249.160156 294.597656 249.769531 C 294.851563 250.378906 295.042969 251.003906 295.171875 251.652344 C 295.300781 252.296875 295.363281 252.953125 295.363281 253.609375 C 295.363281 254.269531 295.300781 254.921875 295.171875 255.570313 C 295.042969 256.214844 294.851563 256.84375 294.597656 257.453125 C 294.347656 258.0625 294.035156 258.640625 293.671875 259.1875 C 293.304688 259.738281 292.886719 260.242188 292.421875 260.710938 C 291.957031 261.175781 291.449219 261.59375 290.898438 261.957031 C 290.351563 262.324219 289.773438 262.632813 289.164063 262.886719 C 288.554688 263.136719 287.925781 263.328125 287.28125 263.457031 C 286.632813 263.585938 285.980469 263.648438 285.320313 263.648438 L 72.71875 263.648438 C 72.058594 263.648438 71.40625 263.585938 70.757813 263.457031 C 70.113281 263.328125 69.484375 263.136719 68.875 262.886719 C 68.265625 262.632813 67.6875 262.324219 67.140625 261.957031 C 66.589844 261.59375 66.082031 261.175781 65.617188 260.710938 C 65.152344 260.242188 64.734375 259.738281 64.367188 259.1875 C 64 258.640625 63.691406 258.0625 63.441406 257.453125 C 63.1875 256.84375 62.996094 256.214844 62.867188 255.570313 C 62.738281 254.921875 62.675781 254.269531 62.675781 253.609375 C 62.675781 252.953125 62.738281 252.296875 62.867188 251.652344 C 62.996094 251.003906 63.1875 250.378906 63.441406 249.769531 C 63.691406 249.160156 64 248.582031 64.367188 248.03125 C 64.734375 247.484375 65.152344 246.976563 65.617188 246.511719 C 66.082031 246.046875 66.589844 245.628906 67.140625 245.261719 C 67.6875 244.898438 68.265625 244.585938 68.875 244.335938 C 69.484375 244.082031 70.113281 243.894531 70.757813 243.765625 C 71.40625 243.636719 72.058594 243.570313 72.71875 243.570313 Z M 72.71875 243.570313 "
     id="path82" />
  <g
     clip-path="url(#clip-6)"
     id="g86">
    <path
       fill="none"
       stroke-width="17"
       stroke-linecap="butt"
       stroke-linejoin="miter"
       stroke="#000000"
       stroke-opacity="1"
       stroke-miterlimit="4"
       d="M 96.380145,323.99853 H 379.6203 c 0.8795,0 1.74859,0.0885 2.61248,0.2602 0.85868,0.17174 1.69654,0.42154 2.50839,0.75981 0.81184,0.33306 1.58206,0.74939 2.31063,1.23338 0.73379,0.48918 1.41033,1.04603 2.02962,1.66532 0.61929,0.61929 1.17613,1.29583 1.66532,2.02441 0.48398,0.73378 0.90032,1.50399 1.23338,2.31584 0.33827,0.81184 0.59327,1.6445 0.76501,2.50839 0.17173,0.85868 0.255,1.73297 0.255,2.60727 0,0.8795 -0.0833,1.74859 -0.255,2.61247 -0.17174,0.85869 -0.42674,1.69655 -0.76501,2.5084 -0.33306,0.81184 -0.7494,1.58205 -1.23338,2.31063 -0.48919,0.73378 -1.04603,1.40512 -1.66532,2.02961 -0.61929,0.61929 -1.29583,1.17614 -2.02962,1.66012 -0.72857,0.48919 -1.49879,0.90032 -2.31063,1.23858 -0.81185,0.33307 -1.64971,0.58807 -2.50839,0.75981 -0.86389,0.17174 -1.73298,0.255 -2.61248,0.255 H 96.380145 c -0.879499,0 -1.748589,-0.0833 -2.612475,-0.255 -0.858682,-0.17174 -1.696547,-0.42674 -2.508392,-0.75981 -0.811845,-0.33826 -1.582057,-0.74939 -2.310635,-1.23858 -0.733783,-0.48398 -1.41032,-1.04083 -2.029612,-1.66012 -0.619292,-0.62449 -1.176134,-1.29583 -1.665323,-2.02961 -0.489188,-0.72858 -0.900315,-1.49879 -1.23338,-2.31063 -0.338268,-0.81185 -0.593271,-1.64971 -0.765007,-2.5084 -0.171736,-0.86388 -0.255003,-1.73297 -0.255003,-2.61247 0,-0.8743 0.08327,-1.74859 0.255003,-2.60727 0.171736,-0.86389 0.426739,-1.69655 0.765007,-2.50839 0.333065,-0.81185 0.744192,-1.58206 1.23338,-2.31584 0.489189,-0.72858 1.046031,-1.40512 1.665323,-2.02441 0.619292,-0.61929 1.295829,-1.17614 2.029612,-1.66532 0.728578,-0.48399 1.49879,-0.90032 2.310635,-1.23338 0.811845,-0.33827 1.64971,-0.58807 2.508392,-0.75981 0.863886,-0.17173 1.732976,-0.2602 2.612475,-0.2602 z m 0,0"
       transform="matrix(0.750605,0,0,0.750605,0.375303,0.375303)"
       id="path84" />
  </g>
  <path
     fill="none"
     stroke-width="7"
     stroke-linecap="butt"
     stroke-linejoin="miter"
     stroke="rgb(0%, 0%, 0%)"
     stroke-opacity="1"
     stroke-miterlimit="10"
     d="M 216.248969 160.998123 L 432.751321 160.998123 "
     transform="matrix(0, -0.750605, 0.750605, 0, 123.099268, 364.794184)"
     id="path88" />
  <path
     fill-rule="nonzero"
     fill="rgb(0%, 0%, 0%)"
     fill-opacity="1"
     stroke-width="5"
     stroke-linecap="butt"
     stroke-linejoin="miter"
     stroke="rgb(0%, 0%, 0%)"
     stroke-opacity="1"
     stroke-miterlimit="10"
     d="M 233.998245 105.589592 L 277.197756 105.589592 L 277.197756 93.250592 L 303.999042 114.499068 L 277.197756 135.747544 L 277.197756 123.408544 L 233.998245 123.408544 Z M 233.998245 105.589592 "
     transform="matrix(0.750605, 0, 0, -0.750605, 0.375303, 172.263919)"
     id="path90" />
  <path
     fill-rule="nonzero"
     fill="rgb(0%, 0%, 0%)"
     fill-opacity="1"
     d="M 11.820313 58.171875 L 152.558594 58.171875 C 153.113281 58.171875 153.664063 58.226563 154.207031 58.335938 C 154.75 58.441406 155.28125 58.601563 155.792969 58.816406 C 156.304688 59.027344 156.789063 59.285156 157.25 59.59375 C 157.714844 59.902344 158.140625 60.253906 158.53125 60.644531 C 158.921875 61.039063 159.273438 61.464844 159.582031 61.925781 C 159.890625 62.386719 160.148438 62.871094 160.363281 63.382813 C 160.574219 63.898438 160.734375 64.425781 160.84375 64.96875 C 160.949219 65.511719 161.003906 66.0625 161.003906 66.617188 L 161.003906 106.023438 C 161.003906 106.578125 160.949219 107.125 160.84375 107.671875 C 160.734375 108.214844 160.574219 108.742188 160.363281 109.253906 C 160.148438 109.765625 159.890625 110.253906 159.582031 110.714844 C 159.273438 111.175781 158.921875 111.601563 158.53125 111.992188 C 158.140625 112.386719 157.714844 112.734375 157.25 113.042969 C 156.789063 113.351563 156.304688 113.613281 155.792969 113.824219 C 155.28125 114.035156 154.75 114.195313 154.207031 114.304688 C 153.664063 114.414063 153.113281 114.46875 152.558594 114.46875 L 11.820313 114.46875 C 11.265625 114.46875 10.71875 114.414063 10.175781 114.304688 C 9.628906 114.195313 9.101563 114.035156 8.589844 113.824219 C 8.078125 113.613281 7.589844 113.351563 7.128906 113.042969 C 6.667969 112.734375 6.242188 112.386719 5.851563 111.992188 C 5.457031 111.601563 5.109375 111.175781 4.800781 110.714844 C 4.492188 110.253906 4.234375 109.765625 4.019531 109.253906 C 3.808594 108.742188 3.648438 108.214844 3.539063 107.671875 C 3.433594 107.125 3.378906 106.578125 3.378906 106.023438 L 3.378906 66.617188 C 3.378906 66.0625 3.433594 65.511719 3.539063 64.96875 C 3.648438 64.425781 3.808594 63.898438 4.019531 63.382813 C 4.234375 62.871094 4.492188 62.386719 4.800781 61.925781 C 5.109375 61.464844 5.457031 61.039063 5.851563 60.644531 C 6.242188 60.253906 6.667969 59.902344 7.128906 59.59375 C 7.589844 59.285156 8.078125 59.027344 8.589844 58.816406 C 9.101563 58.601563 9.628906 58.441406 10.175781 58.335938 C 10.71875 58.226563 11.265625 58.171875 11.820313 58.171875 Z M 11.820313 58.171875 "
     id="path92" />
  <path
     fill-rule="nonzero"
     fill="rgb(0%, 0%, 0%)"
     fill-opacity="1"
     stroke-width="3"
     stroke-linecap="butt"
     stroke-linejoin="miter"
     stroke="rgb(0%, 0%, 0%)"
     stroke-opacity="1"
     stroke-miterlimit="4"
     d="M 333.001677 360.00072 L 362.998301 360.00072 L 362.998301 371.751653 L 333.001677 371.751653 Z M 333.001677 360.00072 "
     transform="matrix(0.750605, 0, 0, 0.750605, 0.375303, 0.375303)"
     id="path94" />
  <path
     fill-rule="nonzero"
     fill="rgb(0%, 0%, 0%)"
     fill-opacity="1"
     stroke-width="3"
     stroke-linecap="butt"
     stroke-linejoin="miter"
     stroke="rgb(0%, 0%, 0%)"
     stroke-opacity="1"
     stroke-miterlimit="4"
     d="M 117.998115 360.00072 L 147.999943 360.00072 L 147.999943 371.751653 L 117.998115 371.751653 Z M 117.998115 360.00072 "
     transform="matrix(0.750605, 0, 0, 0.750605, 0.375303, 0.375303)"
     id="path96" />
  <path
     fill="none"
     stroke-width="4"
     stroke-linecap="butt"
     stroke-linejoin="miter"
     stroke="rgb(0%, 0%, 0%)"
     stroke-opacity="1"
     stroke-miterlimit="4"
     d="M 389.440905 214.441516 C 389.440905 215.336627 389.394068 216.236942 389.305598 217.132053 C 389.222332 218.021959 389.087024 218.911866 388.915288 219.791365 C 388.738347 220.676067 388.519774 221.545158 388.259567 222.40384 C 387.99936 223.267726 387.697521 224.110795 387.348844 224.938252 C 387.005371 225.770914 386.625469 226.582759 386.19873 227.373787 C 385.777195 228.170019 385.314028 228.935027 384.814431 229.684422 C 384.314834 230.433817 383.784012 231.151988 383.211558 231.849341 C 382.639103 232.541491 382.040628 233.20762 381.400519 233.842525 C 380.765615 234.477429 380.10469 235.081108 379.407336 235.653563 C 378.715187 236.220813 377.991812 236.756839 377.242417 237.256436 C 376.498226 237.756033 375.728014 238.213996 374.936986 238.640735 C 374.140753 239.06227 373.328909 239.447376 372.501451 239.790849 C 371.66879 240.134322 370.825721 240.436161 369.967039 240.696368 C 369.103152 240.961779 368.234062 241.175148 367.354564 241.352089 C 366.469861 241.529029 365.585158 241.659133 364.690047 241.747603 C 363.794936 241.836073 362.899826 241.877706 361.999511 241.877706 C 361.099195 241.877706 360.204085 241.836073 359.308974 241.747603 C 358.413863 241.659133 357.52916 241.529029 356.644457 241.352089 C 355.764959 241.175148 354.895869 240.961779 354.031982 240.696368 C 353.1733 240.436161 352.330231 240.134322 351.49757 239.790849 C 350.670112 239.447376 349.858268 239.06227 349.067239 238.640735 C 348.271007 238.213996 347.500795 237.756033 346.756604 237.256436 C 346.007209 236.756839 345.289039 236.220813 344.591685 235.653563 C 343.899535 235.081108 343.233406 234.477429 342.598502 233.842525 C 341.963597 233.20762 341.359918 232.541491 340.787463 231.849341 C 340.220213 231.151988 339.684187 230.433817 339.18459 229.684422 C 338.684993 228.935027 338.221826 228.170019 337.800291 227.373787 C 337.378756 226.582759 336.99365 225.770914 336.650177 224.938252 C 336.306705 224.110795 336.004865 223.267726 335.739454 222.40384 C 335.479247 221.545158 335.260674 220.676067 335.088937 219.791365 C 334.911997 218.911866 334.781893 218.021959 334.693423 217.132053 C 334.604953 216.236942 334.558116 215.336627 334.558116 214.441516 C 334.558116 213.541201 334.604953 212.64609 334.693423 211.750979 C 334.781893 210.855868 334.911997 209.965961 335.088937 209.086463 C 335.260674 208.206964 335.479247 207.33267 335.739454 206.473988 C 336.004865 205.615306 336.306705 204.767032 336.650177 203.939575 C 336.99365 203.106913 337.378756 202.295069 337.800291 201.50404 C 338.221826 200.713012 338.684993 199.9428 339.18459 199.193405 C 339.684187 198.449214 340.220213 197.72584 340.787463 197.03369 C 341.359918 196.336336 341.963597 195.670207 342.598502 195.035303 C 343.233406 194.400398 343.899535 193.796719 344.591685 193.229468 C 345.289039 192.657014 346.007209 192.126192 346.756604 191.626595 C 347.500795 191.126999 348.271007 190.663831 349.067239 190.242296 C 349.858268 189.815557 350.670112 189.430451 351.49757 189.086978 C 352.330231 188.743506 353.1733 188.441666 354.031982 188.181459 C 354.895869 187.921253 355.764959 187.702679 356.644457 187.525738 C 357.52916 187.354002 358.413863 187.218695 359.308974 187.130224 C 360.204085 187.041754 361.099195 187.000121 361.999511 187.000121 C 362.899826 187.000121 363.794936 187.041754 364.690047 187.130224 C 365.585158 187.218695 366.469861 187.354002 367.354564 187.525738 C 368.234062 187.702679 369.103152 187.921253 369.967039 188.181459 C 370.825721 188.441666 371.66879 188.743506 372.501451 189.086978 C 373.328909 189.430451 374.140753 189.815557 374.936986 190.242296 C 375.728014 190.663831 376.498226 191.126999 377.242417 191.626595 C 377.991812 192.126192 378.715187 192.657014 379.407336 193.229468 C 380.10469 193.796719 380.765615 194.400398 381.400519 195.035303 C 382.040628 195.670207 382.639103 196.336336 383.211558 197.03369 C 383.784012 197.72584 384.314834 198.449214 384.814431 199.193405 C 385.314028 199.9428 385.777195 200.713012 386.19873 201.50404 C 386.625469 202.295069 387.005371 203.106913 387.348844 203.939575 C 387.697521 204.767032 387.99936 205.615306 388.259567 206.473988 C 388.519774 207.33267 388.738347 208.206964 388.915288 209.086463 C 389.087024 209.965961 389.222332 210.855868 389.305598 211.750979 C 389.394068 212.64609 389.440905 213.541201 389.440905 214.441516 Z M 389.440905 214.441516 "
     transform="matrix(0.750605, 0, 0, 0.750605, 0, 0)"
     id="path98" />
  <path
     fill="none"
     stroke-width="7"
     stroke-linecap="butt"
     stroke-linejoin="miter"
     stroke="rgb(0%, 0%, 0%)"
     stroke-opacity="1"
     stroke-miterlimit="10"
     d="M 67.128533 49.877976 L 78.879466 49.877976 "
     transform="matrix(0, -0.750605, 0.750605, 0, 17.729296, 92.609689)"
     id="path100" />
  <path
     fill-rule="nonzero"
     fill="rgb(0%, 0%, 0%)"
     fill-opacity="1"
     stroke-width="1"
     stroke-linecap="butt"
     stroke-linejoin="miter"
     stroke="rgb(0%, 0%, 0%)"
     stroke-opacity="1"
     stroke-miterlimit="4"
     d="M 322.000139 128.999652 L 401.998076 128.999652 L 401.998076 187.998911 L 322.000139 187.998911 Z M 322.000139 128.999652 "
     transform="matrix(0.750605, 0, 0, 0.750605, 0.375303, 0.375303)"
     id="path102" />
  <path
     fill-rule="nonzero"
     fill="rgb(0%, 0%, 0%)"
     fill-opacity="1"
     d="M 287.855469 138.488281 C 297.863281 138.488281 302.871094 146.671875 302.871094 163.046875 C 302.871094 179.417969 297.863281 187.605469 287.855469 187.605469 C 292.859375 171.234375 292.859375 154.859375 287.855469 138.488281 Z M 287.855469 138.488281 "
     id="path104" />
  <path
     fill-rule="nonzero"
     fill="rgb(0%, 0%, 0%)"
     fill-opacity="1"
     d="M 256.332031 187.464844 C 246.824219 187.464844 242.070313 178.707031 242.070313 161.191406 C 242.070313 143.679688 246.824219 134.921875 256.332031 134.921875 C 251.578125 152.433594 251.578125 169.949219 256.332031 187.464844 Z M 256.332031 187.464844 "
     id="path106" />
  <path
     fill-rule="nonzero"
     fill="rgb(0%, 0%, 0%)"
     fill-opacity="1"
     d="M 291.460938 131.164063 L 299.449219 140.6875 C 299.695313 140.976563 299.910156 141.289063 300.09375 141.625 C 300.277344 141.957031 300.425781 142.304688 300.539063 142.667969 C 300.652344 143.03125 300.730469 143.402344 300.773438 143.78125 C 300.8125 144.160156 300.816406 144.535156 300.785156 144.917969 C 300.75 145.296875 300.683594 145.667969 300.574219 146.03125 C 300.46875 146.398438 300.328125 146.75 300.152344 147.085938 C 299.976563 147.425781 299.769531 147.742188 299.53125 148.039063 C 299.292969 148.335938 299.027344 148.605469 298.738281 148.851563 C 298.445313 149.09375 298.132813 149.308594 297.800781 149.492188 C 297.464844 149.675781 297.117188 149.824219 296.753906 149.9375 C 296.390625 150.050781 296.019531 150.128906 295.644531 150.171875 C 295.265625 150.210938 294.886719 150.21875 294.507813 150.183594 C 294.128906 150.152344 293.757813 150.082031 293.390625 149.972656 C 293.023438 149.867188 292.675781 149.726563 292.335938 149.550781 C 292 149.375 291.683594 149.167969 291.386719 148.929688 C 291.089844 148.691406 290.816406 148.425781 290.574219 148.136719 L 282.582031 138.613281 C 282.339844 138.324219 282.125 138.011719 281.941406 137.675781 C 281.757813 137.34375 281.609375 136.996094 281.496094 136.632813 C 281.382813 136.269531 281.304688 135.898438 281.261719 135.519531 C 281.21875 135.140625 281.214844 134.761719 281.25 134.382813 C 281.28125 134.003906 281.351563 133.632813 281.460938 133.269531 C 281.566406 132.902344 281.707031 132.550781 281.882813 132.214844 C 282.058594 131.875 282.265625 131.558594 282.503906 131.261719 C 282.742188 130.964844 283.007813 130.695313 283.296875 130.449219 C 283.589844 130.207031 283.902344 129.992188 284.234375 129.808594 C 284.570313 129.625 284.917969 129.476563 285.28125 129.363281 C 285.644531 129.25 286.011719 129.171875 286.390625 129.128906 C 286.769531 129.085938 287.148438 129.082031 287.527344 129.117188 C 287.90625 129.148438 288.277344 129.21875 288.644531 129.324219 C 289.007813 129.433594 289.359375 129.574219 289.699219 129.75 C 290.035156 129.925781 290.351563 130.132813 290.648438 130.371094 C 290.945313 130.609375 291.214844 130.871094 291.460938 131.164063 Z M 291.460938 131.164063 "
     id="path108" />
  <g
     clip-path="url(#clip-7)"
     id="g112">
    <path
       fill="none"
       stroke-width="7"
       stroke-linecap="butt"
       stroke-linejoin="miter"
       stroke="#000000"
       stroke-opacity="1"
       stroke-miterlimit="4"
       d="m 378.92941,177.83001 16.56016,0.003 c 0.50575,-0.004 1.00866,0.0447 1.50873,0.14505 0.49608,0.097 0.97801,0.24319 1.44577,0.43868 0.46776,0.19549 0.91339,0.43354 1.33689,0.71417 0.42015,0.28462 0.80621,0.60176 1.17013,0.96148 0.3566,0.36036 0.67846,0.74592 0.95555,1.16865 0.28442,0.42208 0.52278,0.86666 0.7151,1.33374 0.1963,0.47043 0.34192,0.95267 0.44085,1.45009 0.0989,0.49741 0.14653,0.99931 0.15015,1.50507 -0.004,0.50639 -0.0521,1.0093 -0.14904,1.50538 -0.10031,0.50007 -0.24654,0.982 -0.44203,1.44976 -0.19548,0.46776 -0.43354,0.91339 -0.71082,1.3329 -0.28462,0.42015 -0.60112,0.81354 -0.96148,1.17014 -0.35638,0.35994 -0.74592,0.67845 -1.17199,0.95953 -0.42209,0.28442 -0.86332,0.5188 -1.33375,0.7151 -0.46708,0.19232 -0.94932,0.33794 -1.44674,0.43687 -0.49741,0.0989 -1.00266,0.15051 -1.50507,0.15014 l -16.5635,0.001 c -0.50241,-3.7e-4 -1.00532,-0.0487 -1.50539,-0.14904 -0.49608,-0.097 -0.97801,-0.24319 -1.44577,-0.43868 -0.46776,-0.19549 -0.91339,-0.43355 -1.33689,-0.71417 -0.4235,-0.28063 -0.81354,-0.60112 -1.17013,-0.96148 -0.35994,-0.35637 -0.67846,-0.74592 -0.95555,-1.16865 -0.28442,-0.42208 -0.52279,-0.86666 -0.7151,-1.33374 -0.1963,-0.47043 -0.34193,-0.95267 -0.44085,-1.45009 -0.0989,-0.49741 -0.14654,-0.99931 -0.15015,-1.50507 0.004,-0.50639 0.0521,-1.0093 0.14904,-1.50539 0.10031,-0.50006 0.24654,-0.98199 0.44202,-1.44975 0.19549,-0.46776 0.4302,-0.90941 0.71083,-1.3329 0.28063,-0.4235 0.60112,-0.81355 0.96148,-1.17014 0.35637,-0.35994 0.74592,-0.67845 1.168,-0.96287 0.42273,-0.27709 0.86731,-0.51546 1.33773,-0.71176 0.46709,-0.19232 0.94933,-0.33794 1.44675,-0.43687 0.49741,-0.0989 0.99533,-0.14987 1.50507,-0.15014 z m 0,0"
       transform="matrix(0.48248,0.574997,-0.574997,0.48248,210.88688,-172.51861)"
       id="path110" />
  </g>
  <path
     fill-rule="nonzero"
     fill="rgb(0%, 0%, 0%)"
     fill-opacity="1"
     stroke-width="7"
     stroke-linecap="butt"
     stroke-linejoin="miter"
     stroke="rgb(0%, 0%, 0%)"
     stroke-opacity="1"
     stroke-miterlimit="4"
     d="M 329.723335 174.999963 L 346.282786 174.999963 C 346.786929 175.003643 347.287392 175.047802 347.784176 175.147158 C 348.280959 175.246515 348.766703 175.39371 349.234048 175.588744 C 349.701392 175.783777 350.150337 176.019289 350.569844 176.29896 C 350.99303 176.582311 351.379417 176.90246 351.740045 177.263088 C 352.096993 177.620036 352.417142 178.006424 352.700493 178.429609 C 352.983844 178.852795 353.215676 179.298061 353.410709 179.765405 C 353.605743 180.23275 353.752938 180.718494 353.852295 181.215277 C 353.951651 181.712061 353.99949 182.216204 354.00317 182.720347 C 353.99949 183.224491 353.951651 183.728634 353.852295 184.225417 C 353.752938 184.722201 353.605743 185.207945 353.410709 185.675289 C 353.215676 186.142634 352.980164 186.584219 352.696813 187.007405 C 352.420822 187.430591 352.096993 187.820658 351.740045 188.177606 C 351.379417 188.538234 350.98935 188.854704 350.566164 189.138055 C 350.146658 189.417725 349.701392 189.656917 349.234048 189.851951 C 348.766703 190.046984 348.284639 190.1905 347.787856 190.289856 C 347.291072 190.389213 346.786929 190.437051 346.282786 190.440731 L 329.719655 190.437051 C 329.215511 190.440731 328.711368 190.392893 328.214585 190.293536 C 327.717801 190.19418 327.232057 190.046984 326.764713 189.851951 C 326.297368 189.656917 325.852103 189.417725 325.432597 189.138055 C 325.009411 188.854704 324.619344 188.538234 324.258716 188.177606 C 323.901768 187.820658 323.585298 187.430591 323.301947 187.007405 C 323.022277 186.587899 322.783085 186.142634 322.588051 185.675289 C 322.393018 185.207945 322.245822 184.722201 322.146466 184.225417 C 322.047109 183.728634 321.999271 183.224491 322.002951 182.720347 C 322.002951 182.212524 322.047109 181.712061 322.146466 181.215277 C 322.245822 180.718494 322.393018 180.23275 322.588051 179.765405 C 322.783085 179.298061 323.022277 178.852795 323.301947 178.433289 C 323.585298 178.010103 323.901768 177.620036 324.262396 177.259408 C 324.619344 176.90246 325.009411 176.585991 325.432597 176.30264 C 325.855783 176.019289 326.297368 175.783777 326.764713 175.588744 C 327.232057 175.39371 327.717801 175.246515 328.214585 175.147158 C 328.711368 175.047802 329.215511 174.999963 329.723335 174.999963 Z M 329.723335 174.999963 "
     transform="matrix(-0.530758, 0.530758, -0.530758, -0.530758, 530.456282, 55.109789)"
     id="path114" />
  <path
     fill-rule="nonzero"
     fill="rgb(0%, 0%, 0%)"
     fill-opacity="1"
     stroke-width="1"
     stroke-linecap="butt"
     stroke-linejoin="miter"
     stroke="rgb(0%, 0%, 0%)"
     stroke-opacity="1"
     stroke-miterlimit="4"
     d="M 367.499611 234.000691 L 400.497838 234.00017 L 400.501308 254.999507 L 367.503082 255.000028 Z M 367.499611 234.000691 "
     transform="matrix(-0.61486, 0.43053, -0.43053, -0.61486, 629.978422, 168.908211)"
     id="path116" />
  <path
     fill-rule="nonzero"
     fill="rgb(0%, 0%, 0%)"
     fill-opacity="1"
     stroke-width="1"
     stroke-linecap="butt"
     stroke-linejoin="miter"
     stroke="rgb(0%, 0%, 0%)"
     stroke-opacity="1"
     stroke-miterlimit="4"
     d="M 327.000913 235.998701 L 359.999518 236.00217 L 360.000698 256.997687 L 327.000188 257.001328 Z M 327.000913 235.998701 "
     transform="matrix(-0.650043, -0.375303, 0.375303, -0.650043, 388.985989, 474.551644)"
     id="path118" />
</svg>
