<?xml version="1.0" encoding="UTF-8" standalone="no"?>
<svg
   width="311.03998pt"
   height="282.95999pt"
   viewBox="0 0 311.03998 282.95999"
   version="1.1"
   id="svg129"
   xmlns="http://www.w3.org/2000/svg"
   xmlnsSvg="http://www.w3.org/2000/svg">
  <defs
     id="defs29">
    <clipPath
       id="clip-0">
      <path
         clip-rule="nonzero"
         d="M 203 0 L 311 0 L 311 108 L 203 108 Z M 203 0 "
         id="path2" />
    </clipPath>
    <clipPath
       id="clip-1">
      <path
         clip-rule="nonzero"
         d="M 209 0 L 311 0 L 311 178 L 209 178 Z M 209 0 "
         id="path5" />
    </clipPath>
    <clipPath
       id="clip-2">
      <path
         clip-rule="nonzero"
         d="M 191 12 L 311 12 L 311 157 L 191 157 Z M 191 12 "
         id="path8" />
    </clipPath>
    <clipPath
       id="clip-3">
      <path
         clip-rule="nonzero"
         d="M 233 44 L 311 44 L 311 124 L 233 124 Z M 233 44 "
         id="path11" />
    </clipPath>
    <clipPath
       id="clip-4">
      <path
         clip-rule="nonzero"
         d="M 203 171 L 311 171 L 311 281.703125 L 203 281.703125 Z M 203 171 "
         id="path14" />
    </clipPath>
    <clipPath
       id="clip-5">
      <path
         clip-rule="nonzero"
         d="M 0 171 L 157 171 L 157 281.703125 L 0 281.703125 Z M 0 171 "
         id="path17" />
    </clipPath>
    <clipPath
       id="clip-6">
      <path
         clip-rule="nonzero"
         d="M 0 172 L 311 172 L 311 281.703125 L 0 281.703125 Z M 0 172 "
         id="path20" />
    </clipPath>
    <clipPath
       id="clip-7">
      <path
         clip-rule="nonzero"
         d="M 231 119 L 311 119 L 311 204 L 231 204 Z M 231 119 "
         id="path23" />
    </clipPath>
    <clipPath
       id="clip-8">
      <path
         clip-rule="nonzero"
         d="M 252 99 L 311 99 L 311 181 L 252 181 Z M 252 99 "
         id="path26" />
    </clipPath>
  </defs>
  <path
     fill-rule="nonzero"
     fill="rgb(100%, 100%, 100%)"
     fill-opacity="1"
     d="M 77.9375 130.289063 L 218.789063 130.289063 C 219.34375 130.289063 219.894531 130.34375 220.4375 130.453125 C 220.980469 130.558594 221.511719 130.71875 222.023438 130.933594 C 222.535156 131.144531 223.023438 131.40625 223.484375 131.714844 C 223.945313 132.023438 224.371094 132.371094 224.765625 132.765625 C 225.15625 133.15625 225.507813 133.585938 225.816406 134.046875 C 226.125 134.507813 226.382813 134.992188 226.597656 135.507813 C 226.808594 136.019531 226.96875 136.546875 227.078125 137.09375 C 227.1875 137.636719 227.242188 138.1875 227.242188 138.742188 L 227.242188 178.179688 C 227.242188 178.734375 227.1875 179.285156 227.078125 179.828125 C 226.96875 180.371094 226.808594 180.898438 226.597656 181.414063 C 226.382813 181.925781 226.125 182.414063 225.816406 182.875 C 225.507813 183.335938 225.15625 183.761719 224.765625 184.15625 C 224.371094 184.546875 223.945313 184.898438 223.484375 185.207031 C 223.023438 185.515625 222.535156 185.773438 222.023438 185.988281 C 221.511719 186.199219 220.980469 186.359375 220.4375 186.46875 C 219.894531 186.574219 219.34375 186.628906 218.789063 186.628906 L 77.9375 186.628906 C 77.382813 186.628906 76.832031 186.574219 76.289063 186.46875 C 75.746094 186.359375 75.214844 186.199219 74.703125 185.988281 C 74.191406 185.773438 73.703125 185.515625 73.242188 185.207031 C 72.78125 184.898438 72.355469 184.546875 71.960938 184.15625 C 71.570313 183.761719 71.21875 183.335938 70.910156 182.875 C 70.601563 182.414063 70.34375 181.925781 70.128906 181.414063 C 69.917969 180.898438 69.757813 180.371094 69.648438 179.828125 C 69.539063 179.285156 69.488281 178.734375 69.488281 178.179688 L 69.488281 138.742188 C 69.488281 138.1875 69.539063 137.636719 69.648438 137.09375 C 69.757813 136.546875 69.917969 136.019531 70.128906 135.507813 C 70.34375 134.992188 70.601563 134.507813 70.910156 134.046875 C 71.21875 133.585938 71.570313 133.15625 71.960938 132.765625 C 72.355469 132.371094 72.78125 132.023438 73.242188 131.714844 C 73.703125 131.40625 74.191406 131.144531 74.703125 130.933594 C 75.214844 130.71875 75.746094 130.558594 76.289063 130.453125 C 76.832031 130.34375 77.382813 130.289063 77.9375 130.289063 Z M 77.9375 130.289063 "
     id="path31" />
  <path
     fill="none"
     stroke-width="7"
     stroke-linecap="butt"
     stroke-linejoin="miter"
     stroke="rgb(100%, 100%, 100%)"
     stroke-opacity="1"
     stroke-miterlimit="10"
     d="M 73.99983 44.001259 C 73.99983 24.667807 89.67251 9.000327 109.000762 9.000327 "
     transform="matrix(0.751208, 0, 0, 0.751208, 0.375604, 0.375604)"
     id="path33" />
  <path
     fill="none"
     stroke-width="7"
     stroke-linecap="butt"
     stroke-linejoin="miter"
     stroke="rgb(100%, 100%, 100%)"
     stroke-opacity="1"
     stroke-miterlimit="10"
     d="M 73.99983 52.248396 L 329.000678 52.248396 "
     transform="matrix(0.751208, 0, 0, 0.751208, 0.375604, 0.375604)"
     id="path35" />
  <g
     clip-path="url(#clip-0)"
     id="g39">
    <path
       fill="none"
       stroke-width="7"
       stroke-linecap="butt"
       stroke-linejoin="miter"
       stroke="#ffffff"
       stroke-opacity="1"
       stroke-miterlimit="10"
       d="m 334.00033,44.00124 c 0,-19.333452 15.66748,-35.000932 35.00093,-35.000932"
       transform="matrix(0,0.751208,-0.751208,0,310.62438,-243.76689)"
       id="path37" />
  </g>
  <path
     fill="none"
     stroke-width="7"
     stroke-linecap="butt"
     stroke-linejoin="miter"
     stroke="rgb(100%, 100%, 100%)"
     stroke-opacity="1"
     stroke-miterlimit="10"
     d="M 108.501566 9.000327 L 369.497968 9.000327 "
     transform="matrix(0.751208, 0, 0, 0.751208, 0.375604, 0.375604)"
     id="path41" />
  <path
     fill-rule="nonzero"
     fill="rgb(100%, 100%, 100%)"
     fill-opacity="1"
     d="M 73.527344 9.390625 L 286.300781 9.390625 C 286.960938 9.390625 287.613281 9.453125 288.261719 9.582031 C 288.910156 9.710938 289.535156 9.902344 290.148438 10.15625 C 290.757813 10.40625 291.335938 10.71875 291.882813 11.082031 C 292.433594 11.449219 292.941406 11.867188 293.40625 12.332031 C 293.875 12.800781 294.289063 13.308594 294.65625 13.855469 C 295.023438 14.402344 295.332031 14.984375 295.585938 15.59375 C 295.839844 16.203125 296.03125 16.832031 296.160156 17.476563 C 296.285156 18.125 296.351563 18.777344 296.351563 19.4375 C 296.351563 20.097656 296.285156 20.75 296.160156 21.398438 C 296.03125 22.042969 295.839844 22.671875 295.585938 23.28125 C 295.332031 23.890625 295.023438 24.472656 294.65625 25.019531 C 294.289063 25.566406 293.875 26.074219 293.40625 26.542969 C 292.941406 27.007813 292.433594 27.425781 291.882813 27.792969 C 291.335938 28.15625 290.757813 28.46875 290.148438 28.71875 C 289.535156 28.972656 288.910156 29.164063 288.261719 29.292969 C 287.613281 29.421875 286.960938 29.484375 286.300781 29.484375 L 73.527344 29.484375 C 72.867188 29.484375 72.214844 29.421875 71.566406 29.292969 C 70.921875 29.164063 70.292969 28.972656 69.683594 28.71875 C 69.070313 28.46875 68.492188 28.15625 67.945313 27.792969 C 67.394531 27.425781 66.886719 27.007813 66.421875 26.542969 C 65.953125 26.074219 65.539063 25.566406 65.171875 25.019531 C 64.804688 24.472656 64.496094 23.890625 64.242188 23.28125 C 63.988281 22.671875 63.800781 22.042969 63.671875 21.398438 C 63.542969 20.75 63.476563 20.097656 63.476563 19.4375 C 63.476563 18.777344 63.542969 18.125 63.671875 17.476563 C 63.800781 16.832031 63.988281 16.203125 64.242188 15.59375 C 64.496094 14.984375 64.804688 14.402344 65.171875 13.855469 C 65.539063 13.308594 65.953125 12.800781 66.421875 12.332031 C 66.886719 11.867188 67.394531 11.449219 67.945313 11.082031 C 68.492188 10.71875 69.070313 10.40625 69.683594 10.15625 C 70.292969 9.902344 70.921875 9.710938 71.566406 9.582031 C 72.214844 9.453125 72.867188 9.390625 73.527344 9.390625 Z M 73.527344 9.390625 "
     id="path43" />
  <path
     fill-rule="nonzero"
     fill="rgb(100%, 100%, 100%)"
     fill-opacity="1"
     d="M 59.609375 19.15625 L 299.46875 19.15625 C 299.902344 19.15625 300.320313 19.238281 300.71875 19.40625 C 301.121094 19.570313 301.472656 19.804688 301.78125 20.113281 C 302.085938 20.417969 302.320313 20.773438 302.488281 21.171875 C 302.652344 21.574219 302.738281 21.988281 302.738281 22.421875 L 302.738281 37.671875 C 302.738281 38.105469 302.652344 38.523438 302.488281 38.921875 C 302.320313 39.324219 302.085938 39.675781 301.78125 39.984375 C 301.472656 40.289063 301.121094 40.527344 300.71875 40.691406 C 300.320313 40.859375 299.902344 40.941406 299.46875 40.941406 L 59.609375 40.941406 C 59.175781 40.941406 58.757813 40.859375 58.359375 40.691406 C 57.957031 40.527344 57.605469 40.289063 57.296875 39.984375 C 56.992188 39.675781 56.753906 39.324219 56.589844 38.921875 C 56.421875 38.523438 56.339844 38.105469 56.339844 37.671875 L 56.339844 22.421875 C 56.339844 21.988281 56.421875 21.574219 56.589844 21.171875 C 56.753906 20.773438 56.992188 20.417969 57.296875 20.113281 C 57.605469 19.804688 57.957031 19.570313 58.359375 19.40625 C 58.757813 19.238281 59.175781 19.15625 59.609375 19.15625 Z M 59.609375 19.15625 "
     id="path45" />
  <path
     fill-rule="nonzero"
     fill="rgb(100%, 100%, 100%)"
     fill-opacity="1"
     d="M 249.175781 35.871094 L 298.453125 35.871094 C 298.808594 35.871094 299.160156 35.90625 299.511719 35.972656 C 299.859375 36.042969 300.195313 36.144531 300.523438 36.28125 C 300.851563 36.417969 301.164063 36.585938 301.460938 36.78125 C 301.753906 36.980469 302.027344 37.203125 302.28125 37.453125 C 302.53125 37.707031 302.753906 37.980469 302.953125 38.273438 C 303.148438 38.570313 303.316406 38.882813 303.453125 39.210938 C 303.585938 39.539063 303.691406 39.875 303.757813 40.222656 C 303.828125 40.570313 303.863281 40.921875 303.863281 41.277344 L 303.863281 66.519531 C 303.863281 66.875 303.828125 67.226563 303.757813 67.574219 C 303.691406 67.921875 303.585938 68.261719 303.453125 68.589844 C 303.316406 68.917969 303.148438 69.230469 302.953125 69.523438 C 302.753906 69.820313 302.53125 70.09375 302.28125 70.34375 C 302.027344 70.59375 301.753906 70.820313 301.460938 71.015625 C 301.164063 71.214844 300.851563 71.378906 300.523438 71.515625 C 300.195313 71.652344 299.859375 71.753906 299.511719 71.824219 C 299.160156 71.894531 298.808594 71.929688 298.453125 71.929688 L 249.175781 71.929688 C 248.820313 71.929688 248.46875 71.894531 248.121094 71.824219 C 247.773438 71.753906 247.433594 71.652344 247.105469 71.515625 C 246.777344 71.378906 246.464844 71.214844 246.171875 71.015625 C 245.875 70.820313 245.601563 70.59375 245.351563 70.34375 C 245.101563 70.09375 244.875 69.820313 244.679688 69.523438 C 244.480469 69.230469 244.316406 68.917969 244.179688 68.589844 C 244.042969 68.261719 243.941406 67.921875 243.871094 67.574219 C 243.800781 67.226563 243.765625 66.875 243.765625 66.519531 L 243.765625 41.277344 C 243.765625 40.921875 243.800781 40.570313 243.871094 40.222656 C 243.941406 39.875 244.042969 39.539063 244.179688 39.210938 C 244.316406 38.882813 244.480469 38.570313 244.679688 38.273438 C 244.875 37.980469 245.101563 37.707031 245.351563 37.453125 C 245.601563 37.203125 245.875 36.980469 246.171875 36.78125 C 246.464844 36.585938 246.777344 36.417969 247.105469 36.28125 C 247.433594 36.144531 247.773438 36.042969 248.121094 35.972656 C 248.46875 35.90625 248.820313 35.871094 249.175781 35.871094 Z M 249.175781 35.871094 "
     id="path47" />
  <path
     fill-rule="nonzero"
     fill="rgb(100%, 100%, 100%)"
     fill-opacity="1"
     d="M 284.332031 65.730469 C 296.601563 65.730469 302.738281 71.992188 302.738281 84.511719 C 302.738281 97.03125 296.601563 103.292969 284.332031 103.292969 C 290.46875 90.769531 290.46875 78.25 284.332031 65.730469 Z M 284.332031 65.730469 "
     id="path49" />
  <g
     clip-path="url(#clip-1)"
     id="g53">
    <path
       fill="none"
       stroke-width="7"
       stroke-linecap="butt"
       stroke-linejoin="miter"
       stroke="#ffffff"
       stroke-opacity="1"
       stroke-miterlimit="10"
       d="m 377.9999,86.99973 c 16.33308,0 24.50221,8.335536 24.50221,25.00141 0,16.66587 -8.16913,25.00141 -24.50221,25.00141 8.16914,-16.67108 8.16914,-33.33695 0,-50.00282 z m 0,0"
       transform="matrix(0.751208,0,0,0.751208,0.375604,0.375604)"
       id="path51" />
  </g>
  <path
     fill-rule="nonzero"
     fill="rgb(100%, 100%, 100%)"
     fill-opacity="1"
     d="M 264.800781 103.292969 C 251.277344 103.292969 244.519531 97.03125 244.519531 84.511719 C 244.519531 71.992188 251.277344 65.730469 264.800781 65.730469 C 258.039063 78.25 258.039063 90.769531 264.800781 103.292969 Z M 264.800781 103.292969 "
     id="path55" />
  <g
     clip-path="url(#clip-2)"
     id="g59">
    <path
       fill="none"
       stroke-width="5"
       stroke-linecap="butt"
       stroke-linejoin="miter"
       stroke="#ffffff"
       stroke-opacity="1"
       stroke-miterlimit="10"
       d="m 324.99988,86.99745 c 18.00226,0 26.9982,8.335537 26.9982,25.00141 0,16.66587 -8.99594,25.00141 -26.9982,25.00141 9.00113,-16.66587 9.00113,-33.33175 0,-50.00282 z m 0,0"
       transform="matrix(-0.751208,0,0,-0.751208,508.94319,168.64612)"
       id="path57" />
  </g>
  <path
     fill-rule="nonzero"
     fill="rgb(0%, 0%, 0%)"
     fill-opacity="1"
     d="M 287.710938 84.136719 C 287.710938 85.074219 287.621094 86 287.4375 86.917969 C 287.253906 87.839844 286.984375 88.730469 286.625 89.597656 C 286.265625 90.464844 285.828125 91.285156 285.308594 92.066406 C 284.785156 92.84375 284.195313 93.566406 283.53125 94.226563 C 282.871094 94.890625 282.148438 95.480469 281.371094 96.003906 C 280.589844 96.523438 279.765625 96.964844 278.902344 97.320313 C 278.035156 97.679688 277.144531 97.949219 276.222656 98.132813 C 275.304688 98.316406 274.375 98.40625 273.441406 98.410156 C 272.503906 98.40625 271.574219 98.316406 270.65625 98.132813 C 269.734375 97.949219 268.84375 97.679688 267.976563 97.320313 C 267.113281 96.964844 266.289063 96.523438 265.511719 96.003906 C 264.730469 95.480469 264.007813 94.890625 263.347656 94.226563 C 262.683594 93.566406 262.09375 92.84375 261.570313 92.066406 C 261.050781 91.285156 260.613281 90.464844 260.253906 89.597656 C 259.894531 88.730469 259.625 87.839844 259.441406 86.917969 C 259.257813 86 259.167969 85.074219 259.167969 84.136719 C 259.167969 83.199219 259.257813 82.269531 259.441406 81.351563 C 259.625 80.429688 259.894531 79.539063 260.253906 78.671875 C 260.613281 77.808594 261.050781 76.984375 261.570313 76.207031 C 262.09375 75.425781 262.683594 74.707031 263.347656 74.042969 C 264.007813 73.378906 264.730469 72.789063 265.511719 72.269531 C 266.289063 71.746094 267.113281 71.308594 267.976563 70.949219 C 268.84375 70.589844 269.734375 70.320313 270.65625 70.136719 C 271.574219 69.953125 272.503906 69.863281 273.441406 69.863281 C 274.375 69.863281 275.304688 69.953125 276.222656 70.136719 C 277.144531 70.320313 278.035156 70.589844 278.902344 70.949219 C 279.765625 71.308594 280.589844 71.746094 281.371094 72.269531 C 282.148438 72.789063 282.871094 73.378906 283.53125 74.042969 C 284.195313 74.707031 284.785156 75.425781 285.308594 76.207031 C 285.828125 76.984375 286.265625 77.808594 286.625 78.671875 C 286.984375 79.539063 287.253906 80.429688 287.4375 81.351563 C 287.621094 82.269531 287.710938 83.199219 287.710938 84.136719 Z M 287.710938 84.136719 "
     id="path61" />
  <g
     clip-path="url(#clip-3)"
     id="g65">
    <path
       fill="none"
       stroke-width="6"
       stroke-linecap="butt"
       stroke-linejoin="miter"
       stroke="#ffffff"
       stroke-opacity="1"
       stroke-miterlimit="4"
       d="m 382.99787,112.00194 c 0,1.24799 -0.1196,2.48038 -0.364,3.70237 -0.2444,1.2272 -0.60319,2.41279 -1.08159,3.56718 -0.4784,1.15439 -1.06079,2.24638 -1.75239,3.28637 -0.69679,1.03479 -1.48199,1.99679 -2.36598,2.87558 -0.87879,0.88399 -1.84079,1.66919 -2.87558,2.36598 -1.03999,0.6916 -2.13718,1.27919 -3.28637,1.75239 -1.15439,0.47839 -2.33998,0.83719 -3.56717,1.08159 -1.222,0.2444 -2.45959,0.364 -3.70238,0.3692 -1.24799,-0.005 -2.48558,-0.1248 -3.70757,-0.3692 -1.22719,-0.2444 -2.41278,-0.6032 -3.56717,-1.08159 -1.14919,-0.4732 -2.24638,-1.06079 -3.28117,-1.75239 -1.04,-0.69679 -2.00199,-1.48199 -2.88078,-2.36598 -0.884,-0.87879 -1.66919,-1.84079 -2.36599,-2.87558 -0.69159,-1.03999 -1.27399,-2.13198 -1.75238,-3.28637 -0.4784,-1.15439 -0.83719,-2.33998 -1.08159,-3.56718 -0.2444,-1.22199 -0.364,-2.45438 -0.364,-3.70237 0,-1.24799 0.1196,-2.48558 0.364,-3.70757 0.2444,-1.22719 0.60319,-2.41278 1.08159,-3.56717 0.47839,-1.14919 1.06079,-2.24638 1.75238,-3.28118 0.6968,-1.03999 1.48199,-1.996781 2.36599,-2.880774 0.87879,-0.883994 1.84078,-1.669188 2.88078,-2.360782 1.03479,-0.696795 2.13198,-1.279191 3.28117,-1.757587 1.15439,-0.478396 2.33998,-0.837193 3.56717,-1.081592 1.22199,-0.244398 2.45958,-0.363997 3.70757,-0.363997 1.24279,0 2.48038,0.119599 3.70238,0.363997 1.22719,0.244399 2.41278,0.603196 3.56717,1.081592 1.14919,0.478396 2.24638,1.060792 3.28637,1.757587 1.03479,0.691594 1.99679,1.476788 2.87558,2.360782 0.88399,0.883993 1.66919,1.840784 2.36598,2.880774 0.6916,1.0348 1.27399,2.13199 1.75239,3.28118 0.4784,1.15439 0.83719,2.33998 1.08159,3.56717 0.2444,1.22199 0.364,2.45958 0.364,3.70757 z m 0,0"
       transform="scale(0.751208)"
       id="path63" />
  </g>
  <g
     clip-path="url(#clip-4)"
     id="g69">
    <path
       fill="none"
       stroke-width="7"
       stroke-linecap="butt"
       stroke-linejoin="miter"
       stroke="#ffffff"
       stroke-opacity="1"
       stroke-miterlimit="10"
       d="m 334.00026,326.50051 c 0,-19.32825 15.66748,-35.00093 35.00093,-35.00093"
       transform="matrix(-0.751208,0,0,-0.751208,554.76684,490.91422)"
       id="path67" />
  </g>
  <path
     fill="none"
     stroke-width="7"
     stroke-linecap="butt"
     stroke-linejoin="miter"
     stroke="rgb(100%, 100%, 100%)"
     stroke-opacity="1"
     stroke-miterlimit="10"
     d="M 73.999305 269.001635 L 329.000153 269.001635 "
     transform="matrix(-0.751208, 0, 0, -0.751208, 303.112283, 404.525311)"
     id="path71" />
  <g
     clip-path="url(#clip-5)"
     id="g75">
    <path
       fill="none"
       stroke-width="7"
       stroke-linecap="butt"
       stroke-linejoin="miter"
       stroke="#ffffff"
       stroke-opacity="1"
       stroke-miterlimit="10"
       d="m 73.999563,326.50077 c 0,-19.32826 15.67268,-35.00094 35.000937,-35.00094"
       transform="matrix(0,-0.751208,0.751208,0,-163.01207,327.52654)"
       id="path73" />
  </g>
  <path
     fill="none"
     stroke-width="7"
     stroke-linecap="butt"
     stroke-linejoin="miter"
     stroke="rgb(100%, 100%, 100%)"
     stroke-opacity="1"
     stroke-miterlimit="10"
     d="M 262.001299 184.999703 L 546.002326 184.999703 "
     transform="matrix(0, -0.751208, 0.751208, 0, 164.890085, 442.836918)"
     id="path77" />
  <path
     fill="none"
     stroke-width="7"
     stroke-linecap="butt"
     stroke-linejoin="miter"
     stroke="rgb(100%, 100%, 100%)"
     stroke-opacity="1"
     stroke-miterlimit="10"
     d="M 42.249337 297.249833 L 105.751251 297.249833 "
     transform="matrix(0, -0.751208, 0.751208, 0, -167.331511, 279.261464)"
     id="path79" />
  <path
     fill="none"
     stroke-width="7"
     stroke-linecap="butt"
     stroke-linejoin="miter"
     stroke="rgb(100%, 100%, 100%)"
     stroke-opacity="1"
     stroke-miterlimit="10"
     d="M 108.502026 361.499531 L 369.498428 361.499531 "
     transform="matrix(-0.751208, 0, 0, -0.751208, 359.452867, 543.498721)"
     id="path81" />
  <path
     fill-rule="nonzero"
     fill="rgb(100%, 100%, 100%)"
     fill-opacity="1"
     stroke-width="1"
     stroke-linecap="butt"
     stroke-linejoin="miter"
     stroke="rgb(100%, 100%, 100%)"
     stroke-opacity="1"
     stroke-miterlimit="4"
     d="M 323.998316 244.002129 L 403.999704 244.002129 L 403.999704 274.000699 L 323.998316 274.000699 Z M 323.998316 244.002129 "
     transform="matrix(0.751208, 0, 0, 0.751208, 0.375604, 0.375604)"
     id="path83" />
  <path
     fill-rule="nonzero"
     fill="rgb(100%, 100%, 100%)"
     fill-opacity="1"
     d="M 55.214844 201.324219 L 303.863281 201.324219 L 303.863281 253.15625 L 55.214844 253.15625 Z M 55.214844 201.324219 "
     id="path85" />
  <path
     fill-rule="nonzero"
     fill="rgb(100%, 100%, 100%)"
     fill-opacity="1"
     d="M 73.152344 244.332031 L 285.925781 244.332031 C 286.585938 244.332031 287.238281 244.394531 287.886719 244.523438 C 288.53125 244.652344 289.160156 244.84375 289.769531 245.09375 C 290.378906 245.347656 290.960938 245.65625 291.507813 246.023438 C 292.058594 246.390625 292.566406 246.804688 293.03125 247.273438 C 293.5 247.738281 293.914063 248.246094 294.28125 248.796875 C 294.648438 249.34375 294.957031 249.921875 295.210938 250.53125 C 295.464844 251.140625 295.652344 251.769531 295.78125 252.417969 C 295.910156 253.066406 295.976563 253.71875 295.976563 254.378906 C 295.976563 255.039063 295.910156 255.691406 295.78125 256.335938 C 295.652344 256.984375 295.464844 257.613281 295.210938 258.222656 C 294.957031 258.832031 294.648438 259.410156 294.28125 259.960938 C 293.914063 260.507813 293.5 261.015625 293.03125 261.480469 C 292.566406 261.949219 292.058594 262.367188 291.507813 262.730469 C 290.960938 263.097656 290.378906 263.40625 289.769531 263.660156 C 289.160156 263.914063 288.53125 264.101563 287.886719 264.230469 C 287.238281 264.359375 286.585938 264.425781 285.925781 264.425781 L 73.152344 264.425781 C 72.492188 264.425781 71.839844 264.359375 71.191406 264.230469 C 70.542969 264.101563 69.914063 263.914063 69.304688 263.660156 C 68.695313 263.40625 68.117188 263.097656 67.570313 262.730469 C 67.019531 262.367188 66.511719 261.949219 66.046875 261.480469 C 65.578125 261.015625 65.160156 260.507813 64.796875 259.960938 C 64.429688 259.410156 64.117188 258.832031 63.867188 258.222656 C 63.613281 257.613281 63.421875 256.984375 63.292969 256.335938 C 63.164063 255.691406 63.101563 255.039063 63.101563 254.378906 C 63.101563 253.71875 63.164063 253.066406 63.292969 252.417969 C 63.421875 251.769531 63.613281 251.140625 63.867188 250.53125 C 64.117188 249.921875 64.429688 249.34375 64.796875 248.796875 C 65.160156 248.246094 65.578125 247.738281 66.046875 247.273438 C 66.511719 246.804688 67.019531 246.390625 67.570313 246.023438 C 68.117188 245.65625 68.695313 245.347656 69.304688 245.09375 C 69.914063 244.84375 70.542969 244.652344 71.191406 244.523438 C 71.839844 244.394531 72.492188 244.332031 73.152344 244.332031 Z M 73.152344 244.332031 "
     id="path87" />
  <g
     clip-path="url(#clip-6)"
     id="g91">
    <path
       fill="none"
       stroke-width="17"
       stroke-linecap="butt"
       stroke-linejoin="miter"
       stroke="#ffffff"
       stroke-opacity="1"
       stroke-miterlimit="4"
       d="M 96.879655,324.75231 H 380.12149 c 0.87879,0 1.74718,0.0832 2.61038,0.2548 0.85799,0.1716 1.69518,0.4264 2.50638,0.75919 0.81119,0.338 1.58598,0.7488 2.31398,1.23759 0.73319,0.4888 1.40919,1.03999 2.02798,1.66399 0.624,0.6188 1.17519,1.29479 1.66399,2.02799 0.4888,0.72799 0.89959,1.49758 1.23759,2.30878 0.338,0.81119 0.5876,1.64838 0.7592,2.51158 0.17159,0.86319 0.25999,1.73158 0.25999,2.61038 0,0.87879 -0.0884,1.74718 -0.25999,2.60518 -0.1716,0.86319 -0.4212,1.70038 -0.7592,2.51158 -0.338,0.81119 -0.74879,1.58079 -1.23759,2.31398 -0.4888,0.728 -1.03999,1.40399 -1.66399,2.02279 -0.61879,0.62399 -1.29479,1.18039 -2.02798,1.66398 -0.728,0.4888 -1.50279,0.8996 -2.31398,1.23759 -0.8112,0.338 -1.64839,0.5876 -2.50638,0.7592 -0.8632,0.1716 -1.73159,0.26 -2.61038,0.26 H 96.879655 c -0.878794,0 -1.747187,-0.0884 -2.61038,-0.26 -0.863194,-0.1716 -1.700387,-0.4212 -2.511581,-0.7592 -0.811194,-0.33799 -1.580788,-0.74879 -2.308782,-1.23759 -0.733195,-0.48359 -1.40919,-1.03999 -2.027985,-1.66398 -0.623995,-0.6188 -1.180391,-1.29479 -1.663987,-2.02279 -0.488796,-0.73319 -0.904793,-1.50279 -1.237591,-2.31398 -0.337997,-0.8112 -0.592795,-1.64839 -0.764394,-2.51158 -0.171599,-0.858 -0.254798,-1.72639 -0.254798,-2.60518 0,-0.8788 0.0832,-1.74719 0.254798,-2.61038 0.171599,-0.8632 0.426397,-1.70039 0.764394,-2.51158 0.332798,-0.8112 0.748795,-1.58079 1.237591,-2.30878 0.483596,-0.7332 1.039992,-1.40919 1.663987,-2.02799 0.618795,-0.624 1.29479,-1.17519 2.027985,-1.66399 0.727994,-0.48879 1.497588,-0.89959 2.308782,-1.23759 0.811194,-0.33279 1.648387,-0.58759 2.511581,-0.75919 0.863193,-0.1716 1.731586,-0.2548 2.61038,-0.2548 z m 0,0"
       transform="matrix(0.751208,0,0,0.751208,0.375604,0.375604)"
       id="path89" />
  </g>
  <path
     fill="none"
     stroke-width="7"
     stroke-linecap="butt"
     stroke-linejoin="miter"
     stroke="rgb(100%, 100%, 100%)"
     stroke-opacity="1"
     stroke-miterlimit="10"
     d="M 217.252041 161.001116 L 433.752384 161.001116 "
     transform="matrix(0, -0.751208, 0.751208, 0, 123.949257, 365.838119)"
     id="path93" />
  <path
     fill-rule="nonzero"
     fill="rgb(100%, 100%, 100%)"
     fill-opacity="1"
     stroke-width="5"
     stroke-linecap="butt"
     stroke-linejoin="miter"
     stroke="rgb(100%, 100%, 100%)"
     stroke-opacity="1"
     stroke-miterlimit="10"
     d="M 233.997405 104.588533 L 277.198675 104.588533 L 277.198675 92.249028 L 303.999269 113.501265 L 277.198675 134.748303 L 277.198675 122.408797 L 233.997405 122.408797 Z M 233.997405 104.588533 "
     transform="matrix(0.751208, 0, 0, -0.751208, 0.375604, 170.89974)"
     id="path95" />
  <path
     fill-rule="nonzero"
     fill="rgb(100%, 100%, 100%)"
     fill-opacity="1"
     d="M 11.832031 57.46875 L 152.683594 57.46875 C 153.238281 57.46875 153.789063 57.523438 154.332031 57.628906 C 154.875 57.738281 155.40625 57.898438 155.917969 58.109375 C 156.429688 58.324219 156.917969 58.582031 157.378906 58.890625 C 157.839844 59.199219 158.265625 59.550781 158.660156 59.941406 C 159.050781 60.335938 159.402344 60.761719 159.710938 61.222656 C 160.019531 61.683594 160.277344 62.171875 160.492188 62.683594 C 160.703125 63.195313 160.863281 63.726563 160.972656 64.269531 C 161.078125 64.8125 161.132813 65.363281 161.132813 65.917969 L 161.132813 105.355469 C 161.132813 105.910156 161.078125 106.460938 160.972656 107.003906 C 160.863281 107.550781 160.703125 108.078125 160.492188 108.589844 C 160.277344 109.105469 160.019531 109.589844 159.710938 110.050781 C 159.402344 110.511719 159.050781 110.941406 158.660156 111.332031 C 158.265625 111.726563 157.839844 112.074219 157.378906 112.382813 C 156.917969 112.691406 156.429688 112.953125 155.917969 113.164063 C 155.40625 113.378906 154.875 113.539063 154.332031 113.644531 C 153.789063 113.753906 153.238281 113.808594 152.683594 113.808594 L 11.832031 113.808594 C 11.277344 113.808594 10.726563 113.753906 10.183594 113.644531 C 9.636719 113.539063 9.109375 113.378906 8.597656 113.164063 C 8.085938 112.953125 7.597656 112.691406 7.136719 112.382813 C 6.675781 112.074219 6.25 111.726563 5.855469 111.332031 C 5.464844 110.941406 5.113281 110.511719 4.804688 110.050781 C 4.496094 109.589844 4.234375 109.105469 4.023438 108.589844 C 3.8125 108.078125 3.652344 107.550781 3.542969 107.003906 C 3.433594 106.460938 3.378906 105.910156 3.378906 105.355469 L 3.378906 65.917969 C 3.378906 65.363281 3.433594 64.8125 3.542969 64.269531 C 3.652344 63.726563 3.8125 63.195313 4.023438 62.683594 C 4.234375 62.171875 4.496094 61.683594 4.804688 61.222656 C 5.113281 60.761719 5.464844 60.335938 5.855469 59.941406 C 6.25 59.550781 6.675781 59.199219 7.136719 58.890625 C 7.597656 58.582031 8.085938 58.324219 8.597656 58.109375 C 9.109375 57.898438 9.636719 57.738281 10.183594 57.628906 C 10.726563 57.523438 11.277344 57.46875 11.832031 57.46875 Z M 11.832031 57.46875 "
     id="path97" />
  <path
     fill-rule="nonzero"
     fill="rgb(100%, 100%, 100%)"
     fill-opacity="1"
     stroke-width="3"
     stroke-linecap="butt"
     stroke-linejoin="miter"
     stroke="rgb(100%, 100%, 100%)"
     stroke-opacity="1"
     stroke-miterlimit="4"
     d="M 333.99784 359.997641 L 364.00161 359.997641 L 364.00161 371.749551 L 333.99784 371.749551 Z M 333.99784 359.997641 "
     transform="matrix(0.751208, 0, 0, 0.751208, 0.375604, 0.375604)"
     id="path99" />
  <path
     fill-rule="nonzero"
     fill="rgb(100%, 100%, 100%)"
     fill-opacity="1"
     stroke-width="3"
     stroke-linecap="butt"
     stroke-linejoin="miter"
     stroke="rgb(100%, 100%, 100%)"
     stroke-opacity="1"
     stroke-miterlimit="4"
     d="M 119.000285 359.997641 L 148.998856 359.997641 L 148.998856 371.749551 L 119.000285 371.749551 Z M 119.000285 359.997641 "
     transform="matrix(0.751208, 0, 0, 0.751208, 0.375604, 0.375604)"
     id="path101" />
  <path
     fill-rule="nonzero"
     fill="rgb(0%, 0%, 0%)"
     fill-opacity="1"
     d="M 293.675781 161.464844 C 293.675781 162.140625 293.644531 162.8125 293.578125 163.484375 C 293.511719 164.15625 293.414063 164.824219 293.28125 165.484375 C 293.148438 166.148438 292.984375 166.800781 292.789063 167.449219 C 292.59375 168.09375 292.367188 168.730469 292.109375 169.351563 C 291.851563 169.976563 291.5625 170.585938 291.242188 171.179688 C 290.925781 171.777344 290.578125 172.355469 290.203125 172.917969 C 289.828125 173.476563 289.425781 174.019531 289 174.542969 C 288.570313 175.0625 288.117188 175.5625 287.640625 176.039063 C 287.164063 176.519531 286.664063 176.96875 286.140625 177.398438 C 285.617188 177.828125 285.078125 178.230469 284.515625 178.605469 C 283.953125 178.980469 283.375 179.324219 282.78125 179.644531 C 282.183594 179.960938 281.574219 180.25 280.953125 180.507813 C 280.328125 180.765625 279.695313 180.996094 279.046875 181.191406 C 278.402344 181.386719 277.746094 181.550781 277.085938 181.679688 C 276.421875 181.8125 275.757813 181.914063 275.085938 181.976563 C 274.414063 182.042969 273.738281 182.078125 273.0625 182.078125 C 272.390625 182.078125 271.714844 182.042969 271.042969 181.976563 C 270.371094 181.914063 269.703125 181.8125 269.042969 181.679688 C 268.378906 181.550781 267.726563 181.386719 267.082031 181.191406 C 266.433594 180.992188 265.800781 180.765625 265.175781 180.507813 C 264.550781 180.25 263.941406 179.960938 263.347656 179.644531 C 262.75 179.324219 262.171875 178.980469 261.613281 178.605469 C 261.050781 178.230469 260.507813 177.828125 259.988281 177.398438 C 259.464844 176.96875 258.964844 176.519531 258.488281 176.039063 C 258.011719 175.5625 257.558594 175.0625 257.128906 174.542969 C 256.703125 174.019531 256.300781 173.476563 255.925781 172.917969 C 255.550781 172.355469 255.203125 171.777344 254.886719 171.179688 C 254.566406 170.585938 254.277344 169.976563 254.019531 169.351563 C 253.761719 168.730469 253.535156 168.09375 253.339844 167.449219 C 253.140625 166.800781 252.980469 166.148438 252.847656 165.484375 C 252.714844 164.824219 252.617188 164.15625 252.550781 163.484375 C 252.484375 162.8125 252.449219 162.140625 252.449219 161.464844 C 252.449219 160.789063 252.484375 160.117188 252.550781 159.445313 C 252.617188 158.773438 252.714844 158.105469 252.847656 157.441406 C 252.980469 156.78125 253.140625 156.125 253.339844 155.480469 C 253.535156 154.835938 253.761719 154.199219 254.019531 153.578125 C 254.277344 152.953125 254.566406 152.34375 254.886719 151.746094 C 255.203125 151.152344 255.550781 150.574219 255.925781 150.011719 C 256.300781 149.453125 256.703125 148.910156 257.128906 148.386719 C 257.558594 147.867188 258.011719 147.367188 258.488281 146.890625 C 258.964844 146.410156 259.464844 145.957031 259.988281 145.53125 C 260.507813 145.101563 261.050781 144.699219 261.613281 144.324219 C 262.171875 143.949219 262.75 143.605469 263.347656 143.285156 C 263.941406 142.96875 264.550781 142.679688 265.175781 142.421875 C 265.800781 142.164063 266.433594 141.933594 267.082031 141.738281 C 267.726563 141.542969 268.378906 141.378906 269.042969 141.246094 C 269.703125 141.117188 270.371094 141.015625 271.042969 140.949219 C 271.714844 140.882813 272.390625 140.851563 273.0625 140.851563 C 273.738281 140.851563 274.414063 140.882813 275.085938 140.949219 C 275.757813 141.015625 276.421875 141.117188 277.085938 141.246094 C 277.746094 141.378906 278.402344 141.542969 279.046875 141.738281 C 279.695313 141.933594 280.328125 142.164063 280.953125 142.421875 C 281.574219 142.679688 282.183594 142.96875 282.78125 143.285156 C 283.375 143.605469 283.953125 143.949219 284.515625 144.324219 C 285.078125 144.699219 285.617188 145.101563 286.140625 145.53125 C 286.664063 145.957031 287.164063 146.410156 287.640625 146.890625 C 288.117188 147.367188 288.570313 147.867188 289 148.386719 C 289.425781 148.910156 289.828125 149.453125 290.203125 150.011719 C 290.578125 150.574219 290.925781 151.152344 291.242188 151.746094 C 291.5625 152.34375 291.851563 152.953125 292.109375 153.578125 C 292.367188 154.199219 292.59375 154.835938 292.789063 155.480469 C 292.984375 156.125 293.148438 156.78125 293.28125 157.441406 C 293.414063 158.105469 293.511719 158.773438 293.578125 159.445313 C 293.644531 160.117188 293.675781 160.789063 293.675781 161.464844 Z M 293.675781 161.464844 "
     id="path103" />
  <g
     clip-path="url(#clip-7)"
     id="g107">
    <path
       fill="none"
       stroke-width="5"
       stroke-linecap="butt"
       stroke-linejoin="miter"
       stroke="#ffffff"
       stroke-opacity="1"
       stroke-miterlimit="4"
       d="m 390.43821,214.44035 c 0,0.8996 -0.0416,1.79399 -0.13,2.68838 -0.0884,0.8944 -0.2184,1.78359 -0.3952,2.66238 -0.1768,0.884 -0.3952,1.75239 -0.65519,2.61558 -0.26,0.858 -0.5616,1.70559 -0.9048,2.53238 -0.34319,0.832 -0.72799,1.64319 -1.15439,2.43359 -0.42119,0.79559 -0.88399,1.56518 -1.38319,2.31398 -0.49919,0.74359 -1.03479,1.46639 -1.60158,2.16318 -0.572,0.6916 -1.1752,1.35719 -1.80959,1.99159 -0.6344,0.63959 -1.29999,1.23759 -1.99679,1.80958 -0.69679,0.572 -1.41439,1.10759 -2.16318,1.60679 -0.74879,0.4992 -1.51839,0.95679 -2.30878,1.38319 -0.7956,0.4212 -1.60679,0.80599 -2.43358,1.14919 -0.832,0.3432 -1.67439,0.65 -2.53758,0.90999 -0.858,0.26 -1.73159,0.4784 -2.61038,0.65 -0.884,0.1768 -1.76799,0.312 -2.66238,0.3952 -0.8944,0.0884 -1.79399,0.13519 -2.69358,0.13519 -0.89439,0 -1.79399,-0.0468 -2.68838,-0.13519 -0.89439,-0.0832 -1.78359,-0.2184 -2.66238,-0.3952 -0.88399,-0.1716 -1.75239,-0.39 -2.61038,-0.65 -0.8632,-0.26519 -1.70559,-0.56679 -2.53758,-0.90999 -0.832,-0.3432 -1.64319,-0.72799 -2.43358,-1.14919 -0.7956,-0.4264 -1.56519,-0.88399 -2.30879,-1.38319 -0.74879,-0.4992 -1.47158,-1.03479 -2.16318,-1.60679 -0.69679,-0.57199 -1.36239,-1.16999 -1.99678,-1.80958 -0.6344,-0.6344 -1.23759,-1.29999 -1.80959,-1.99159 -0.56679,-0.69679 -1.10239,-1.41959 -1.60159,-2.16318 -0.49919,-0.7488 -0.96199,-1.51839 -1.38319,-2.31398 -0.42639,-0.7904 -0.81119,-1.60159 -1.15439,-2.43359 -0.3432,-0.82679 -0.64479,-1.67438 -0.90479,-2.53238 -0.2652,-0.86319 -0.4784,-1.73158 -0.6552,-2.61558 -0.1768,-0.87879 -0.30679,-1.76798 -0.39519,-2.66238 -0.0884,-0.89439 -0.1352,-1.78878 -0.1352,-2.68838 0,-0.89959 0.0468,-1.79398 0.1352,-2.68838 0.0884,-0.89439 0.21839,-1.78358 0.39519,-2.66757 0.1768,-0.8788 0.39,-1.75239 0.6552,-2.61038 0.26,-0.858 0.56159,-1.70559 0.90479,-2.53239 0.3432,-0.83199 0.728,-1.64318 1.15439,-2.43878 0.4212,-0.79039 0.884,-1.55998 1.38319,-2.30878 0.4992,-0.74359 1.0348,-1.46639 1.60159,-2.16318 0.572,-0.6916 1.17519,-1.35719 1.80959,-1.99159 0.63439,-0.63959 1.29999,-1.24279 1.99678,-1.80958 0.6916,-0.572 1.41439,-1.10759 2.16318,-1.60679 0.7436,-0.4992 1.51319,-0.95679 2.30879,-1.38319 0.79039,-0.4212 1.60158,-0.80599 2.43358,-1.14919 0.83199,-0.3432 1.67438,-0.65 2.53758,-0.90999 0.85799,-0.26 1.72639,-0.4784 2.61038,-0.6552 0.87879,-0.1716 1.76799,-0.3068 2.66238,-0.3952 0.89439,-0.0884 1.79399,-0.13 2.68838,-0.13 0.89959,0 1.79918,0.0416 2.69358,0.13 0.89439,0.0884 1.77838,0.2236 2.66238,0.3952 0.87879,0.1768 1.75238,0.3952 2.61038,0.6552 0.86319,0.25999 1.70558,0.56679 2.53758,0.90999 0.82679,0.3432 1.63798,0.72799 2.43358,1.14919 0.79039,0.4264 1.55999,0.88399 2.30878,1.38319 0.74879,0.4992 1.46639,1.03479 2.16318,1.60679 0.6968,0.56679 1.36239,1.16999 1.99679,1.80958 0.63439,0.6344 1.23759,1.29999 1.80959,1.99159 0.56679,0.69679 1.10239,1.41959 1.60158,2.16318 0.4992,0.7488 0.962,1.51839 1.38319,2.30878 0.4264,0.7956 0.8112,1.60679 1.15439,2.43878 0.3432,0.8268 0.6448,1.67439 0.9048,2.53239 0.25999,0.85799 0.47839,1.73158 0.65519,2.61038 0.1768,0.88399 0.3068,1.77318 0.3952,2.66757 0.0884,0.8944 0.13,1.78879 0.13,2.68838 z m 0,0"
       transform="matrix(0.751208,0,0,0.751208,0.375604,0.375604)"
       id="path105" />
  </g>
  <path
     fill="none"
     stroke-width="7"
     stroke-linecap="butt"
     stroke-linejoin="miter"
     stroke="rgb(100%, 100%, 100%)"
     stroke-opacity="1"
     stroke-miterlimit="10"
     d="M 68.132039 49.879831 L 79.878749 49.879831 "
     transform="matrix(0, -0.751208, 0.751208, 0, 18.494732, 93.435217)"
     id="path109" />
  <path
     fill-rule="nonzero"
     fill="rgb(100%, 100%, 100%)"
     fill-opacity="1"
     stroke-width="1"
     stroke-linecap="butt"
     stroke-linejoin="miter"
     stroke="rgb(100%, 100%, 100%)"
     stroke-opacity="1"
     stroke-miterlimit="4"
     d="M 331.850256 128.999809 L 394.150979 128.999809 C 394.733375 128.999809 395.305371 129.057008 395.877366 129.171408 C 396.444162 129.285807 397.000558 129.452205 397.536153 129.675804 C 398.071749 129.894202 398.581345 130.1698 399.064942 130.492197 C 399.548538 130.814595 399.995735 131.178592 400.406532 131.594589 C 400.817328 132.005386 401.186526 132.452582 401.508923 132.930979 C 401.831321 133.414575 402.101719 133.924171 402.325317 134.464967 C 402.548915 135.000563 402.715314 135.551759 402.829713 136.123754 C 402.944112 136.69575 403.001312 137.267746 403.001312 137.850141 L 403.001312 179.148225 C 403.001312 179.730621 402.944112 180.307816 402.829713 180.874612 C 402.715314 181.446607 402.548915 181.997803 402.325317 182.538599 C 402.101719 183.074195 401.831321 183.583791 401.508923 184.067387 C 401.186526 184.550984 400.817328 184.99818 400.406532 185.408977 C 399.995735 185.819774 399.548538 186.183771 399.064942 186.506169 C 398.581345 186.833766 398.071749 187.104164 397.536153 187.327762 C 397.000558 187.546161 396.444162 187.717759 395.877366 187.832159 C 395.305371 187.941358 394.733375 187.998557 394.150979 187.998557 L 331.850256 187.998557 C 331.267861 187.998557 330.695865 187.941358 330.123869 187.832159 C 329.551874 187.717759 329.000678 187.546161 328.465082 187.327762 C 327.924286 187.104164 327.41469 186.833766 326.931094 186.506169 C 326.447498 186.183771 326.005501 185.819774 325.589504 185.408977 C 325.178707 184.99818 324.81471 184.550984 324.492313 184.067387 C 324.169915 183.583791 323.894317 183.074195 323.675919 182.538599 C 323.452321 181.997803 323.285922 181.446607 323.171523 180.874612 C 323.057124 180.307816 322.999924 179.730621 322.999924 179.148225 L 322.999924 137.850141 C 322.999924 137.267746 323.057124 136.69575 323.171523 136.123754 C 323.285922 135.551759 323.452321 135.000563 323.675919 134.464967 C 323.894317 133.924171 324.169915 133.414575 324.492313 132.930979 C 324.81471 132.452582 325.178707 132.005386 325.589504 131.594589 C 326.005501 131.183792 326.447498 130.814595 326.931094 130.492197 C 327.41469 130.1698 327.924286 129.894202 328.465082 129.675804 C 329.000678 129.452205 329.551874 129.285807 330.123869 129.171408 C 330.695865 129.057008 331.267861 128.999809 331.850256 128.999809 Z M 331.850256 128.999809 "
     transform="matrix(0.751208, 0, 0, 0.751208, 0.375604, 0.375604)"
     id="path111" />
  <path
     fill-rule="nonzero"
     fill="rgb(100%, 100%, 100%)"
     fill-opacity="1"
     d="M 288.839844 138.597656 C 298.855469 138.597656 303.863281 146.789063 303.863281 163.175781 C 303.863281 179.5625 298.855469 187.757813 288.839844 187.757813 C 293.847656 171.371094 293.847656 154.984375 288.839844 138.597656 Z M 288.839844 138.597656 "
     id="path113" />
  <path
     fill-rule="nonzero"
     fill="rgb(100%, 100%, 100%)"
     fill-opacity="1"
     d="M 257.289063 187.613281 C 247.773438 187.613281 243.015625 178.851563 243.015625 161.320313 C 243.015625 143.792969 247.773438 135.03125 257.289063 135.03125 C 252.53125 152.558594 252.53125 170.085938 257.289063 187.613281 Z M 257.289063 187.613281 "
     id="path115" />
  <path
     fill-rule="nonzero"
     fill="rgb(100%, 100%, 100%)"
     fill-opacity="1"
     d="M 292.445313 131.269531 L 300.441406 140.800781 C 300.6875 141.089844 300.902344 141.402344 301.085938 141.738281 C 301.269531 142.070313 301.417969 142.417969 301.53125 142.78125 C 301.644531 143.144531 301.722656 143.515625 301.765625 143.894531 C 301.804688 144.273438 301.808594 144.652344 301.777344 145.03125 C 301.742188 145.410156 301.675781 145.785156 301.566406 146.148438 C 301.460938 146.515625 301.320313 146.867188 301.144531 147.203125 C 300.96875 147.542969 300.761719 147.859375 300.523438 148.15625 C 300.285156 148.453125 300.019531 148.726563 299.726563 148.96875 C 299.4375 149.214844 299.125 149.429688 298.789063 149.613281 C 298.457031 149.792969 298.105469 149.945313 297.742188 150.058594 C 297.378906 150.171875 297.011719 150.25 296.632813 150.292969 C 296.253906 150.332031 295.875 150.335938 295.496094 150.304688 C 295.117188 150.269531 294.742188 150.199219 294.378906 150.09375 C 294.011719 149.988281 293.660156 149.847656 293.320313 149.671875 C 292.984375 149.496094 292.667969 149.289063 292.371094 149.050781 C 292.074219 148.8125 291.800781 148.546875 291.558594 148.253906 L 283.5625 138.726563 C 283.316406 138.433594 283.101563 138.121094 282.917969 137.785156 C 282.734375 137.453125 282.585938 137.105469 282.472656 136.742188 C 282.359375 136.378906 282.28125 136.007813 282.238281 135.628906 C 282.199219 135.25 282.191406 134.871094 282.226563 134.492188 C 282.257813 134.113281 282.328125 133.738281 282.4375 133.375 C 282.542969 133.007813 282.683594 132.65625 282.859375 132.320313 C 283.035156 131.980469 283.242188 131.664063 283.480469 131.367188 C 283.71875 131.070313 283.984375 130.800781 284.277344 130.554688 C 284.566406 130.308594 284.878906 130.097656 285.214844 129.914063 C 285.546875 129.730469 285.898438 129.582031 286.261719 129.464844 C 286.621094 129.351563 286.992188 129.273438 287.371094 129.234375 C 287.75 129.191406 288.128906 129.1875 288.507813 129.21875 C 288.886719 129.253906 289.261719 129.324219 289.625 129.429688 C 289.992188 129.535156 290.34375 129.675781 290.679688 129.851563 C 291.019531 130.027344 291.335938 130.234375 291.632813 130.472656 C 291.929688 130.714844 292.203125 130.976563 292.445313 131.269531 Z M 292.445313 131.269531 "
     id="path117" />
  <g
     clip-path="url(#clip-8)"
     id="g121">
    <path
       fill="none"
       stroke-width="7"
       stroke-linecap="butt"
       stroke-linejoin="miter"
       stroke="#ffffff"
       stroke-opacity="1"
       stroke-miterlimit="4"
       d="m 379.92898,177.83092 16.56154,0.002 c 0.50534,-0.004 1.00785,0.0447 1.50752,0.14493 0.49568,0.0969 0.97722,0.243 1.44461,0.43834 0.46739,0.19533 0.91266,0.43319 1.33581,0.7136 0.41982,0.28438 0.80955,0.60462 1.1692,0.9607 0.35631,0.36007 0.68189,0.74867 0.95876,1.17105 0.28419,0.42175 0.52237,0.86597 0.71453,1.33268 0.19615,0.47005 0.34165,0.95191 0.4405,1.44892 0.0989,0.49702 0.1504,1.00186 0.14668,1.50785 0.004,0.50535 -0.0447,1.00785 -0.14493,1.50752 -0.10087,0.49235 -0.24634,0.98121 -0.44167,1.4486 -0.19533,0.46738 -0.42986,0.90867 -0.71026,1.33183 -0.28439,0.41981 -0.60462,0.80955 -0.96071,1.1692 -0.36007,0.3563 -0.75265,0.67855 -1.17105,0.95876 -0.42174,0.28419 -0.86597,0.52237 -1.33602,0.71851 -0.4667,0.19216 -0.94856,0.33767 -1.44558,0.43651 -0.49701,0.0988 -1.00186,0.1504 -1.50784,0.14669 l -16.55755,0.002 c -0.50933,2.7e-4 -1.01184,-0.048 -1.51151,-0.14827 -0.49569,-0.0969 -0.97722,-0.243 -1.44461,-0.43833 -0.46739,-0.19533 -0.91266,-0.4332 -1.33582,-0.7136 -0.41981,-0.28439 -0.81289,-0.60064 -1.1692,-0.96071 -0.35965,-0.35609 -0.68189,-0.74867 -0.95875,-1.17105 -0.2842,-0.42175 -0.52237,-0.86597 -0.71454,-1.33268 -0.19614,-0.47004 -0.34164,-0.9519 -0.44049,-1.44892 -0.0988,-0.49701 -0.14642,-0.99852 -0.14669,-1.50785 -0.004,-0.50534 0.0487,-1.00451 0.14892,-1.50418 0.0969,-0.49568 0.24634,-0.9812 0.43769,-1.45193 0.19199,-0.46341 0.42986,-0.90868 0.71424,-1.32849 0.2804,-0.42316 0.60064,-0.81289 0.95673,-1.17254 0.36007,-0.35631 0.75264,-0.67855 1.17105,-0.95876 0.42174,-0.2842 0.86597,-0.52237 1.33267,-0.71453 0.47005,-0.19615 0.95191,-0.34165 1.44892,-0.4405 0.501,-0.0955 1.00186,-0.1504 1.50785,-0.14668 z m 0,0"
       transform="matrix(0.482867,0.575458,-0.575458,0.482867,211.32444,-173.2325)"
       id="path119" />
  </g>
  <path
     fill-rule="nonzero"
     fill="rgb(100%, 100%, 100%)"
     fill-opacity="1"
     stroke-width="7"
     stroke-linecap="butt"
     stroke-linejoin="miter"
     stroke="rgb(100%, 100%, 100%)"
     stroke-opacity="1"
     stroke-miterlimit="4"
     d="M 330.719874 174.997919 L 347.280755 174.997919 C 347.788171 174.997919 348.288233 175.049396 348.784618 175.148673 C 349.281003 175.247951 349.766358 175.395028 350.233328 175.589905 C 350.703974 175.781105 351.148883 176.020105 351.568052 176.299552 C 351.990899 176.582675 352.376976 176.902568 352.737315 177.262907 C 353.093977 177.619569 353.417547 178.009323 353.70067 178.43217 C 353.980117 178.851339 354.219117 179.296247 354.410317 179.766894 C 354.605194 180.233864 354.752271 180.719218 354.851548 181.215604 C 354.950825 181.711989 355.002302 182.212051 355.002302 182.719467 C 355.002302 183.226883 354.950825 183.726945 354.851548 184.22333 C 354.755948 184.723392 354.605194 185.20507 354.413994 185.675716 C 354.219117 186.142686 353.980117 186.587594 353.696993 187.010441 C 353.417547 187.429611 353.097654 187.823042 352.740992 188.179704 C 352.380653 188.540043 351.990899 188.856259 351.568052 189.139382 C 351.148883 189.418828 350.703974 189.657829 350.237005 189.852706 C 349.766358 190.043906 349.28468 190.19466 348.784618 190.29026 C 348.288233 190.389537 347.788171 190.441014 347.280755 190.441014 L 330.719874 190.441014 C 330.212458 190.441014 329.712396 190.389537 329.216011 190.29026 C 328.715949 190.19466 328.234271 190.043906 327.763625 189.852706 C 327.296655 189.657829 326.851747 189.418828 326.432577 189.139382 C 326.00973 188.856259 325.619976 188.540043 325.259637 188.179704 C 324.902975 187.823042 324.583083 187.429611 324.299959 187.006764 C 324.020513 186.587594 323.781512 186.142686 323.586635 185.675716 C 323.395435 185.20507 323.244681 184.723392 323.149081 184.22333 C 323.049804 183.726945 322.998327 183.226883 322.998327 182.719467 C 322.998327 182.212051 323.049804 181.711989 323.149081 181.215604 C 323.248358 180.719218 323.395435 180.233864 323.586635 179.763217 C 323.781512 179.296247 324.020513 178.851339 324.299959 178.43217 C 324.583083 178.009323 324.899298 177.619569 325.259637 177.25923 C 325.616299 176.902568 326.00973 176.582675 326.432577 176.299552 C 326.851747 176.020105 327.296655 175.781105 327.763625 175.586228 C 328.234271 175.395028 328.719626 175.247951 329.216011 175.148673 C 329.712396 175.049396 330.212458 174.997919 330.719874 174.997919 Z M 330.719874 174.997919 "
     transform="matrix(-0.531184, 0.531184, -0.531184, -0.531184, 532.164362, 54.622831)"
     id="path123" />
  <path
     fill-rule="nonzero"
     fill="rgb(100%, 100%, 100%)"
     fill-opacity="1"
     stroke-width="1"
     stroke-linecap="butt"
     stroke-linejoin="miter"
     stroke="rgb(100%, 100%, 100%)"
     stroke-opacity="1"
     stroke-miterlimit="4"
     d="M 366.508999 235.632237 L 402.00821 235.630365 L 402.009685 255.627533 L 366.510474 255.629405 Z M 366.508999 235.632237 "
     transform="matrix(-0.615353, 0.430875, -0.430875, -0.615353, 631.32619, 170.475946)"
     id="path125" />
  <path
     fill-rule="nonzero"
     fill="rgb(100%, 100%, 100%)"
     fill-opacity="1"
     stroke-width="1"
     stroke-linecap="butt"
     stroke-linejoin="miter"
     stroke="rgb(100%, 100%, 100%)"
     stroke-opacity="1"
     stroke-miterlimit="4"
     d="M 327.999169 235.998294 L 360.999031 235.997766 L 361.001604 256.999662 L 328.001742 257.000189 Z M 327.999169 235.998294 "
     transform="matrix(-0.650565, -0.375604, 0.375604, -0.650565, 390.699915, 475.308076)"
     id="path127" />
</svg>
