<?xml version="1.0" encoding="UTF-8" standalone="no"?>
<svg
   width="inherit"
   height="inherit"
   viewBox="0 0 403.91998 486.95999"
   version="1.1"
   id="svg95"
   xmlns="http://www.w3.org/2000/svg"
   xmlnsSvg="http://www.w3.org/2000/svg">
  <defs
     id="defs17">
    <clipPath
       id="clip-0">
      <path
         clip-rule="nonzero"
         d="M 131 149 L 403.921875 149 L 403.921875 265 L 131 265 Z M 131 149 "
         id="path2" />
    </clipPath>
    <clipPath
       id="clip-1">
      <path
         clip-rule="nonzero"
         d="M 272 473 L 297 473 L 297 484.949219 L 272 484.949219 Z M 272 473 "
         id="path5" />
    </clipPath>
    <clipPath
       id="clip-2">
      <path
         clip-rule="nonzero"
         d="M 110 473 L 136 473 L 136 484.949219 L 110 484.949219 Z M 110 473 "
         id="path8" />
    </clipPath>
    <clipPath
       id="clip-3">
      <path
         clip-rule="nonzero"
         d="M 225 374 L 400 374 L 400 484.949219 L 225 484.949219 Z M 225 374 "
         id="path11" />
    </clipPath>
    <clipPath
       id="clip-4">
      <path
         clip-rule="nonzero"
         d="M 4 374 L 179 374 L 179 484.949219 L 4 484.949219 Z M 4 374 "
         id="path14" />
    </clipPath>
  </defs>
  <path
     fill="none"
     stroke-width="7"
     stroke-linecap="butt"
     stroke-linejoin="miter"
     stroke="inherit"
     stroke-opacity="1"
     stroke-miterlimit="4"
     d="M 115.248682 433.002526 L 422.751394 433.002526 C 423.486223 433.002526 424.221053 433.070277 424.945459 433.2162 C 425.669866 433.362124 426.373426 433.575798 427.05614 433.857222 C 427.738854 434.138646 428.385087 434.48782 429.000051 434.894322 C 429.615014 435.306035 430.183074 435.775075 430.70423 436.296231 C 431.225386 436.817386 431.694426 437.385446 432.106139 438.00041 C 432.51264 438.615373 432.861814 439.261607 433.143239 439.94432 C 433.424663 440.627034 433.638336 441.330595 433.78426 442.055001 C 433.930184 442.779408 433.997934 443.509025 433.997934 444.249067 L 433.997934 496.750292 C 433.997934 497.490333 433.930184 498.219951 433.78426 498.944358 C 433.638336 499.668764 433.424663 500.372324 433.143239 501.055038 C 432.861814 501.737752 432.51264 502.383985 432.106139 502.998949 C 431.694426 503.613913 431.225386 504.181973 430.70423 504.703128 C 430.183074 505.229496 429.615014 505.693324 429.000051 506.105037 C 428.385087 506.51675 427.738854 506.860713 427.05614 507.142137 C 426.373426 507.428773 425.669866 507.637235 424.945459 507.783159 C 424.221053 507.929082 423.486223 508.002044 422.751394 508.002044 L 115.248682 508.002044 C 114.513852 508.002044 113.779023 507.929082 113.054616 507.783159 C 112.33021 507.637235 111.62665 507.428773 110.943936 507.142137 C 110.261222 506.860713 109.614989 506.51675 109.000025 506.105037 C 108.385061 505.693324 107.817002 505.229496 107.295846 504.703128 C 106.77469 504.181973 106.30565 503.613913 105.893937 502.998949 C 105.487436 502.383985 105.138261 501.737752 104.856837 501.055038 C 104.575413 500.372324 104.361739 499.668764 104.215816 498.944358 C 104.069892 498.219951 104.002142 497.490333 104.002142 496.750292 L 104.002142 444.249067 C 104.002142 443.509025 104.069892 442.779408 104.215816 442.055001 C 104.361739 441.330595 104.575413 440.627034 104.856837 439.94432 C 105.138261 439.261607 105.487436 438.615373 105.893937 438.00041 C 106.30565 437.385446 106.77469 436.817386 107.295846 436.296231 C 107.817002 435.775075 108.385061 435.306035 109.000025 434.894322 C 109.614989 434.48782 110.261222 434.138646 110.943936 433.857222 C 111.62665 433.575798 112.33021 433.362124 113.054616 433.2162 C 113.779023 433.070277 114.513852 433.002526 115.248682 433.002526 Z M 115.248682 433.002526 "
     transform="matrix(0.749536, 0, 0, 0.749536, 0.374768, 0.374768)"
     id="path19" />
  <path
     fill-rule="nonzero"
     fill="inherit"
     fill-opacity="1"
     stroke-width="3"
     stroke-linecap="butt"
     stroke-linejoin="miter"
     stroke="inherit"
     stroke-opacity="1"
     stroke-miterlimit="4"
     d="M 393.999234 48.999369 C 393.999234 49.656025 393.936695 50.30747 393.806406 50.948491 C 393.681329 51.594724 393.488501 52.220111 393.238346 52.824652 C 392.988192 53.434404 392.68071 54.007675 392.315901 54.554889 C 391.951092 55.102102 391.534167 55.607623 391.070339 56.071452 C 390.60651 56.53528 390.100989 56.952205 389.553775 57.317014 C 389.011773 57.681823 388.433291 57.989305 387.82875 58.239459 C 387.218998 58.489614 386.593611 58.67723 385.952589 58.807519 C 385.306356 58.937808 384.654912 59.000347 383.998256 59.000347 C 383.341599 59.000347 382.695366 58.937808 382.049133 58.807519 C 381.4029 58.67723 380.777513 58.489614 380.172973 58.239459 C 379.568432 57.989305 378.989949 57.681823 378.442736 57.317014 C 377.900734 56.952205 377.395213 56.53528 376.931384 56.071452 C 376.462344 55.607623 376.050631 55.102102 375.685822 54.554889 C 375.321013 54.007675 375.013531 53.434404 374.763377 52.824652 C 374.50801 52.220111 374.320394 51.594724 374.190105 50.948491 C 374.065028 50.30747 374.002489 49.656025 374.002489 48.999369 C 374.002489 48.342713 374.065028 47.691268 374.190105 47.050246 C 374.320394 46.404013 374.50801 45.778627 374.763377 45.174086 C 375.013531 44.564334 375.321013 43.991062 375.685822 43.443849 C 376.050631 42.896636 376.462344 42.391114 376.931384 41.927286 C 377.395213 41.463457 377.900734 41.051744 378.442736 40.686935 C 378.989949 40.322126 379.568432 40.014644 380.172973 39.759278 C 380.777513 39.509123 381.4029 39.321507 382.049133 39.191218 C 382.695366 39.066141 383.341599 38.998391 383.998256 38.998391 C 384.654912 38.998391 385.306356 39.066141 385.952589 39.191218 C 386.593611 39.321507 387.218998 39.509123 387.82875 39.759278 C 388.433291 40.014644 389.011773 40.322126 389.553775 40.686935 C 390.100989 41.051744 390.60651 41.463457 391.070339 41.927286 C 391.534167 42.391114 391.951092 42.896636 392.315901 43.443849 C 392.68071 43.991062 392.988192 44.564334 393.238346 45.174086 C 393.488501 45.778627 393.681329 46.404013 393.806406 47.050246 C 393.936695 47.691268 393.999234 48.342713 393.999234 48.999369 Z M 393.999234 48.999369 "
     transform="matrix(0.749536, 0, 0, 0.749536, 0.374768, 0.374768)"
     id="path21" />
  <path
     fill-rule="nonzero"
     fill="inherit"
     fill-opacity="1"
     stroke-width="3"
     stroke-linecap="butt"
     stroke-linejoin="miter"
     stroke="inherit"
     stroke-opacity="1"
     stroke-miterlimit="4"
     d="M 364.001511 48.999369 C 364.001511 49.656025 363.933761 50.30747 363.808684 50.948491 C 363.678395 51.594724 363.490779 52.220111 363.240624 52.824652 C 362.985258 53.434404 362.677776 54.007675 362.312967 54.554889 C 361.948158 55.102102 361.536445 55.607623 361.072616 56.071452 C 360.608788 56.53528 360.103267 56.952205 359.556053 57.317014 C 359.00884 57.681823 358.435568 57.989305 357.825816 58.239459 C 357.221276 58.489614 356.595889 58.67723 355.949656 58.807519 C 355.308634 58.937808 354.657189 59.000347 354.000533 59.000347 C 353.343877 59.000347 352.692432 58.937808 352.051411 58.807519 C 351.405178 58.67723 350.779791 58.489614 350.17525 58.239459 C 349.565498 57.989305 348.992227 57.681823 348.445013 57.317014 C 347.8978 56.952205 347.392279 56.53528 346.92845 56.071452 C 346.464622 55.607623 346.047697 55.102102 345.682888 54.554889 C 345.318079 54.007675 345.010597 53.434404 344.760443 52.824652 C 344.510288 52.220111 344.322672 51.594724 344.192383 50.948491 C 344.062094 50.30747 343.999555 49.656025 343.999555 48.999369 C 343.999555 48.342713 344.062094 47.691268 344.192383 47.050246 C 344.322672 46.404013 344.510288 45.778627 344.760443 45.174086 C 345.010597 44.564334 345.318079 43.991062 345.682888 43.443849 C 346.047697 42.896636 346.464622 42.391114 346.92845 41.927286 C 347.392279 41.463457 347.8978 41.051744 348.445013 40.686935 C 348.992227 40.322126 349.565498 40.014644 350.17525 39.759278 C 350.779791 39.509123 351.405178 39.321507 352.051411 39.191218 C 352.692432 39.066141 353.343877 38.998391 354.000533 38.998391 C 354.657189 38.998391 355.308634 39.066141 355.949656 39.191218 C 356.595889 39.321507 357.221276 39.509123 357.825816 39.759278 C 358.435568 40.014644 359.00884 40.322126 359.556053 40.686935 C 360.103267 41.051744 360.608788 41.463457 361.072616 41.927286 C 361.536445 42.391114 361.948158 42.896636 362.312967 43.443849 C 362.677776 43.991062 362.985258 44.564334 363.240624 45.174086 C 363.490779 45.778627 363.678395 46.404013 363.808684 47.050246 C 363.933761 47.691268 364.001511 48.342713 364.001511 48.999369 Z M 364.001511 48.999369 "
     transform="matrix(0.749536, 0, 0, 0.749536, 0.374768, 0.374768)"
     id="path23" />
  <path
     fill="none"
     stroke-width="7"
     stroke-linecap="butt"
     stroke-linejoin="miter"
     stroke="inherit"
     stroke-opacity="1"
     stroke-miterlimit="4"
     d="M 115.248682 138.997747 L 422.751394 138.997747 C 423.486223 138.997747 424.221053 139.070709 424.945459 139.216633 C 425.669866 139.362556 426.373426 139.57623 427.05614 139.857654 C 427.738854 140.139078 428.385087 140.483041 429.000051 140.894754 C 429.615014 141.306467 430.183074 141.770296 430.70423 142.296663 C 431.225386 142.817819 431.694426 143.385878 432.106139 144.000842 C 432.51264 144.615806 432.861814 145.262039 433.143239 145.944753 C 433.424663 146.627467 433.638336 147.331027 433.78426 148.055434 C 433.930184 148.77984 433.997934 149.509458 433.997934 150.249499 L 433.997934 202.750725 C 433.997934 203.490766 433.930184 204.220384 433.78426 204.94479 C 433.638336 205.669197 433.424663 206.372757 433.143239 207.055471 C 432.861814 207.738185 432.51264 208.384418 432.106139 208.999382 C 431.694426 209.614345 431.225386 210.182405 430.70423 210.703561 C 430.183074 211.224716 429.615014 211.693757 429.000051 212.10547 C 428.385087 212.511971 427.738854 212.861145 427.05614 213.142569 C 426.373426 213.423994 425.669866 213.637667 424.945459 213.783591 C 424.221053 213.929515 423.486223 214.002476 422.751394 214.002476 L 115.248682 214.002476 C 114.513852 214.002476 113.779023 213.929515 113.054616 213.783591 C 112.33021 213.637667 111.62665 213.423994 110.943936 213.142569 C 110.261222 212.861145 109.614989 212.511971 109.000025 212.10547 C 108.385061 211.693757 107.817002 211.224716 107.295846 210.703561 C 106.77469 210.182405 106.30565 209.614345 105.893937 208.999382 C 105.487436 208.384418 105.138261 207.738185 104.856837 207.055471 C 104.575413 206.372757 104.361739 205.669197 104.215816 204.94479 C 104.069892 204.220384 104.002142 203.490766 104.002142 202.750725 L 104.002142 150.249499 C 104.002142 149.509458 104.069892 148.77984 104.215816 148.055434 C 104.361739 147.331027 104.575413 146.627467 104.856837 145.944753 C 105.138261 145.262039 105.487436 144.615806 105.893937 144.000842 C 106.30565 143.385878 106.77469 142.817819 107.295846 142.296663 C 107.817002 141.770296 108.385061 141.306467 109.000025 140.894754 C 109.614989 140.483041 110.261222 140.139078 110.943936 139.857654 C 111.62665 139.57623 112.33021 139.362556 113.054616 139.216633 C 113.779023 139.070709 114.513852 138.997747 115.248682 138.997747 Z M 115.248682 138.997747 "
     transform="matrix(0.749536, 0, 0, 0.749536, 0.374768, 0.374768)"
     id="path25" />
  <path
     fill-rule="nonzero"
     fill="inherit"
     fill-opacity="1"
     stroke-width="5"
     stroke-linecap="butt"
     stroke-linejoin="miter"
     stroke="inherit"
     stroke-opacity="1"
     stroke-miterlimit="10"
     d="M 339.001672 359.589157 L 382.200268 359.589157 L 382.200268 347.24819 L 408.998095 368.500919 L 382.200268 389.748438 L 382.200268 377.40747 L 339.001672 377.40747 Z M 339.001672 359.589157 "
     transform="matrix(0.749536, 0, 0, -0.749536, 0.374768, 552.782857)"
     id="path27" />
  <path
     fill="none"
     stroke-width="7"
     stroke-linecap="butt"
     stroke-linejoin="miter"
     stroke="inherit"
     stroke-opacity="1"
     stroke-miterlimit="4"
     d="M 15.249325 331.001932 L 312.751059 331.001932 C 313.4911 331.001932 314.220718 331.069682 314.945125 331.215606 C 315.669531 331.361529 316.373091 331.575203 317.055805 331.856627 C 317.738519 332.138051 318.384752 332.487226 318.999716 332.893727 C 319.61468 333.30544 320.18274 333.77448 320.703895 334.295636 C 321.225051 334.816792 321.694091 335.384851 322.105804 335.999815 C 322.512306 336.614779 322.86148 337.261012 323.142904 337.943726 C 323.424328 338.62644 323.638002 339.33 323.783926 340.054407 C 323.929849 340.778813 323.997599 341.513643 323.997599 342.248472 L 323.997599 394.749698 C 323.997599 395.489739 323.929849 396.219357 323.783926 396.943763 C 323.638002 397.66817 323.424328 398.37173 323.142904 399.054444 C 322.86148 399.737158 322.512306 400.383391 322.105804 400.998355 C 321.694091 401.613318 321.225051 402.181378 320.703895 402.702534 C 320.18274 403.228901 319.61468 403.69273 318.999716 404.104443 C 318.384752 404.516156 317.738519 404.860118 317.055805 405.141543 C 316.373091 405.428178 315.669531 405.641852 314.945125 405.782564 C 314.220718 405.928488 313.4911 406.001449 312.751059 406.001449 L 15.249325 406.001449 C 14.509284 406.001449 13.779666 405.928488 13.05526 405.782564 C 12.330853 405.641852 11.627293 405.428178 10.944579 405.141543 C 10.261865 404.860118 9.615632 404.516156 9.000668 404.104443 C 8.385705 403.69273 7.817645 403.228901 7.296489 402.702534 C 6.770122 402.181378 6.306293 401.613318 5.89458 400.998355 C 5.488079 400.383391 5.138905 399.737158 4.857481 399.054444 C 4.576057 398.37173 4.362383 397.66817 4.216459 396.943763 C 4.070536 396.219357 3.997574 395.489739 3.997574 394.749698 L 3.997574 342.248472 C 3.997574 341.513643 4.070536 340.778813 4.216459 340.054407 C 4.362383 339.33 4.576057 338.62644 4.857481 337.943726 C 5.138905 337.261012 5.488079 336.614779 5.89458 335.999815 C 6.306293 335.384851 6.770122 334.816792 7.296489 334.295636 C 7.817645 333.77448 8.385705 333.30544 9.000668 332.893727 C 9.615632 332.487226 10.261865 332.138051 10.944579 331.856627 C 11.627293 331.575203 12.330853 331.361529 13.05526 331.215606 C 13.779666 331.069682 14.509284 331.001932 15.249325 331.001932 Z M 15.249325 331.001932 "
     transform="matrix(0.749536, 0, 0, 0.749536, 0.374768, 0.374768)"
     id="path29" />
  <path
     fill-rule="nonzero"
     fill="inherit"
     fill-opacity="1"
     stroke-width="5"
     stroke-linecap="butt"
     stroke-linejoin="miter"
     stroke="inherit"
     stroke-opacity="1"
     stroke-miterlimit="10"
     d="M 123.999489 266.589418 L 167.198085 266.589418 L 167.198085 254.248451 L 194.001123 275.501181 L 167.198085 296.748699 L 167.198085 284.407732 L 123.999489 284.407732 Z M 123.999489 266.589418 "
     transform="matrix(-0.749536, 0, 0, -0.749536, 238.727246, 413.369167)"
     id="path31" />
  <path
     fill-rule="nonzero"
     fill="inherit"
     fill-opacity="1"
     d="M 123.015625 37.769531 C 123.269531 37.859375 123.480469 37.804688 123.640625 37.609375 L 123.664063 37.589844 C 123.617188 37.714844 123.570313 37.925781 123.515625 38.230469 L 123.046875 40.84375 C 122.851563 41.902344 122.65625 43.097656 122.457031 44.425781 C 122.253906 45.773438 122.015625 47.117188 121.746094 48.460938 C 121.472656 49.800781 121.191406 51.054688 120.898438 52.222656 C 120.597656 53.425781 120.261719 54.394531 119.890625 55.128906 C 119.460938 55.984375 118.976563 56.496094 118.4375 56.660156 C 117.726563 56.882813 117.089844 56.433594 116.535156 55.316406 L 117.109375 55.03125 L 116.59375 55.414063 C 116.324219 55.054688 115.941406 54.484375 115.449219 53.707031 C 114.964844 52.945313 114.410156 52.089844 113.78125 51.144531 L 111.789063 48.144531 L 109.820313 45.160156 C 109.207031 44.222656 108.644531 43.382813 108.136719 42.636719 C 107.625 41.886719 107.25 41.335938 107.015625 40.984375 L 107.554688 40.628906 L 107.03125 41.003906 C 106.652344 40.476563 106.324219 40.058594 106.042969 39.746094 C 105.894531 39.582031 105.664063 39.519531 105.355469 39.558594 L 105.273438 38.917969 L 105.914063 38.839844 C 106.140625 40.6875 106.496094 42.703125 106.980469 44.894531 C 107.464844 47.105469 107.976563 49.335938 108.511719 51.59375 C 109.046875 53.855469 109.558594 56.089844 110.042969 58.289063 C 110.535156 60.507813 110.898438 62.574219 111.132813 64.484375 L 110.492188 64.5625 L 111.042969 64.230469 C 111.316406 64.683594 111.308594 65.140625 111.023438 65.597656 C 110.808594 65.933594 110.503906 66.203125 110.101563 66.398438 C 109.691406 66.601563 109.234375 66.667969 108.734375 66.601563 C 108.207031 66.53125 107.746094 66.28125 107.359375 65.84375 L 107.246094 65.71875 L 107.210938 65.558594 C 106.675781 63.195313 106.25 60.773438 105.929688 58.292969 L 104.960938 50.886719 C 104.632813 48.429688 104.222656 45.972656 103.734375 43.519531 C 103.246094 41.082031 102.578125 38.671875 101.722656 36.292969 L 101.707031 36.242188 L 101.695313 36.191406 C 101.566406 35.46875 101.683594 34.957031 102.046875 34.652344 C 102.316406 34.429688 102.660156 34.292969 103.078125 34.242188 C 103.835938 34.148438 104.542969 34.246094 105.207031 34.535156 C 105.824219 34.804688 106.398438 35.167969 106.929688 35.621094 C 107.449219 36.0625 107.921875 36.5625 108.347656 37.117188 L 109.4375 38.523438 C 109.699219 38.855469 110.066406 39.375 110.542969 40.09375 L 112.140625 42.535156 L 114.011719 45.367188 C 114.65625 46.355469 115.277344 47.289063 115.875 48.175781 C 116.464844 49.054688 117.003906 49.835938 117.488281 50.515625 C 117.96875 51.183594 118.328125 51.65625 118.566406 51.933594 L 118.078125 52.355469 L 118 51.714844 C 117.929688 51.722656 117.875 51.753906 117.835938 51.804688 C 117.851563 51.785156 117.898438 51.625 117.976563 51.320313 C 118.074219 50.941406 118.199219 50.355469 118.355469 49.5625 L 119.023438 46.234375 C 119.308594 44.824219 119.65625 43.039063 120.066406 40.878906 L 121.578125 32.964844 L 121.582031 32.945313 C 121.667969 32.621094 121.9375 32.339844 122.390625 32.113281 C 122.734375 31.933594 123.066406 31.828125 123.382813 31.789063 C 123.867188 31.730469 124.238281 31.871094 124.503906 32.214844 C 124.664063 32.433594 124.808594 32.761719 124.929688 33.210938 L 124.933594 33.222656 L 124.933594 33.234375 C 125.453125 35.476563 125.941406 37.828125 126.390625 40.285156 C 126.839844 42.722656 127.335938 45.183594 127.882813 47.664063 C 128.429688 50.140625 129.035156 52.589844 129.695313 55.011719 C 130.351563 57.417969 131.128906 59.6875 132.035156 61.820313 L 132.261719 62.359375 L 128.363281 64.464844 L 122.601563 37.296875 L 123.230469 37.160156 Z M 123.785156 36.675781 L 129.445313 63.355469 L 128.816406 63.488281 L 128.507813 62.921875 L 131.132813 61.503906 L 131.441406 62.070313 L 130.847656 62.324219 C 129.921875 60.136719 129.125 57.8125 128.453125 55.351563 C 127.785156 52.910156 127.175781 50.4375 126.625 47.941406 C 126.074219 45.445313 125.574219 42.96875 125.125 40.515625 C 124.675781 38.082031 124.195313 35.75 123.679688 33.523438 L 124.308594 33.378906 L 123.683594 33.546875 C 123.609375 33.261719 123.539063 33.078125 123.476563 32.996094 C 123.511719 33.042969 123.535156 33.066406 123.539063 33.066406 C 123.375 33.085938 123.1875 33.152344 122.972656 33.261719 L 122.828125 33.273438 L 122.207031 33.109375 L 122.839844 33.230469 L 121.332031 41.121094 C 120.921875 43.285156 120.574219 45.074219 120.285156 46.488281 L 119.621094 49.8125 C 119.460938 50.628906 119.328125 51.238281 119.222656 51.640625 C 119.101563 52.117188 118.976563 52.4375 118.851563 52.597656 C 118.671875 52.828125 118.441406 52.960938 118.15625 52.996094 L 117.816406 53.035156 L 117.589844 52.773438 C 117.324219 52.46875 116.941406 51.964844 116.441406 51.265625 C 115.949219 50.574219 115.402344 49.785156 114.804688 48.894531 C 114.207031 48.003906 113.582031 47.066406 112.933594 46.074219 L 111.0625 43.242188 L 109.46875 40.804688 C 109.015625 40.121094 108.664063 39.621094 108.414063 39.3125 L 107.332031 37.902344 C 106.957031 37.421875 106.542969 36.984375 106.09375 36.601563 C 105.660156 36.230469 105.191406 35.933594 104.695313 35.71875 C 104.246094 35.519531 103.757813 35.457031 103.234375 35.519531 C 103.066406 35.539063 102.945313 35.582031 102.871094 35.644531 C 102.914063 35.609375 102.933594 35.585938 102.9375 35.578125 C 102.925781 35.664063 102.933594 35.792969 102.964844 35.964844 L 102.332031 36.078125 L 102.9375 35.859375 C 103.8125 38.296875 104.496094 40.765625 104.996094 43.265625 C 105.492188 45.746094 105.90625 48.230469 106.238281 50.722656 L 107.207031 58.128906 C 107.519531 60.570313 107.941406 62.953125 108.46875 65.273438 L 107.839844 65.414063 L 108.320313 64.988281 C 108.496094 65.183594 108.691406 65.296875 108.902344 65.324219 C 109.144531 65.359375 109.355469 65.332031 109.53125 65.242188 C 109.714844 65.152344 109.847656 65.042969 109.929688 64.910156 C 109.9375 64.902344 109.941406 64.894531 109.941406 64.894531 L 109.871094 64.777344 L 109.851563 64.640625 C 109.625 62.769531 109.265625 60.746094 108.785156 58.566406 C 108.300781 56.371094 107.789063 54.144531 107.257813 51.890625 C 106.722656 49.625 106.210938 47.386719 105.722656 45.171875 C 105.230469 42.941406 104.867188 40.882813 104.636719 39 L 104.558594 38.359375 L 105.195313 38.28125 C 105.949219 38.1875 106.550781 38.386719 106.996094 38.882813 C 107.3125 39.230469 107.671875 39.6875 108.078125 40.253906 L 108.082031 40.261719 L 108.089844 40.269531 C 108.320313 40.621094 108.691406 41.167969 109.199219 41.914063 C 109.714844 42.664063 110.277344 43.511719 110.894531 44.449219 L 112.863281 47.433594 L 114.855469 50.433594 C 115.488281 51.386719 116.046875 52.246094 116.535156 53.015625 C 117.011719 53.769531 117.375 54.308594 117.625 54.644531 L 117.660156 54.691406 L 117.6875 54.742188 C 117.847656 55.0625 117.992188 55.28125 118.117188 55.394531 L 118.058594 55.429688 C 118.25 55.371094 118.476563 55.078125 118.742188 54.550781 C 119.066406 53.902344 119.371094 53.019531 119.648438 51.910156 C 119.9375 50.761719 120.214844 49.527344 120.484375 48.203125 C 120.75 46.882813 120.984375 45.5625 121.183594 44.234375 C 121.382813 42.894531 121.582031 41.6875 121.777344 40.617188 L 122.246094 38.003906 C 122.3125 37.628906 122.382813 37.34375 122.453125 37.148438 C 122.65625 36.589844 122.988281 36.390625 123.445313 36.554688 Z M 123.230469 37.160156 C 123.117188 37.121094 123 37.441406 122.882813 38.117188 C 122.761719 38.792969 122.605469 39.664063 122.410156 40.730469 C 122.21875 41.792969 122.019531 42.996094 121.820313 44.332031 C 121.617188 45.667969 121.382813 47 121.113281 48.332031 C 120.84375 49.664063 120.566406 50.90625 120.273438 52.066406 C 119.984375 53.222656 119.664063 54.148438 119.316406 54.839844 C 118.96875 55.53125 118.613281 55.933594 118.25 56.046875 C 117.882813 56.15625 117.503906 55.820313 117.109375 55.03125 C 116.851563 54.683594 116.476563 54.125 115.992188 53.363281 C 115.507813 52.597656 114.949219 51.738281 114.316406 50.789063 C 113.6875 49.839844 113.023438 48.839844 112.328125 47.789063 C 111.628906 46.738281 110.972656 45.746094 110.359375 44.804688 C 109.742188 43.867188 109.179688 43.023438 108.667969 42.273438 C 108.15625 41.527344 107.785156 40.976563 107.554688 40.628906 C 107.160156 40.082031 106.816406 39.644531 106.519531 39.316406 C 106.222656 38.984375 105.808594 38.855469 105.273438 38.917969 C 105.503906 40.785156 105.863281 42.824219 106.351563 45.035156 C 106.839844 47.246094 107.347656 49.480469 107.882813 51.742188 C 108.417969 54 108.929688 56.230469 109.414063 58.429688 C 109.902344 60.625 110.261719 62.671875 110.492188 64.5625 C 110.628906 64.789063 110.621094 65.019531 110.476563 65.253906 C 110.328125 65.488281 110.109375 65.679688 109.816406 65.820313 C 109.523438 65.964844 109.191406 66.011719 108.820313 65.964844 C 108.449219 65.914063 108.121094 65.734375 107.839844 65.414063 C 107.308594 63.074219 106.886719 60.671875 106.570313 58.210938 C 106.253906 55.746094 105.929688 53.277344 105.597656 50.804688 C 105.269531 48.332031 104.855469 45.859375 104.363281 43.390625 C 103.871094 40.925781 103.195313 38.484375 102.332031 36.078125 C 102.246094 35.601563 102.289063 35.292969 102.460938 35.148438 C 102.632813 35.007813 102.863281 34.917969 103.15625 34.878906 C 103.796875 34.800781 104.394531 34.882813 104.953125 35.125 C 105.507813 35.371094 106.027344 35.699219 106.511719 36.109375 C 106.996094 36.523438 107.4375 36.992188 107.839844 37.511719 C 108.242188 38.027344 108.601563 38.496094 108.925781 38.917969 C 109.179688 39.238281 109.542969 39.75 110.003906 40.449219 L 111.601563 42.886719 C 112.199219 43.789063 112.824219 44.734375 113.472656 45.722656 C 114.121094 46.710938 114.742188 47.648438 115.339844 48.535156 C 115.933594 49.421875 116.476563 50.207031 116.964844 50.890625 C 117.457031 51.574219 117.828125 52.0625 118.078125 52.355469 C 118.1875 52.34375 118.273438 52.289063 118.34375 52.199219 C 118.414063 52.109375 118.5 51.871094 118.601563 51.480469 C 118.699219 51.089844 118.832031 50.492188 118.988281 49.6875 C 119.148438 48.882813 119.367188 47.777344 119.65625 46.363281 C 119.941406 44.949219 120.289063 43.160156 120.699219 41 C 121.109375 38.839844 121.613281 36.210938 122.207031 33.109375 C 122.242188 32.96875 122.402344 32.828125 122.679688 32.6875 C 122.960938 32.542969 123.222656 32.457031 123.460938 32.429688 C 123.699219 32.398438 123.875 32.457031 123.988281 32.605469 C 124.101563 32.753906 124.207031 33.011719 124.308594 33.378906 C 124.824219 35.613281 125.308594 37.953125 125.757813 40.398438 C 126.207031 42.847656 126.707031 45.3125 127.253906 47.800781 C 127.804688 50.289063 128.410156 52.75 129.074219 55.183594 C 129.738281 57.617188 130.527344 59.914063 131.441406 62.070313 L 128.816406 63.488281 Z M 132.472656 57.539063 C 132.128906 56.304688 131.882813 55.09375 131.734375 53.902344 C 131.589844 52.71875 131.515625 51.503906 131.515625 50.261719 C 131.515625 49.023438 131.578125 47.734375 131.699219 46.386719 C 131.820313 45.054688 131.976563 43.617188 132.167969 42.070313 L 132.808594 42.152344 L 132.167969 42.230469 C 132.117188 41.8125 132.183594 41.414063 132.363281 41.027344 C 132.53125 40.667969 132.777344 40.355469 133.09375 40.089844 C 133.375 39.855469 133.679688 39.652344 134.003906 39.488281 C 134.351563 39.3125 134.695313 39.203125 135.035156 39.160156 C 135.769531 39.070313 136.460938 39.21875 137.113281 39.609375 C 137.6875 39.953125 138.226563 40.390625 138.71875 40.921875 C 139.199219 41.4375 139.625 41.996094 140 42.59375 C 140.355469 43.164063 140.65625 43.652344 140.894531 44.0625 L 140.925781 44.113281 L 140.949219 44.171875 C 141.285156 45.105469 141.578125 46.175781 141.824219 47.382813 C 142.066406 48.585938 142.226563 49.820313 142.300781 51.085938 C 142.371094 52.359375 142.332031 53.625 142.179688 54.886719 C 142.027344 56.160156 141.734375 57.351563 141.300781 58.453125 C 140.855469 59.585938 140.226563 60.566406 139.40625 61.398438 C 138.566406 62.25 137.527344 62.84375 136.289063 63.171875 L 136.246094 63.183594 L 136.203125 63.191406 C 135.378906 63.292969 134.710938 63.082031 134.191406 62.558594 C 133.757813 62.117188 133.414063 61.566406 133.160156 60.898438 C 132.921875 60.273438 132.757813 59.632813 132.664063 58.976563 C 132.574219 58.359375 132.503906 57.847656 132.453125 57.445313 L 133.09375 57.367188 Z M 133.714844 57.191406 L 133.726563 57.238281 L 133.734375 57.289063 C 133.78125 57.683594 133.847656 58.183594 133.9375 58.789063 C 134.019531 59.355469 134.160156 59.90625 134.363281 60.441406 C 134.554688 60.9375 134.800781 61.339844 135.105469 61.648438 C 135.328125 61.875 135.640625 61.960938 136.042969 61.910156 L 136.125 62.550781 L 135.957031 61.929688 C 136.96875 61.660156 137.8125 61.179688 138.488281 60.496094 C 139.183594 59.789063 139.722656 58.949219 140.101563 57.980469 C 140.492188 56.980469 140.761719 55.898438 140.902344 54.730469 C 141.042969 53.546875 141.082031 52.355469 141.011719 51.160156 C 140.945313 49.957031 140.792969 48.78125 140.5625 47.636719 C 140.328125 46.496094 140.054688 45.484375 139.738281 44.609375 L 140.34375 44.390625 L 139.789063 44.71875 C 139.550781 44.320313 139.257813 43.839844 138.90625 43.277344 C 138.578125 42.746094 138.199219 42.253906 137.773438 41.800781 C 137.363281 41.359375 136.921875 40.996094 136.449219 40.714844 C 136.050781 40.476563 135.632813 40.382813 135.191406 40.4375 C 135 40.460938 134.800781 40.527344 134.585938 40.636719 C 134.351563 40.757813 134.128906 40.902344 133.921875 41.078125 C 133.75 41.222656 133.617188 41.390625 133.527344 41.578125 C 133.453125 41.738281 133.425781 41.902344 133.445313 42.070313 L 133.457031 42.152344 L 133.445313 42.230469 C 133.257813 43.761719 133.101563 45.1875 132.980469 46.503906 C 132.863281 47.8125 132.804688 49.0625 132.804688 50.261719 C 132.804688 51.453125 132.875 52.613281 133.015625 53.746094 C 133.152344 54.871094 133.386719 56.019531 133.714844 57.191406 Z M 135.757813 56.917969 C 135.789063 57.171875 135.824219 57.414063 135.863281 57.640625 C 135.902344 57.851563 135.953125 58.058594 136.011719 58.253906 C 136.074219 58.457031 136.152344 58.675781 136.242188 58.902344 C 136.335938 59.136719 136.449219 59.398438 136.589844 59.691406 L 136.007813 59.96875 L 135.929688 59.328125 L 136.171875 59.300781 C 136.640625 59.242188 137.019531 59.039063 137.3125 58.6875 C 137.660156 58.269531 137.941406 57.738281 138.152344 57.097656 C 138.375 56.417969 138.539063 55.667969 138.644531 54.84375 C 138.75 54 138.816406 53.175781 138.835938 52.367188 C 138.855469 51.5625 138.839844 50.8125 138.796875 50.121094 C 138.75 49.421875 138.703125 48.863281 138.652344 48.449219 L 138.550781 47.652344 C 138.511719 47.316406 138.453125 46.9375 138.375 46.515625 C 138.296875 46.097656 138.199219 45.667969 138.078125 45.226563 C 137.964844 44.808594 137.828125 44.429688 137.664063 44.097656 C 137.523438 43.804688 137.363281 43.582031 137.183594 43.421875 C 137.085938 43.335938 136.960938 43.304688 136.804688 43.324219 L 136.703125 43.335938 L 136.605469 43.316406 C 136.195313 43.238281 135.878906 43.292969 135.65625 43.480469 C 135.378906 43.710938 135.171875 44.089844 135.03125 44.617188 C 134.867188 45.222656 134.773438 45.960938 134.753906 46.832031 C 134.734375 47.730469 134.773438 48.710938 134.878906 49.78125 C 134.984375 50.867188 135.121094 52.019531 135.285156 53.238281 C 135.449219 54.464844 135.605469 55.691406 135.757813 56.917969 Z M 134.476563 57.074219 C 134.328125 55.851563 134.171875 54.628906 134.007813 53.40625 C 133.84375 52.175781 133.707031 51.007813 133.597656 49.90625 C 133.488281 48.785156 133.445313 47.75 133.464844 46.800781 C 133.488281 45.828125 133.597656 44.988281 133.785156 44.28125 C 133.996094 43.492188 134.34375 42.898438 134.828125 42.492188 C 135.363281 42.046875 136.035156 41.898438 136.84375 42.050781 L 136.726563 42.683594 L 136.648438 42.042969 C 137.183594 41.976563 137.648438 42.117188 138.035156 42.457031 C 138.339844 42.726563 138.605469 43.085938 138.824219 43.53125 C 139.019531 43.941406 139.1875 44.390625 139.320313 44.890625 C 139.449219 45.363281 139.558594 45.828125 139.640625 46.28125 C 139.722656 46.730469 139.785156 47.136719 139.832031 47.492188 L 139.929688 48.292969 C 139.984375 48.730469 140.035156 49.3125 140.082031 50.035156 C 140.128906 50.765625 140.144531 51.554688 140.121094 52.398438 C 140.101563 53.25 140.035156 54.117188 139.921875 55.003906 C 139.808594 55.910156 139.625 56.742188 139.375 57.5 C 139.113281 58.296875 138.757813 58.964844 138.304688 59.511719 C 137.792969 60.125 137.136719 60.480469 136.328125 60.578125 L 135.625 60.664063 L 135.425781 60.246094 C 135.277344 59.925781 135.148438 59.636719 135.046875 59.378906 C 134.941406 59.121094 134.851563 58.871094 134.78125 58.632813 C 134.703125 58.386719 134.644531 58.128906 134.597656 57.867188 C 134.550781 57.617188 134.511719 57.351563 134.476563 57.074219 Z M 133.09375 57.367188 C 132.757813 56.164063 132.515625 54.984375 132.375 53.824219 C 132.230469 52.664063 132.160156 51.476563 132.160156 50.261719 C 132.160156 49.042969 132.21875 47.773438 132.339844 46.445313 C 132.460938 45.121094 132.617188 43.6875 132.808594 42.152344 C 132.769531 41.859375 132.816406 41.574219 132.945313 41.300781 C 133.074219 41.03125 133.261719 40.789063 133.507813 40.585938 C 133.753906 40.378906 134.015625 40.203125 134.292969 40.0625 C 134.574219 39.917969 134.847656 39.832031 135.113281 39.800781 C 135.699219 39.726563 136.253906 39.847656 136.78125 40.160156 C 137.304688 40.476563 137.792969 40.875 138.246094 41.359375 C 138.699219 41.847656 139.101563 42.371094 139.453125 42.9375 C 139.808594 43.5 140.101563 43.984375 140.34375 44.390625 C 140.667969 45.296875 140.953125 46.335938 141.191406 47.507813 C 141.429688 48.683594 141.585938 49.886719 141.65625 51.125 C 141.726563 52.359375 141.6875 53.585938 141.539063 54.808594 C 141.394531 56.03125 141.113281 57.164063 140.703125 58.21875 C 140.289063 59.269531 139.707031 60.179688 138.949219 60.945313 C 138.191406 61.714844 137.25 62.25 136.125 62.550781 C 135.511719 62.625 135.019531 62.476563 134.648438 62.105469 C 134.277344 61.730469 133.984375 61.253906 133.761719 60.671875 C 133.542969 60.089844 133.386719 59.492188 133.300781 58.882813 C 133.210938 58.269531 133.140625 57.765625 133.09375 57.367188 Z M 135.117188 56.996094 C 135.148438 57.261719 135.1875 57.515625 135.230469 57.753906 C 135.273438 57.992188 135.328125 58.222656 135.394531 58.441406 C 135.464844 58.664063 135.546875 58.898438 135.644531 59.140625 C 135.742188 59.386719 135.863281 59.664063 136.007813 59.96875 L 136.25 59.941406 C 136.886719 59.863281 137.40625 59.582031 137.808594 59.097656 C 138.207031 58.617188 138.527344 58.015625 138.761719 57.300781 C 139 56.582031 139.171875 55.789063 139.28125 54.921875 C 139.394531 54.058594 139.457031 53.210938 139.476563 52.382813 C 139.5 51.558594 139.484375 50.789063 139.4375 50.078125 C 139.390625 49.367188 139.34375 48.796875 139.289063 48.371094 L 139.191406 47.574219 C 139.148438 47.226563 139.085938 46.835938 139.007813 46.398438 C 138.925781 45.960938 138.824219 45.515625 138.699219 45.058594 C 138.578125 44.597656 138.425781 44.183594 138.242188 43.816406 C 138.0625 43.445313 137.851563 43.152344 137.609375 42.941406 C 137.367188 42.726563 137.070313 42.640625 136.726563 42.683594 C 136.117188 42.570313 135.621094 42.671875 135.242188 42.988281 C 134.863281 43.304688 134.582031 43.792969 134.40625 44.449219 C 134.230469 45.105469 134.132813 45.894531 134.109375 46.816406 C 134.089844 47.738281 134.128906 48.75 134.238281 49.84375 C 134.347656 50.9375 134.480469 52.097656 134.644531 53.324219 C 134.808594 54.546875 134.964844 55.769531 135.117188 56.996094 Z M 149.371094 60.113281 C 149.289063 59.433594 149.566406 58.566406 150.207031 57.519531 C 150.777344 56.582031 151.496094 55.515625 152.359375 54.316406 L 155.171875 50.441406 C 156.175781 49.066406 157.082031 47.65625 157.890625 46.210938 C 158.691406 44.78125 159.332031 43.34375 159.8125 41.902344 C 160.277344 40.515625 160.429688 39.1875 160.273438 37.925781 C 160.203125 37.351563 159.988281 36.882813 159.628906 36.515625 C 159.222656 36.101563 158.722656 35.765625 158.125 35.503906 C 157.507813 35.230469 156.820313 35.039063 156.066406 34.933594 C 155.28125 34.820313 154.492188 34.753906 153.703125 34.730469 C 152.910156 34.710938 152.160156 34.722656 151.457031 34.769531 C 150.742188 34.816406 150.140625 34.871094 149.644531 34.933594 C 149.527344 34.945313 149.367188 34.972656 149.167969 35.007813 L 148.511719 35.128906 C 148.304688 35.167969 148.117188 35.210938 147.953125 35.253906 C 147.738281 35.3125 147.605469 35.34375 147.546875 35.351563 L 147.46875 34.710938 L 147.960938 35.128906 L 147.5 35.671875 L 147.007813 35.253906 L 147.648438 35.175781 C 147.65625 35.238281 147.675781 35.472656 147.714844 35.878906 L 147.839844 37.242188 C 147.886719 37.742188 147.945313 38.257813 148.007813 38.785156 L 148.160156 40.023438 C 148.488281 42.695313 148.914063 45.339844 149.4375 47.949219 C 149.964844 50.589844 150.394531 53.265625 150.726563 55.972656 C 150.746094 56.117188 150.773438 56.273438 150.804688 56.445313 C 150.851563 56.675781 150.871094 56.902344 150.863281 57.128906 C 150.851563 57.445313 150.753906 57.726563 150.5625 57.972656 C 150.347656 58.246094 150.03125 58.410156 149.613281 58.460938 C 149.355469 58.492188 149.089844 58.460938 148.824219 58.367188 C 148.445313 58.230469 148.199219 57.964844 148.089844 57.5625 L 148.085938 57.542969 L 143.941406 36.695313 L 144.574219 36.570313 L 144.992188 37.058594 C 144.894531 37.140625 144.738281 37.25 144.523438 37.386719 C 144.339844 37.5 144.148438 37.625 143.953125 37.753906 C 143.769531 37.875 143.589844 38.003906 143.417969 38.140625 C 143.136719 38.355469 142.914063 38.476563 142.742188 38.496094 L 142.726563 38.507813 C 142.621094 38.542969 142.535156 38.5625 142.46875 38.570313 C 142.253906 38.597656 142.019531 38.578125 141.761719 38.511719 C 141.292969 38.398438 141.027344 38.070313 140.960938 37.539063 C 140.894531 37.007813 140.964844 36.546875 141.167969 36.152344 C 141.34375 35.816406 141.582031 35.503906 141.882813 35.207031 C 142.148438 34.949219 142.429688 34.691406 142.734375 34.429688 C 142.980469 34.21875 143.207031 33.953125 143.414063 33.636719 C 143.609375 33.335938 143.753906 32.960938 143.847656 32.511719 C 143.945313 32.054688 143.949219 31.476563 143.863281 30.773438 L 143.785156 30.136719 L 144.421875 30.058594 C 145.175781 29.964844 145.703125 30.085938 146.007813 30.417969 C 146.242188 30.671875 146.398438 30.976563 146.484375 31.339844 C 146.539063 31.578125 146.601563 31.816406 146.667969 32.054688 L 146.808594 32.0625 L 146.695313 32.699219 L 146.59375 32.0625 C 147.347656 31.941406 148.261719 31.828125 149.328125 31.726563 C 150.40625 31.621094 151.542969 31.570313 152.742188 31.574219 C 153.945313 31.578125 155.144531 31.660156 156.339844 31.820313 C 157.570313 31.980469 158.691406 32.285156 159.707031 32.734375 C 160.757813 33.199219 161.625 33.84375 162.308594 34.671875 C 163.015625 35.523438 163.417969 36.609375 163.519531 37.921875 L 163.523438 37.960938 L 163.519531 38 C 163.421875 40.160156 162.992188 42.277344 162.230469 44.351563 C 161.476563 46.398438 160.539063 48.390625 159.414063 50.328125 C 158.296875 52.257813 157.066406 54.125 155.714844 55.929688 C 154.375 57.722656 153.03125 59.449219 151.6875 61.105469 L 151.523438 61.308594 L 151.265625 61.339844 L 151.300781 61.335938 C 151.199219 61.375 151.109375 61.402344 151.03125 61.410156 C 150.613281 61.460938 150.246094 61.363281 149.925781 61.113281 C 149.609375 60.863281 149.421875 60.53125 149.371094 60.113281 Z M 150.648438 59.957031 C 150.65625 60.019531 150.679688 60.066406 150.71875 60.097656 C 150.757813 60.128906 150.8125 60.140625 150.875 60.132813 L 150.839844 60.136719 C 150.941406 60.097656 151.03125 60.070313 151.109375 60.0625 L 151.1875 60.703125 L 150.6875 60.296875 C 152.019531 58.652344 153.351563 56.9375 154.683594 55.160156 C 156.003906 53.394531 157.207031 51.566406 158.300781 49.683594 C 159.386719 47.808594 160.292969 45.882813 161.019531 43.90625 C 161.738281 41.957031 162.140625 39.96875 162.234375 37.941406 L 162.875 37.972656 L 162.234375 38.019531 C 162.152344 36.976563 161.847656 36.136719 161.316406 35.492188 C 160.761719 34.820313 160.050781 34.292969 159.1875 33.914063 C 158.285156 33.515625 157.28125 33.242188 156.171875 33.097656 C 155.03125 32.945313 153.886719 32.867188 152.738281 32.863281 C 151.582031 32.859375 150.488281 32.90625 149.453125 33.007813 C 148.410156 33.109375 147.523438 33.21875 146.796875 33.335938 L 146.6875 33.351563 L 146.582031 33.332031 C 145.957031 33.222656 145.574219 32.914063 145.429688 32.40625 C 145.355469 32.148438 145.289063 31.890625 145.226563 31.628906 C 145.195313 31.488281 145.140625 31.375 145.058594 31.289063 C 145.054688 31.28125 144.894531 31.296875 144.582031 31.335938 L 144.5 30.695313 L 145.140625 30.617188 C 145.246094 31.460938 145.234375 32.179688 145.109375 32.777344 C 144.980469 33.382813 144.773438 33.90625 144.492188 34.339844 C 144.21875 34.757813 143.914063 35.113281 143.574219 35.40625 C 143.289063 35.648438 143.027344 35.890625 142.785156 36.128906 C 142.578125 36.328125 142.421875 36.535156 142.3125 36.746094 C 142.230469 36.902344 142.207031 37.113281 142.238281 37.382813 C 142.234375 37.328125 142.179688 37.289063 142.074219 37.265625 C 142.175781 37.289063 142.257813 37.300781 142.308594 37.292969 L 142.324219 37.285156 C 142.429688 37.25 142.515625 37.226563 142.585938 37.21875 L 142.625 37.125 C 142.824219 36.96875 143.027344 36.820313 143.242188 36.679688 C 143.449219 36.542969 143.644531 36.414063 143.839844 36.292969 C 144 36.195313 144.105469 36.121094 144.152344 36.082031 L 144.992188 35.359375 L 149.34375 57.269531 L 148.710938 57.394531 L 149.335938 57.226563 C 149.324219 57.191406 149.300781 57.167969 149.257813 57.152344 C 149.332031 57.179688 149.398438 57.191406 149.457031 57.183594 L 149.546875 57.179688 C 149.5625 57.15625 149.574219 57.125 149.574219 57.089844 C 149.578125 56.960938 149.566406 56.828125 149.539063 56.691406 C 149.5 56.492188 149.472656 56.304688 149.449219 56.128906 C 149.121094 53.453125 148.695313 50.8125 148.175781 48.203125 C 147.644531 45.558594 147.214844 42.886719 146.882813 40.179688 L 146.730469 38.941406 C 146.664063 38.402344 146.605469 37.875 146.558594 37.359375 L 146.429688 35.996094 C 146.394531 35.601563 146.375 35.378906 146.367188 35.335938 L 146.335938 35.054688 L 147.140625 34.105469 L 147.390625 34.074219 L 147.410156 34.066406 C 147.460938 34.054688 147.527344 34.035156 147.617188 34.011719 C 147.816406 33.957031 148.035156 33.90625 148.277344 33.863281 L 148.933594 33.742188 C 149.15625 33.703125 149.34375 33.671875 149.488281 33.652344 C 150.007813 33.589844 150.632813 33.535156 151.371094 33.484375 C 152.113281 33.433594 152.902344 33.421875 153.738281 33.441406 C 154.574219 33.464844 155.414063 33.535156 156.25 33.65625 C 157.121094 33.78125 157.917969 34.003906 158.644531 34.324219 C 159.390625 34.652344 160.023438 35.082031 160.546875 35.613281 C 161.113281 36.1875 161.449219 36.90625 161.554688 37.769531 C 161.734375 39.222656 161.558594 40.738281 161.035156 42.308594 C 160.527344 43.828125 159.855469 45.339844 159.011719 46.839844 C 158.179688 48.328125 157.246094 49.78125 156.214844 51.199219 L 153.40625 55.070313 C 152.558594 56.242188 151.859375 57.285156 151.304688 58.191406 C 150.820313 58.984375 150.601563 59.570313 150.648438 59.957031 Z M 150.011719 60.035156 C 149.945313 59.503906 150.195313 58.773438 150.757813 57.855469 C 151.320313 56.933594 152.027344 55.878906 152.882813 54.691406 C 153.738281 53.507813 154.675781 52.214844 155.691406 50.820313 C 156.710938 49.421875 157.628906 47.992188 158.453125 46.527344 C 159.273438 45.058594 159.929688 43.585938 160.421875 42.105469 C 160.917969 40.625 161.082031 39.207031 160.914063 37.847656 C 160.824219 37.128906 160.550781 36.535156 160.085938 36.0625 C 159.625 35.59375 159.054688 35.210938 158.382813 34.914063 C 157.710938 34.617188 156.96875 34.410156 156.160156 34.292969 C 155.347656 34.179688 154.535156 34.109375 153.71875 34.085938 C 152.90625 34.066406 152.136719 34.078125 151.414063 34.128906 C 150.6875 34.175781 150.074219 34.230469 149.566406 34.292969 C 149.433594 34.308594 149.261719 34.335938 149.050781 34.375 C 148.839844 34.414063 148.621094 34.457031 148.394531 34.496094 C 148.171875 34.539063 147.96875 34.582031 147.785156 34.632813 C 147.601563 34.683594 147.496094 34.710938 147.46875 34.710938 L 147.007813 35.253906 C 147.015625 35.308594 147.035156 35.535156 147.070313 35.9375 C 147.109375 36.339844 147.148438 36.792969 147.199219 37.300781 C 147.246094 37.808594 147.304688 38.328125 147.371094 38.863281 L 147.523438 40.101563 C 147.851563 42.792969 148.28125 45.449219 148.804688 48.074219 C 149.332031 50.703125 149.757813 53.359375 150.089844 56.050781 C 150.109375 56.210938 150.136719 56.382813 150.171875 56.566406 C 150.207031 56.753906 150.222656 56.933594 150.21875 57.109375 C 150.214844 57.285156 150.160156 57.441406 150.054688 57.574219 C 149.949219 57.710938 149.777344 57.792969 149.535156 57.820313 C 149.375 57.839844 149.210938 57.820313 149.042969 57.761719 C 148.871094 57.699219 148.761719 57.578125 148.710938 57.394531 L 144.574219 36.570313 C 144.5 36.632813 144.371094 36.722656 144.179688 36.839844 C 143.992188 36.957031 143.796875 37.082031 143.597656 37.214844 C 143.398438 37.347656 143.207031 37.488281 143.019531 37.632813 C 142.835938 37.777344 142.714844 37.851563 142.664063 37.859375 C 142.636719 37.859375 142.589844 37.875 142.527344 37.894531 C 142.460938 37.917969 142.414063 37.929688 142.386719 37.933594 C 142.253906 37.949219 142.097656 37.933594 141.917969 37.890625 C 141.734375 37.84375 141.628906 37.699219 141.601563 37.460938 C 141.550781 37.0625 141.597656 36.722656 141.738281 36.449219 C 141.882813 36.175781 142.082031 35.914063 142.332031 35.667969 C 142.585938 35.421875 142.859375 35.171875 143.152344 34.917969 C 143.449219 34.664063 143.714844 34.355469 143.953125 33.988281 C 144.191406 33.621094 144.367188 33.171875 144.476563 32.644531 C 144.589844 32.117188 144.597656 31.46875 144.5 30.695313 C 145.035156 30.632813 145.378906 30.683594 145.535156 30.851563 C 145.691406 31.023438 145.796875 31.234375 145.855469 31.484375 C 145.914063 31.734375 145.976563 31.980469 146.046875 32.230469 C 146.121094 32.476563 146.335938 32.632813 146.695313 32.699219 C 147.4375 32.582031 148.335938 32.46875 149.390625 32.367188 C 150.445313 32.265625 151.5625 32.214844 152.738281 32.21875 C 153.917969 32.222656 155.089844 32.304688 156.257813 32.457031 C 157.425781 32.609375 158.488281 32.898438 159.445313 33.324219 C 160.402344 33.746094 161.191406 34.332031 161.8125 35.082031 C 162.429688 35.828125 162.785156 36.792969 162.875 37.972656 C 162.78125 40.066406 162.363281 42.117188 161.625 44.128906 C 160.882813 46.140625 159.960938 48.097656 158.859375 50.003906 C 157.753906 51.910156 156.535156 53.757813 155.199219 55.542969 C 153.863281 57.332031 152.527344 59.050781 151.1875 60.703125 C 151.160156 60.703125 151.121094 60.714844 151.070313 60.734375 C 151.019531 60.757813 150.980469 60.769531 150.953125 60.769531 C 150.710938 60.800781 150.503906 60.746094 150.324219 60.605469 C 150.144531 60.464844 150.039063 60.273438 150.011719 60.035156 Z M 163.953125 34.1875 L 163.640625 31.632813 L 164.277344 31.554688 C 164.703125 31.5 165.179688 31.578125 165.707031 31.777344 C 166.167969 31.957031 166.621094 32.179688 167.0625 32.445313 C 167.503906 32.710938 167.917969 33.019531 168.3125 33.363281 C 168.6875 33.695313 168.988281 33.972656 169.210938 34.199219 L 182.957031 48.625 L 182.492188 49.070313 L 181.847656 49.035156 C 181.871094 48.597656 181.839844 47.777344 181.757813 46.570313 C 181.675781 45.347656 181.535156 43.96875 181.332031 42.425781 C 181.128906 40.875 180.886719 39.253906 180.613281 37.5625 C 180.339844 35.875 180.050781 34.304688 179.75 32.847656 C 179.453125 31.398438 179.167969 30.175781 178.898438 29.179688 C 178.667969 28.324219 178.484375 27.851563 178.347656 27.753906 L 178.109375 27.589844 L 178.074219 27.304688 C 178.015625 26.816406 178.050781 26.351563 178.175781 25.902344 C 178.359375 25.265625 178.804688 24.902344 179.511719 24.816406 C 180.191406 24.734375 180.765625 25.015625 181.238281 25.667969 C 181.601563 26.164063 181.898438 26.734375 182.125 27.375 C 182.339844 27.980469 182.515625 28.574219 182.660156 29.160156 C 182.800781 29.75 182.886719 30.148438 182.910156 30.359375 L 182.273438 30.4375 L 182.90625 30.324219 C 182.992188 30.808594 183.109375 31.535156 183.257813 32.511719 L 183.746094 35.820313 L 184.328125 39.742188 L 184.925781 43.640625 C 185.117188 44.863281 185.28125 45.976563 185.417969 46.976563 C 185.554688 47.964844 185.664063 48.695313 185.746094 49.160156 L 185.75 49.179688 L 185.753906 49.195313 C 185.785156 49.460938 185.859375 49.691406 185.972656 49.898438 L 186.441406 50.734375 C 186.601563 51.019531 186.753906 51.304688 186.898438 51.59375 C 187.078125 51.941406 187.1875 52.3125 187.238281 52.707031 C 187.332031 53.46875 187.113281 54.074219 186.578125 54.527344 C 186.125 54.910156 185.597656 55.136719 184.988281 55.210938 C 184.65625 55.253906 184.347656 55.246094 184.070313 55.191406 C 183.722656 55.121094 183.429688 54.953125 183.195313 54.6875 C 182.972656 54.4375 182.828125 54.121094 182.761719 53.734375 C 182.703125 53.40625 182.707031 52.992188 182.769531 52.488281 L 183.40625 52.566406 L 182.96875 53.039063 C 182.628906 52.722656 182.101563 52.207031 181.382813 51.492188 L 179.003906 49.105469 C 178.125 48.230469 177.199219 47.3125 176.214844 46.351563 L 173.402344 43.59375 L 171.003906 41.230469 L 169.414063 39.660156 L 169.394531 39.640625 C 169.359375 39.597656 169.285156 39.535156 169.167969 39.441406 L 168.09375 38.601563 C 167.976563 38.511719 167.894531 38.453125 167.84375 38.429688 L 168.136719 37.855469 L 168.777344 37.820313 C 168.859375 39.34375 169.058594 40.863281 169.375 42.371094 C 169.699219 43.902344 170.066406 45.417969 170.480469 46.921875 L 171.722656 51.453125 C 172.148438 52.988281 172.457031 54.542969 172.648438 56.121094 C 172.707031 56.597656 172.714844 57.03125 172.667969 57.425781 C 172.605469 58.003906 172.195313 58.472656 171.441406 58.832031 L 171.246094 58.925781 L 171.03125 58.878906 C 170.273438 58.714844 169.726563 58.292969 169.382813 57.613281 C 169.054688 56.960938 168.992188 56.300781 169.199219 55.628906 L 169.8125 55.820313 L 169.1875 55.96875 L 163.957031 34.226563 Z M 165.230469 34.03125 L 164.59375 34.109375 L 165.21875 33.960938 L 170.480469 55.839844 L 170.429688 56.007813 C 170.324219 56.347656 170.359375 56.6875 170.53125 57.03125 C 170.691406 57.347656 170.949219 57.542969 171.304688 57.617188 L 171.167969 58.25 L 170.890625 57.667969 C 171.210938 57.515625 171.378906 57.382813 171.390625 57.277344 C 171.421875 56.984375 171.417969 56.652344 171.371094 56.277344 C 171.183594 54.761719 170.886719 53.269531 170.480469 51.796875 L 169.234375 47.261719 C 168.816406 45.734375 168.445313 44.191406 168.117188 42.636719 C 167.785156 41.0625 167.578125 39.480469 167.492188 37.886719 L 167.433594 36.78125 L 168.425781 37.277344 C 168.546875 37.339844 168.703125 37.445313 168.886719 37.585938 L 169.960938 38.425781 C 170.144531 38.570313 170.28125 38.695313 170.375 38.800781 L 169.882813 39.21875 L 170.335938 38.761719 L 171.90625 40.3125 L 174.304688 42.675781 L 177.117188 45.429688 C 178.101563 46.394531 179.035156 47.316406 179.914063 48.195313 L 182.296875 50.582031 C 183 51.285156 183.515625 51.789063 183.84375 52.09375 L 184.085938 52.320313 L 184.046875 52.648438 C 184 53.023438 183.996094 53.3125 184.03125 53.511719 C 184.054688 53.65625 184.097656 53.761719 184.15625 53.828125 C 184.203125 53.882813 184.261719 53.914063 184.328125 53.929688 C 184.46875 53.957031 184.636719 53.957031 184.832031 53.933594 C 185.183594 53.890625 185.488281 53.761719 185.746094 53.542969 C 185.925781 53.390625 185.996094 53.164063 185.957031 52.863281 C 185.929688 52.617188 185.859375 52.390625 185.75 52.175781 C 185.613281 51.90625 185.46875 51.632813 185.316406 51.363281 L 184.847656 50.527344 C 184.652344 50.175781 184.527344 49.785156 184.472656 49.355469 L 185.113281 49.277344 L 184.480469 49.390625 C 184.390625 48.90625 184.28125 48.160156 184.140625 47.152344 C 184.007813 46.160156 183.84375 45.054688 183.652344 43.835938 L 183.054688 39.933594 L 182.46875 36.007813 L 181.984375 32.703125 C 181.835938 31.738281 181.722656 31.023438 181.636719 30.554688 L 181.636719 30.535156 L 181.632813 30.519531 C 181.613281 30.355469 181.539063 30.003906 181.40625 29.464844 C 181.273438 28.921875 181.109375 28.367188 180.910156 27.804688 C 180.722656 27.28125 180.488281 26.820313 180.199219 26.425781 C 180.023438 26.183594 179.847656 26.074219 179.671875 26.09375 C 179.527344 26.113281 179.441406 26.167969 179.417969 26.257813 C 179.335938 26.539063 179.316406 26.835938 179.355469 27.148438 L 178.714844 27.226563 L 179.082031 26.695313 C 179.476563 26.96875 179.832031 27.683594 180.144531 28.84375 C 180.417969 29.863281 180.710938 31.113281 181.011719 32.589844 C 181.316406 34.0625 181.605469 35.652344 181.882813 37.355469 C 182.160156 39.058594 182.402344 40.691406 182.609375 42.257813 C 182.816406 43.828125 182.960938 45.234375 183.042969 46.480469 C 183.128906 47.742188 183.160156 48.617188 183.136719 49.105469 L 183.054688 50.597656 L 168.300781 35.109375 C 168.09375 34.902344 167.8125 34.644531 167.460938 34.332031 C 167.125 34.035156 166.769531 33.777344 166.394531 33.546875 C 166.019531 33.320313 165.632813 33.132813 165.242188 32.980469 C 164.917969 32.855469 164.648438 32.804688 164.4375 32.832031 L 164.355469 32.191406 L 164.996094 32.113281 Z M 164.59375 34.109375 L 164.355469 32.191406 C 164.675781 32.152344 165.050781 32.214844 165.476563 32.378906 C 165.902344 32.542969 166.320313 32.75 166.726563 32.996094 C 167.136719 33.242188 167.523438 33.527344 167.886719 33.847656 C 168.25 34.167969 168.539063 34.4375 168.757813 34.652344 L 182.492188 49.070313 C 182.515625 48.609375 182.484375 47.757813 182.402344 46.527344 C 182.320313 45.292969 182.175781 43.898438 181.96875 42.339844 C 181.765625 40.785156 181.523438 39.15625 181.25 37.460938 C 180.972656 35.761719 180.683594 34.183594 180.382813 32.71875 C 180.082031 31.257813 179.792969 30.019531 179.523438 29.011719 C 179.25 28.003906 178.980469 27.410156 178.714844 27.226563 C 178.664063 26.824219 178.691406 26.445313 178.796875 26.078125 C 178.902344 25.714844 179.164063 25.507813 179.59375 25.453125 C 180.019531 25.402344 180.394531 25.601563 180.71875 26.046875 C 181.042969 26.492188 181.308594 27.007813 181.515625 27.589844 C 181.722656 28.175781 181.894531 28.75 182.03125 29.3125 C 182.167969 29.878906 182.25 30.253906 182.273438 30.4375 C 182.359375 30.914063 182.472656 31.636719 182.621094 32.605469 C 182.765625 33.578125 182.929688 34.679688 183.105469 35.914063 C 183.285156 37.148438 183.480469 38.457031 183.691406 39.835938 C 183.898438 41.21875 184.101563 42.519531 184.289063 43.738281 C 184.480469 44.960938 184.644531 46.066406 184.78125 47.066406 C 184.917969 48.0625 185.027344 48.800781 185.113281 49.277344 C 185.15625 49.621094 185.253906 49.933594 185.410156 50.210938 C 185.566406 50.492188 185.722656 50.769531 185.878906 51.046875 C 186.035156 51.324219 186.183594 51.605469 186.324219 51.886719 C 186.46875 52.164063 186.558594 52.464844 186.597656 52.785156 C 186.664063 53.316406 186.519531 53.734375 186.164063 54.035156 C 185.808594 54.335938 185.390625 54.515625 184.910156 54.574219 C 184.644531 54.605469 184.40625 54.601563 184.199219 54.558594 C 183.992188 54.515625 183.816406 54.417969 183.675781 54.257813 C 183.535156 54.101563 183.441406 53.886719 183.394531 53.625 C 183.347656 53.359375 183.355469 53.007813 183.40625 52.566406 C 183.070313 52.257813 182.550781 51.746094 181.839844 51.035156 C 181.132813 50.324219 180.335938 49.53125 179.460938 48.652344 C 178.582031 47.773438 177.648438 46.851563 176.667969 45.890625 C 175.683594 44.929688 174.746094 44.011719 173.851563 43.132813 C 172.960938 42.257813 172.160156 41.46875 171.453125 40.773438 L 169.882813 39.21875 C 169.820313 39.148438 169.714844 39.050781 169.566406 38.933594 L 168.488281 38.09375 C 168.339844 37.976563 168.222656 37.898438 168.136719 37.855469 C 168.21875 39.410156 168.421875 40.960938 168.746094 42.503906 C 169.070313 44.046875 169.441406 45.574219 169.859375 47.09375 C 170.273438 48.609375 170.6875 50.121094 171.101563 51.625 C 171.519531 53.128906 171.820313 54.652344 172.011719 56.199219 C 172.0625 56.625 172.070313 57.007813 172.03125 57.351563 C 171.992188 57.695313 171.703125 57.992188 171.167969 58.25 C 170.609375 58.128906 170.207031 57.820313 169.957031 57.320313 C 169.707031 56.824219 169.660156 56.324219 169.8125 55.820313 Z M 192.46875 53.597656 C 192.507813 53.09375 192.921875 52.625 193.710938 52.199219 C 194.3125 51.875 195.058594 51.519531 195.945313 51.136719 L 198.835938 49.886719 C 199.871094 49.441406 200.863281 48.960938 201.808594 48.449219 C 202.738281 47.941406 203.578125 47.394531 204.328125 46.808594 C 205.023438 46.261719 205.503906 45.683594 205.78125 45.066406 L 206.367188 45.328125 L 205.730469 45.40625 C 205.714844 45.292969 205.574219 45.199219 205.304688 45.125 C 204.808594 44.988281 204.140625 44.902344 203.304688 44.863281 C 202.4375 44.824219 201.453125 44.824219 200.355469 44.867188 C 199.226563 44.910156 198.0625 44.914063 196.867188 44.882813 C 195.671875 44.851563 194.496094 44.777344 193.34375 44.660156 C 192.148438 44.535156 191.066406 44.285156 190.085938 43.902344 C 189.074219 43.507813 188.226563 42.945313 187.554688 42.21875 C 186.851563 41.460938 186.425781 40.492188 186.28125 39.316406 C 186.144531 38.1875 186.25 37.039063 186.605469 35.871094 C 186.949219 34.738281 187.453125 33.621094 188.125 32.523438 C 188.789063 31.433594 189.570313 30.402344 190.46875 29.425781 C 191.367188 28.449219 192.324219 27.582031 193.347656 26.8125 C 194.371094 26.042969 195.410156 25.410156 196.460938 24.917969 C 197.53125 24.414063 198.554688 24.101563 199.527344 23.980469 C 199.757813 23.953125 200 23.917969 200.253906 23.871094 C 200.570313 23.816406 200.859375 23.800781 201.117188 23.816406 C 201.472656 23.84375 201.78125 23.980469 202.046875 24.230469 C 202.3125 24.480469 202.472656 24.839844 202.53125 25.316406 C 202.65625 26.316406 202.394531 27.089844 201.753906 27.636719 C 201.191406 28.113281 200.484375 28.40625 199.640625 28.507813 L 199.433594 28.535156 L 197.554688 27.507813 L 197.863281 26.941406 L 197.941406 27.582031 C 197.425781 27.644531 196.863281 27.871094 196.253906 28.253906 C 195.601563 28.667969 194.945313 29.191406 194.289063 29.828125 C 193.625 30.46875 192.988281 31.195313 192.382813 32 C 191.777344 32.804688 191.257813 33.625 190.824219 34.460938 C 190.398438 35.289063 190.074219 36.097656 189.851563 36.898438 C 189.636719 37.65625 189.566406 38.308594 189.632813 38.863281 C 189.730469 39.632813 190.007813 40.214844 190.472656 40.617188 C 190.984375 41.058594 191.644531 41.382813 192.453125 41.582031 C 193.3125 41.796875 194.285156 41.917969 195.375 41.9375 C 196.503906 41.960938 197.640625 41.953125 198.789063 41.921875 C 199.945313 41.886719 201.089844 41.847656 202.21875 41.804688 C 203.386719 41.757813 204.441406 41.804688 205.375 41.945313 C 206.355469 42.089844 207.164063 42.351563 207.804688 42.730469 C 208.554688 43.171875 208.984375 43.847656 209.097656 44.75 L 208.457031 44.828125 L 208.9375 44.402344 C 209.488281 45.023438 209.515625 45.765625 209.011719 46.632813 C 208.628906 47.296875 208.007813 47.980469 207.148438 48.679688 C 206.324219 49.351563 205.34375 50.039063 204.203125 50.746094 C 203.066406 51.449219 201.890625 52.101563 200.675781 52.703125 C 199.460938 53.304688 198.277344 53.832031 197.128906 54.289063 C 195.960938 54.753906 194.953125 55.078125 194.105469 55.265625 L 194.074219 55.273438 L 194.042969 55.277344 C 193.636719 55.328125 193.269531 55.234375 192.941406 54.996094 C 192.535156 54.707031 192.382813 54.226563 192.476563 53.558594 L 193.113281 53.648438 Z M 193.753906 53.695313 L 193.753906 53.714844 L 193.75 53.734375 C 193.734375 53.859375 193.730469 53.953125 193.746094 54.011719 C 193.742188 53.992188 193.722656 53.972656 193.691406 53.953125 C 193.746094 53.992188 193.8125 54.007813 193.886719 54 L 193.964844 54.636719 L 193.824219 54.007813 C 194.605469 53.835938 195.550781 53.53125 196.652344 53.09375 C 197.769531 52.648438 198.921875 52.132813 200.101563 51.546875 C 201.28125 50.964844 202.421875 50.332031 203.523438 49.648438 C 204.621094 48.972656 205.554688 48.316406 206.332031 47.683594 C 207.070313 47.082031 207.59375 46.515625 207.898438 45.984375 C 208.089844 45.65625 208.113281 45.414063 207.972656 45.253906 L 207.839844 45.105469 L 207.816406 44.90625 C 207.757813 44.421875 207.535156 44.066406 207.148438 43.839844 C 206.652344 43.546875 206 43.339844 205.1875 43.21875 C 204.332031 43.089844 203.359375 43.046875 202.269531 43.089844 C 201.136719 43.136719 199.988281 43.175781 198.828125 43.207031 C 197.660156 43.242188 196.5 43.25 195.351563 43.226563 C 194.164063 43.203125 193.09375 43.070313 192.140625 42.832031 C 191.132813 42.582031 190.296875 42.167969 189.628906 41.59375 C 188.914063 40.976563 188.492188 40.117188 188.355469 39.019531 C 188.265625 38.296875 188.351563 37.472656 188.609375 36.550781 C 188.855469 35.667969 189.214844 34.773438 189.683594 33.867188 C 190.144531 32.96875 190.703125 32.089844 191.351563 31.226563 C 192 30.363281 192.679688 29.589844 193.394531 28.898438 C 194.113281 28.203125 194.839844 27.625 195.566406 27.164063 C 196.339844 26.679688 197.078125 26.390625 197.785156 26.304688 L 197.992188 26.277344 L 199.871094 27.304688 L 199.558594 27.871094 L 199.480469 27.230469 C 200.074219 27.160156 200.554688 26.964844 200.921875 26.652344 C 201.210938 26.410156 201.320313 26.015625 201.253906 25.472656 C 201.234375 25.308594 201.203125 25.207031 201.164063 25.167969 C 201.121094 25.128906 201.074219 25.105469 201.019531 25.101563 C 200.867188 25.089844 200.6875 25.105469 200.472656 25.140625 C 200.199219 25.1875 199.9375 25.226563 199.6875 25.257813 C 198.847656 25.363281 197.957031 25.636719 197.007813 26.082031 C 196.039063 26.539063 195.078125 27.125 194.121094 27.84375 C 193.164063 28.5625 192.261719 29.382813 191.417969 30.296875 C 190.574219 31.210938 189.84375 32.175781 189.222656 33.191406 C 188.609375 34.199219 188.148438 35.214844 187.835938 36.242188 C 187.539063 37.238281 187.445313 38.210938 187.5625 39.160156 C 187.671875 40.058594 187.984375 40.789063 188.496094 41.339844 C 189.039063 41.925781 189.722656 42.378906 190.554688 42.703125 C 191.425781 43.042969 192.398438 43.265625 193.476563 43.378906 C 194.597656 43.492188 195.738281 43.566406 196.902344 43.597656 C 198.070313 43.628906 199.203125 43.621094 200.308594 43.578125 C 201.441406 43.535156 202.460938 43.535156 203.363281 43.574219 C 204.292969 43.617188 205.054688 43.722656 205.644531 43.882813 C 206.46875 44.109375 206.921875 44.5625 207.007813 45.25 L 207.03125 45.425781 L 206.957031 45.589844 C 206.597656 46.402344 205.984375 47.144531 205.125 47.820313 C 204.320313 48.453125 203.417969 49.039063 202.421875 49.578125 C 201.441406 50.113281 200.417969 50.609375 199.347656 51.070313 L 196.457031 52.316406 C 195.601563 52.6875 194.890625 53.027344 194.324219 53.332031 C 193.949219 53.535156 193.757813 53.65625 193.753906 53.695313 Z M 193.113281 53.648438 C 193.132813 53.375 193.433594 53.082031 194.019531 52.765625 C 194.601563 52.449219 195.328125 52.105469 196.203125 51.726563 C 197.074219 51.347656 198.039063 50.933594 199.089844 50.480469 C 200.144531 50.027344 201.152344 49.535156 202.117188 49.011719 C 203.078125 48.488281 203.949219 47.921875 204.726563 47.3125 C 205.503906 46.703125 206.050781 46.042969 206.367188 45.328125 C 206.320313 44.925781 206.023438 44.652344 205.476563 44.503906 C 204.929688 44.355469 204.214844 44.261719 203.332031 44.21875 C 202.449219 44.179688 201.449219 44.179688 200.332031 44.222656 C 199.214844 44.265625 198.066406 44.269531 196.886719 44.242188 C 195.707031 44.210938 194.546875 44.136719 193.410156 44.019531 C 192.273438 43.902344 191.246094 43.664063 190.320313 43.300781 C 189.398438 42.941406 188.632813 42.433594 188.023438 41.78125 C 187.417969 41.125 187.050781 40.277344 186.921875 39.238281 C 186.792969 38.199219 186.894531 37.140625 187.222656 36.058594 C 187.546875 34.976563 188.03125 33.910156 188.675781 32.859375 C 189.316406 31.804688 190.070313 30.804688 190.941406 29.863281 C 191.8125 28.917969 192.742188 28.070313 193.734375 27.328125 C 194.726563 26.585938 195.726563 25.976563 196.734375 25.5 C 197.742188 25.023438 198.703125 24.730469 199.609375 24.621094 C 199.847656 24.589844 200.097656 24.550781 200.363281 24.507813 C 200.628906 24.460938 200.863281 24.445313 201.070313 24.460938 C 201.273438 24.476563 201.453125 24.554688 201.605469 24.699219 C 201.757813 24.84375 201.855469 25.074219 201.894531 25.394531 C 201.988281 26.167969 201.800781 26.75 201.335938 27.144531 C 200.871094 27.539063 200.28125 27.78125 199.558594 27.871094 L 197.863281 26.941406 C 197.253906 27.019531 196.601563 27.273438 195.910156 27.710938 C 195.21875 28.144531 194.53125 28.699219 193.84375 29.363281 C 193.152344 30.03125 192.496094 30.78125 191.867188 31.613281 C 191.238281 32.449219 190.703125 33.296875 190.253906 34.164063 C 189.804688 35.03125 189.464844 35.882813 189.230469 36.722656 C 188.996094 37.5625 188.917969 38.304688 188.996094 38.941406 C 189.109375 39.875 189.460938 40.597656 190.050781 41.105469 C 190.640625 41.613281 191.390625 41.980469 192.296875 42.207031 C 193.203125 42.433594 194.226563 42.558594 195.363281 42.582031 C 196.503906 42.605469 197.652344 42.597656 198.808594 42.5625 C 199.96875 42.53125 201.113281 42.492188 202.242188 42.445313 C 203.371094 42.402344 204.386719 42.449219 205.28125 42.582031 C 206.175781 42.714844 206.90625 42.949219 207.476563 43.285156 C 208.042969 43.621094 208.371094 44.136719 208.457031 44.828125 C 208.800781 45.21875 208.800781 45.710938 208.457031 46.308594 C 208.109375 46.90625 207.539063 47.53125 206.738281 48.183594 C 205.941406 48.835938 204.980469 49.507813 203.863281 50.199219 C 202.746094 50.890625 201.585938 51.53125 200.390625 52.125 C 199.191406 52.71875 198.023438 53.242188 196.890625 53.691406 C 195.753906 54.140625 194.78125 54.457031 193.964844 54.636719 C 193.722656 54.667969 193.507813 54.613281 193.316406 54.472656 C 193.121094 54.335938 193.054688 54.058594 193.113281 53.648438 Z M 193.113281 53.648438 "
     id="path33" />
  <path
     fill="none"
     stroke-width="7"
     stroke-linecap="butt"
     stroke-linejoin="miter"
     stroke="inherit"
     stroke-opacity="1"
     stroke-miterlimit="10"
     d="M 104.002142 44.001486 C 104.002142 24.671821 119.668082 9.000668 138.997747 9.000668 "
     transform="matrix(0.749536, 0, 0, 0.749536, 0.374768, 0.374768)"
     id="path35" />
  <path
     fill="none"
     stroke-width="7"
     stroke-linecap="butt"
     stroke-linejoin="miter"
     stroke="inherit"
     stroke-opacity="1"
     stroke-miterlimit="10"
     d="M 104.002142 112.252037 L 433.997934 112.252037 "
     transform="matrix(0.749536, 0, 0, 0.749536, 0.374768, 0.374768)"
     id="path37" />
  <path
     fill="none"
     stroke-width="3"
     stroke-linecap="butt"
     stroke-linejoin="miter"
     stroke="inherit"
     stroke-opacity="1"
     stroke-miterlimit="10"
     d="M 323.997599 73.999208 L 433.997934 73.999208 "
     transform="matrix(0.749536, 0, 0, 0.749536, 0.374768, 0.374768)"
     id="path39" />
  <path
     fill="none"
     stroke-width="3"
     stroke-linecap="butt"
     stroke-linejoin="miter"
     stroke="inherit"
     stroke-opacity="1"
     stroke-miterlimit="10"
     d="M 323.997599 88.49776 L 433.997934 88.49776 "
     transform="matrix(0.749536, 0, 0, 0.749536, 0.374768, 0.374768)"
     id="path41" />
  <path
     fill="none"
     stroke-width="7"
     stroke-linecap="butt"
     stroke-linejoin="miter"
     stroke="inherit"
     stroke-opacity="1"
     stroke-miterlimit="10"
     d="M 364.000679 43.997691 C 364.000679 24.668026 379.671831 9.002086 399.001496 9.002086 "
     transform="matrix(0, 0.749536, -0.749536, 0, 332.419263, -265.710546)"
     id="path43" />
  <path
     fill="none"
     stroke-width="7"
     stroke-linecap="butt"
     stroke-linejoin="miter"
     stroke="inherit"
     stroke-opacity="1"
     stroke-miterlimit="10"
     d="M 68.001331 79.747857 L 139.998992 79.747857 "
     transform="matrix(0, 0.749536, -0.749536, 0, 138.102021, -17.801482)"
     id="path45" />
  <path
     fill="none"
     stroke-width="7"
     stroke-linecap="butt"
     stroke-linejoin="miter"
     stroke="inherit"
     stroke-opacity="1"
     stroke-miterlimit="10"
     d="M 138.497438 9.000668 L 399.497426 9.000668 "
     transform="matrix(0.749536, 0, 0, 0.749536, 0.374768, 0.374768)"
     id="path47" />
  <path
     fill="none"
     stroke-width="7"
     stroke-linecap="butt"
     stroke-linejoin="miter"
     stroke="inherit"
     stroke-opacity="1"
     stroke-miterlimit="10"
     d="M 398.001345 79.752058 L 469.999005 79.752058 "
     transform="matrix(0, 0.749536, -0.749536, 0, 385.448919, -265.148396)"
     id="path49" />
  <g
     clip-path="url(#clip-0)"
     id="g53">
    <path
       fill="none"
       stroke-width="7"
       stroke-linecap="butt"
       stroke-linejoin="miter"
       stroke="inherit"
       stroke-opacity="1"
       stroke-miterlimit="4"
       d="m 225.24924,238.0017 h 297.50174 c 0.74004,0 1.46966,0.0677 2.19406,0.21367 0.72441,0.14592 1.42797,0.3596 2.11068,0.64102 0.68272,0.28143 1.32895,0.6306 1.94391,1.0371 0.61497,0.41171 1.18303,0.88075 1.70418,1.40191 0.52116,0.52116 0.9902,1.08922 1.40191,1.70418 0.4065,0.61496 0.75568,1.2612 1.0371,1.94391 0.28143,0.68271 0.4951,1.38627 0.64102,2.11068 0.14593,0.72441 0.21368,1.45924 0.21368,2.19407 v 52.50122 c 0,0.74004 -0.0678,1.46966 -0.21368,2.19407 -0.14592,0.7244 -0.35959,1.42796 -0.64102,2.11068 -0.28142,0.68271 -0.6306,1.33416 -1.0371,1.94391 -0.41171,0.61496 -0.88075,1.18302 -1.40191,1.70939 -0.52115,0.52116 -1.08921,0.98498 -1.70418,1.3967 -0.61496,0.41171 -1.26119,0.75567 -1.94391,1.0371 -0.68271,0.28663 -1.38627,0.50031 -2.11068,0.64102 -0.7244,0.14592 -1.45402,0.21888 -2.19406,0.21888 H 225.24924 c -0.74004,0 -1.46966,-0.073 -2.19406,-0.21888 -0.72441,-0.14071 -1.42797,-0.35439 -2.11068,-0.64102 -0.68272,-0.28143 -1.32895,-0.62539 -1.94392,-1.0371 -0.61496,-0.41172 -1.18302,-0.87554 -1.70417,-1.3967 -0.52116,-0.52637 -0.9902,-1.09443 -1.40191,-1.70939 -0.40651,-0.60975 -0.75568,-1.2612 -1.0371,-1.94391 -0.28143,-0.68272 -0.4951,-1.38628 -0.64102,-2.11068 -0.14593,-0.72441 -0.21889,-1.45403 -0.21889,-2.19407 v -52.50122 c 0,-0.73483 0.073,-1.46966 0.21889,-2.19407 0.14592,-0.72441 0.35959,-1.42797 0.64102,-2.11068 0.28142,-0.68271 0.63059,-1.32895 1.0371,-1.94391 0.41171,-0.61496 0.88075,-1.18302 1.40191,-1.70418 0.52115,-0.52116 1.08921,-0.9902 1.70417,-1.40191 0.61497,-0.4065 1.2612,-0.75567 1.94392,-1.0371 0.68271,-0.28142 1.38627,-0.4951 2.11068,-0.64102 0.7244,-0.14592 1.45402,-0.21367 2.19406,-0.21367 z m 0,0"
       transform="matrix(-0.749536,0,0,0.749536,561.02774,0.374768)"
       id="path51" />
  </g>
  <path
     fill="none"
     stroke-width="7"
     stroke-linecap="butt"
     stroke-linejoin="miter"
     stroke="inherit"
     stroke-opacity="1"
     stroke-miterlimit="10"
     d="M 144.001763 470.500329 L 383.999176 470.500329 "
     transform="matrix(-0.749536, 0, 0, -0.749536, 396.129828, 705.688219)"
     id="path55" />
  <path
     fill="none"
     stroke-width="7"
     stroke-linecap="butt"
     stroke-linejoin="miter"
     stroke="inherit"
     stroke-opacity="1"
     stroke-miterlimit="10"
     d="M 44.001123 368.500919 L 283.998536 368.500919 "
     transform="matrix(-0.749536, 0, 0, -0.749536, 246.222616, 552.782857)"
     id="path57" />
  <path
     fill="none"
     stroke-width="7"
     stroke-linecap="butt"
     stroke-linejoin="miter"
     stroke="inherit"
     stroke-opacity="1"
     stroke-miterlimit="10"
     d="M 254.001402 275.501181 L 493.998816 275.501181 "
     transform="matrix(-0.749536, 0, 0, -0.749536, 561.027745, 413.369167)"
     id="path59" />
  <path
     fill="none"
     stroke-width="7"
     stroke-linecap="butt"
     stroke-linejoin="miter"
     stroke="inherit"
     stroke-opacity="1"
     stroke-miterlimit="10"
     d="M 144.001763 176.499904 L 383.999176 176.499904 "
     transform="matrix(-0.749536, 0, 0, -0.749536, 396.129828, 264.961014)"
     id="path61" />
  <path
     fill-rule="nonzero"
     fill="inherit"
     fill-opacity="1"
     d="M 273.207031 474.269531 L 295.691406 474.269531 L 295.691406 483.074219 L 273.207031 483.074219 Z M 273.207031 474.269531 "
     id="path63" />
  <g
     clip-path="url(#clip-1)"
     id="g67">
    <path
       fill="none"
       stroke-width="3"
       stroke-linecap="butt"
       stroke-linejoin="miter"
       stroke="inherit"
       stroke-opacity="1"
       stroke-miterlimit="4"
       d="m 364.00151,632.25077 h 29.99772 v 11.74685 h -29.99772 z m 0,0"
       transform="matrix(0.749536,0,0,0.749536,0.374768,0.374768)"
       id="path65" />
  </g>
  <path
     fill-rule="nonzero"
     fill="inherit"
     fill-opacity="1"
     d="M 112.054688 474.269531 L 134.542969 474.269531 L 134.542969 483.074219 L 112.054688 483.074219 Z M 112.054688 474.269531 "
     id="path69" />
  <g
     clip-path="url(#clip-2)"
     id="g73">
    <path
       fill="none"
       stroke-width="3"
       stroke-linecap="butt"
       stroke-linejoin="miter"
       stroke="inherit"
       stroke-opacity="1"
       stroke-miterlimit="4"
       d="m 148.99872,632.25077 h 30.00294 v 11.74685 h -30.00294 z m 0,0"
       transform="matrix(0.749536,0,0,0.749536,0.374768,0.374768)"
       id="path71" />
  </g>
  <g
     clip-path="url(#clip-3)"
     id="g77">
    <path
       fill="none"
       stroke-width="7"
       stroke-linecap="butt"
       stroke-linejoin="miter"
       stroke="inherit"
       stroke-opacity="1"
       stroke-miterlimit="10"
       d="m 364.00204,598.74909 c 0,-19.32967 15.66594,-35.00082 34.99561,-35.00082"
       transform="matrix(-0.749536,0,0,-0.749536,598.50454,897.9442)"
       id="path75" />
  </g>
  <path
     fill="none"
     stroke-width="7"
     stroke-linecap="butt"
     stroke-linejoin="miter"
     stroke="inherit"
     stroke-opacity="1"
     stroke-miterlimit="10"
     d="M 104.002055 530.999357 L 433.997847 530.999357 "
     transform="matrix(-0.749536, 0, 0, -0.749536, 403.625167, 796.382079)"
     id="path79" />
  <path
     fill="none"
     stroke-width="3"
     stroke-linecap="butt"
     stroke-linejoin="miter"
     stroke="inherit"
     stroke-opacity="1"
     stroke-miterlimit="10"
     d="M 103.997533 569.001959 L 213.997867 569.001959 "
     transform="matrix(-0.749536, 0, 0, -0.749536, 238.727246, 853.346868)"
     id="path81" />
  <path
     fill="none"
     stroke-width="3"
     stroke-linecap="butt"
     stroke-linejoin="miter"
     stroke="inherit"
     stroke-opacity="1"
     stroke-miterlimit="10"
     d="M 103.997533 555.00013 L 213.997867 555.00013 "
     transform="matrix(-0.749536, 0, 0, -0.749536, 238.727246, 832.359805)"
     id="path83" />
  <g
     clip-path="url(#clip-4)"
     id="g87">
    <path
       fill="none"
       stroke-width="7"
       stroke-linecap="butt"
       stroke-linejoin="miter"
       stroke="inherit"
       stroke-opacity="1"
       stroke-miterlimit="10"
       d="m 103.99827,598.74774 c 0,-19.32966 15.67115,-34.9956 35.00082,-34.9956"
       transform="matrix(0,-0.749536,0.749536,0,-344.22444,553.34498)"
       id="path85" />
  </g>
  <path
     fill="none"
     stroke-width="7"
     stroke-linecap="butt"
     stroke-linejoin="miter"
     stroke="inherit"
     stroke-opacity="1"
     stroke-miterlimit="10"
     d="M 397.99866 563.497938 L 470.001532 563.497938 "
     transform="matrix(0, -0.749536, 0.749536, 0, -96.690157, 748.037009)"
     id="path89" />
  <path
     fill="none"
     stroke-width="7"
     stroke-linecap="butt"
     stroke-linejoin="miter"
     stroke="inherit"
     stroke-opacity="1"
     stroke-miterlimit="10"
     d="M 67.99861 563.502139 L 140.001482 563.502139 "
     transform="matrix(0, -0.749536, 0.749536, 0, -344.037055, 500.690067)"
     id="path91" />
  <path
     fill="none"
     stroke-width="7"
     stroke-linecap="butt"
     stroke-linejoin="miter"
     stroke="inherit"
     stroke-opacity="1"
     stroke-miterlimit="10"
     d="M 138.502563 633.748302 L 399.502551 633.748302 "
     transform="matrix(-0.749536, 0, 0, -0.749536, 403.625167, 950.411744)"
     id="path93" />
</svg>
